<?xml version="1.0" standalone="yes"?>
<svg xmlns="http://www.w3.org/2000/svg" width="900" height="650">
<path style="fill:#010101; stroke:none;" d="M0 0L0 650L900 650L900 0L0 0z"/>
<path style="fill:#5e5758; stroke:none;" d="M359 94L359 95L370 95L359 94M371 95L371 96L401 95L371 95M422 94L422 95L432 95L422 94M488 94L488 95L492 95L488 94M350 95L350 96L358 96L350 95z"/>
<path style="fill:#b3a1a1; stroke:none;" d="M333 105L334 109C329.835 107.334 325.8 124.679 324 129C317.221 145.269 310.884 161.347 305 179C303.486 183.542 300.569 196.892 297 196L298 199C293.712 202.032 288.23 219.732 295.109 222.214C298.393 223.398 301.463 221.162 304 219.355C310.04 215.052 327.54 207.44 329 200L347 190L347 189C333.281 192.923 320.928 203.425 310 212.26C306.911 214.757 299.837 222.152 295.357 219.069C289.56 215.08 301.031 195.53 303.36 191C314.934 168.488 319.935 142.509 331.572 120C334.795 113.764 335.248 103.828 342.104 100.028C352.834 94.0807 371.165 97.0038 383 97C415.862 96.9893 450.382 93.8777 483 98C480.565 95.2137 476.516 96.0002 473 96L446 96C423.329 96 400.659 96.2656 378 95.9962C360.161 95.784 347.133 93.1585 333 105z"/>
<path style="fill:#5e5758; stroke:none;" d="M403 95L403 96L420 96L403 95M434 95L434 96L484 96C471.111 90.5912 448.049 95 434 95z"/>
<path style="fill:#b3a1a1; stroke:none;" d="M484 95L484 96L495 97L484 95z"/>
<path style="fill:#5e5758; stroke:none;" d="M494 95L494 96L500 96L494 95M331 110L332 110L334 109L333 105L344 97C336.136 93.9695 331.942 103.74 331 110z"/>
<path style="fill:#ede9e9; stroke:none;" d="M348 183L296 218C305.567 189.893 318.204 162.786 328.684 135C331.651 127.134 335.686 108.469 343.213 104.028C349.37 100.395 362.966 103 370 103L437 103L487 103C491.312 103 501.197 101.159 503.972 105.318C508.954 112.784 504.325 131.127 505.17 140C508.796 178.103 508 217.714 508 256C512.925 254.366 514.545 234.672 516 229C511.781 224.868 513.726 220.349 513.961 215C514.329 206.58 513.023 198.371 513 190C535.431 197.148 557.284 216.655 578 228.139C585.869 232.501 598.205 236.167 603.261 244.015C607.344 250.355 604.23 257.719 602 264C616.131 258.921 606.329 240.057 597.996 234.36C577.762 220.524 554.647 210.681 534 197.344C519.577 188.028 508.342 185.355 510.059 166.005C510.673 159.075 516.669 160.194 522 159.961C529.314 159.64 554.46 161.652 557 154L510 155L509 107C533.768 107 552.873 115.417 575 125.312C583.701 129.204 595.732 134.893 594 146L599 140C593.581 136.102 590.451 130.081 584.985 126.221C577.861 121.189 569.786 119.849 562 116.475C554.446 113.201 547.894 108.019 540 105.362C531.648 102.551 523.472 103.935 515 102.56C508.099 101.441 502.004 97.3782 495.039 96.4498C489.496 95.7108 484.385 97.1895 478.961 97.1566C455.965 97.0175 432.9 97.2523 410 96.9962C394.012 96.8173 378.04 96.9938 362 97C356.271 97.0022 345.019 96.9252 340.38 100.603C335.698 104.315 335.022 110.852 333.011 116C328.169 128.396 322.858 140.66 317.771 153C311.342 168.596 304.682 184.284 298.684 200C296.923 204.612 291.831 212.688 293.694 217.768C295.892 223.762 304.232 217.594 307 215.496C315.925 208.729 324.556 201.576 334 195.508C340.054 191.619 346.286 190.673 348 183z"/>
<path style="fill:#b3a1a1; stroke:none;" d="M497 96L497 97L541 106.09L561 116.475L582.999 125.548L599 140L594 146L595 143C587.659 145.939 582.394 140.131 575.059 141.163C570.266 141.837 571.905 146.017 576.019 146.08C579.117 146.128 581.018 145.887 584 147L582 151C586.614 149.516 593.004 151.086 596.686 147.566C608.078 136.677 587.852 123.463 580 119.782C572.957 116.48 565.133 115.443 558 112.289C550.998 109.194 544.448 103.918 537 102.044C529.376 100.126 521.55 101.182 514 99.7253C507.853 98.539 503.545 96.0043 497 96z"/>
<path style="fill:#5e5758; stroke:none;" d="M506.667 96.3333L507.333 96.6667L506.667 96.3333M508.667 97.3333L509.333 97.6667L508.667 97.3333M510 98L511 99L510 98M511 99L511 100L515 100L511 99z"/>
<path style="fill:#ede9e9; stroke:none;" d="M510 100L511 101L510 100z"/>
<path style="fill:#5e5758; stroke:none;" d="M527 100L527 101L534 101L527 100M534 101L534 102L539 102L534 101M539 102L539 103L561 113L561 112L539 102z"/>
<path style="fill:#b3a1a1; stroke:none;" d="M342 103L342 104L480 104C469.02 99.3926 449.944 103 438 103L342 103z"/>
<path style="fill:#5e5758; stroke:none;" d="M480 103L480 104L504 105C498.4 100.758 486.85 103 480 103z"/>
<path style="fill:#b3a1a1; stroke:none;" d="M503 103L504 104L503 103z"/>
<path style="fill:#5e5758; stroke:none;" d="M341 104L342 105L341 104z"/>
<path style="fill:#b3a1a1; stroke:none;" d="M504 104L504 119L505 119L504 104M340 106L341 107L340 106z"/>
<path style="fill:#5e5758; stroke:none;" d="M340 107L341 108L340 107M509 107L509 133L510 133L510 108L517 108L509 107z"/>
<path style="fill:#b3a1a1; stroke:none;" d="M517 107L517 108L525 108L517 107M339 108L340 109L339 108z"/>
<path style="fill:#010101; stroke:none;" d="M510 108L511 154C529.406 154 551.086 156.265 569 152L568 158C573.84 157.732 579.942 156.501 581 150C575.779 149.922 571.799 146.051 571 141C574.877 141 591.142 145.132 592.863 142.393C596.709 136.274 579.939 128.063 576 126.454C553.283 117.169 535.124 108 510 108z"/>
<path style="fill:#5e5758; stroke:none;" d="M528 108L528 109L532 109L528 108z"/>
<path style="fill:#b3a1a1; stroke:none;" d="M532 108L532 109L535 109L532 108z"/>
<path style="fill:#5e5758; stroke:none;" d="M339.333 109.667L339.667 110.333L339.333 109.667M535.667 109.333L536.333 109.667L535.667 109.333z"/>
<path style="fill:#b3a1a1; stroke:none;" d="M537 109L537 110L540 110L537 109z"/>
<path style="fill:#5e5758; stroke:none;" d="M330.333 110.667L330.667 111.333L330.333 110.667z"/>
<path style="fill:#b3a1a1; stroke:none;" d="M338 110L337 114L338 114L338 110z"/>
<path style="fill:#5e5758; stroke:none;" d="M539.667 110.333L540.333 110.667L539.667 110.333z"/>
<path style="fill:#b3a1a1; stroke:none;" d="M541.667 110.333L542.333 110.667L541.667 110.333z"/>
<path style="fill:#5e5758; stroke:none;" d="M542.667 111.333L543.333 111.667L542.667 111.333z"/>
<path style="fill:#b3a1a1; stroke:none;" d="M544 111L545 112L544 111z"/>
<path style="fill:#5e5758; stroke:none;" d="M329 112L329 115L330 115L329 112M338 112L339 113L338 112M545 112L547 114L545 112z"/>
<path style="fill:#b3a1a1; stroke:none;" d="M546 112L547 113L546 112M547 113L548 114L547 113z"/>
<path style="fill:#5e5758; stroke:none;" d="M561.667 113.333L562.333 113.667L561.667 113.333M337.333 114.667L337.667 115.333L337.333 114.667M548 114L549 115L548 114z"/>
<path style="fill:#b3a1a1; stroke:none;" d="M549 114L550 115L549 114z"/>
<path style="fill:#5e5758; stroke:none;" d="M563 114L563 115L574 117L563 114M328.333 115.667L328.667 116.333L328.333 115.667z"/>
<path style="fill:#b3a1a1; stroke:none;" d="M336 115L335 119L336 119L336 115z"/>
<path style="fill:#5e5758; stroke:none;" d="M550 115L551 116L550 115z"/>
<path style="fill:#b3a1a1; stroke:none;" d="M551 115L552 116L551 115z"/>
<path style="fill:#5e5758; stroke:none;" d="M552 116L554 118L552 116z"/>
<path style="fill:#b3a1a1; stroke:none;" d="M553 116L554 117L553 116z"/>
<path style="fill:#5e5758; stroke:none;" d="M327 117L327 120L328 120L327 117M336 117L337 118L336 117z"/>
<path style="fill:#b3a1a1; stroke:none;" d="M554 117L555 118L554 117z"/>
<path style="fill:#5e5758; stroke:none;" d="M574 117L574 118L577 118L574 117M534 118L533 120L534 118z"/>
<path style="fill:#b3a1a1; stroke:none;" d="M535.667 118.333L536.333 118.667L535.667 118.333z"/>
<path style="fill:#5e5758; stroke:none;" d="M537.667 118.333L538.333 118.667L537.667 118.333M555 118L557 120L555 118z"/>
<path style="fill:#b3a1a1; stroke:none;" d="M556 118L557 119L556 118z"/>
<path style="fill:#5e5758; stroke:none;" d="M577.667 118.333L578.333 118.667L577.667 118.333M335.333 119.667L335.667 120.333L335.333 119.667M504 119L504 149L505 149L504 119z"/>
<path style="fill:#ede9e9; stroke:none;" d="M533 123L542 124C540.14 119.137 535.211 117.503 533 123z"/>
<path style="fill:#b3a1a1; stroke:none;" d="M539 119L540 120L539 119z"/>
<path style="fill:#5e5758; stroke:none;" d="M540 119L541 120L540 119z"/>
<path style="fill:#b3a1a1; stroke:none;" d="M557 119L558 120L557 119z"/>
<path style="fill:#5e5758; stroke:none;" d="M579.667 119.333L580.333 119.667L579.667 119.333M326.333 120.667L326.667 121.333L326.333 120.667z"/>
<path style="fill:#b3a1a1; stroke:none;" d="M334.333 120.667L334.667 121.333L334.333 120.667M533 120L534 121L533 120z"/>
<path style="fill:#5e5758; stroke:none;" d="M541 120L542 121L541 120z"/>
<path style="fill:#b3a1a1; stroke:none;" d="M558 120L559 121L558 120z"/>
<path style="fill:#5e5758; stroke:none;" d="M581.667 120.333L582.333 120.667L581.667 120.333M532 121L534 124L532 121z"/>
<path style="fill:#b3a1a1; stroke:none;" d="M541 121L542 122L541 121z"/>
<path style="fill:#5e5758; stroke:none;" d="M559 121L560 122L559 121z"/>
<path style="fill:#b3a1a1; stroke:none;" d="M560.667 121.333L561.333 121.667L560.667 121.333z"/>
<path style="fill:#5e5758; stroke:none;" d="M583.667 121.333L584.333 121.667L583.667 121.333M325.333 122.667L325.667 123.333L325.333 122.667M334 122L335 123L334 122M542 122L543 123L542 122M562 122L562 123L565 123L562 122z"/>
<path style="fill:#b3a1a1; stroke:none;" d="M565.667 122.333L566.333 122.667L565.667 122.333z"/>
<path style="fill:#5e5758; stroke:none;" d="M585.667 122.333L586.333 122.667L585.667 122.333z"/>
<path style="fill:#b3a1a1; stroke:none;" d="M333 123L334 124L333 123M534 123L534 124L537 124L534 123M542 123L540 124L540 125L542 123z"/>
<path style="fill:#5e5758; stroke:none;" d="M567.667 123.333L568.333 123.667L567.667 123.333z"/>
<path style="fill:#b3a1a1; stroke:none;" d="M569.667 123.333L570.333 123.667L569.667 123.333z"/>
<path style="fill:#5e5758; stroke:none;" d="M587 123L588 124L587 123M324 124L324 127L325 127L324 124M333 124L334 125L333 124M537 124L537 125L540 125L537 124M570.667 124.333L571.333 124.667L570.667 124.333z"/>
<path style="fill:#b3a1a1; stroke:none;" d="M572.667 124.333L573.333 124.667L572.667 124.333z"/>
<path style="fill:#5e5758; stroke:none;" d="M588.667 124.333L589.333 124.667L588.667 124.333z"/>
<path style="fill:#b3a1a1; stroke:none;" d="M332.333 125.667L332.667 126.333L332.333 125.667z"/>
<path style="fill:#5e5758; stroke:none;" d="M542 125L543 126L542 125M573.667 125.333L574.333 125.667L573.667 125.333z"/>
<path style="fill:#b3a1a1; stroke:none;" d="M575 125L576 126L575 125z"/>
<path style="fill:#5e5758; stroke:none;" d="M590.667 125.333L591.333 125.667L590.667 125.333M576 126L577 127L576 126z"/>
<path style="fill:#b3a1a1; stroke:none;" d="M577 126L578 127L577 126z"/>
<path style="fill:#5e5758; stroke:none;" d="M592 126L593 127L592 126M323 127L323 130L324 130L323 127M332 127L333 128L332 127M578 127L579 128L578 127z"/>
<path style="fill:#b3a1a1; stroke:none;" d="M579 127L580 128L579 127z"/>
<path style="fill:#5e5758; stroke:none;" d="M593 127L594 128L593 127z"/>
<path style="fill:#b3a1a1; stroke:none;" d="M331 128L332 129L331 128z"/>
<path style="fill:#5e5758; stroke:none;" d="M580 128L581 129L580 128z"/>
<path style="fill:#b3a1a1; stroke:none;" d="M581 128L582 129L581 128z"/>
<path style="fill:#5e5758; stroke:none;" d="M594 128L595 129L594 128M331.333 129.667L331.667 130.333L331.333 129.667M582 129L584 131L582 129z"/>
<path style="fill:#b3a1a1; stroke:none;" d="M583 129L584 130L583 129z"/>
<path style="fill:#5e5758; stroke:none;" d="M595 129L596 130L595 129M322.333 130.667L322.667 131.333L322.333 130.667z"/>
<path style="fill:#b3a1a1; stroke:none;" d="M330 130L329 134L330 134L330 130M584 130L584 131L588 133L584 130z"/>
<path style="fill:#5e5758; stroke:none;" d="M596 130L599 146L600 146C603.09 140.023 601.159 134.087 596 130M585 131L586 132L585 131M321.333 132.667L321.667 133.333L321.333 132.667M330.333 132.667L330.667 133.333L330.333 132.667M586 132L587 133L586 132z"/>
<path style="fill:#b3a1a1; stroke:none;" d="M509 133L509 150L510 150L509 133M588 133L589 134L588 133z"/>
<path style="fill:#5e5758; stroke:none;" d="M329.333 134.667L329.667 135.333L329.333 134.667M589 134L593 138L589 134z"/>
<path style="fill:#b3a1a1; stroke:none;" d="M590 134L591 135L590 134z"/>
<path style="fill:#5e5758; stroke:none;" d="M320.333 135.667L320.667 136.333L320.333 135.667z"/>
<path style="fill:#b3a1a1; stroke:none;" d="M328.333 135.667L328.667 136.333L328.333 135.667M591 135L592 136L591 135M592 136L593 137L592 136z"/>
<path style="fill:#5e5758; stroke:none;" d="M328 137L329 138L328 137M319.333 138.667L319.667 139.333L319.333 138.667z"/>
<path style="fill:#b3a1a1; stroke:none;" d="M327 138L326 142L327 142L327 138M593 138L594 141L595 141L593 138z"/>
<path style="fill:#5e5758; stroke:none;" d="M593 139L594 140L593 139M318.333 140.667L318.667 141.333L318.333 140.667M327 140L328 141L327 140M571 141L572 142L571 141M580 141L580 142L583 142L580 141M594.333 141.667L594.667 142.333L594.333 141.667M317 142C312.14 159.805 303.52 176.928 296.604 194C293.572 201.484 288.427 210.823 290 219L291 219L297 196C301.025 195.454 302.837 187.635 304.153 184C307.692 174.22 311.904 164.723 315.588 155C317.182 150.793 319.522 146.123 317 142M326 142L327 143L326 142z"/>
<path style="fill:#b3a1a1; stroke:none;" d="M505 142L505 159L506 159L505 142z"/>
<path style="fill:#5e5758; stroke:none;" d="M583 142L583 143L586 143L583 142z"/>
<path style="fill:#b3a1a1; stroke:none;" d="M325 143L326 144L325 143z"/>
<path style="fill:#5e5758; stroke:none;" d="M586.667 143.333L587.333 143.667L586.667 143.333M593 143L594 144L593 143M325.333 144.667L325.667 145.333L325.333 144.667M588 144L588 145L593 145L588 144z"/>
<path style="fill:#b3a1a1; stroke:none;" d="M324.333 145.667L324.667 146.333L324.333 145.667z"/>
<path style="fill:#5e5758; stroke:none;" d="M571 145L572 146L571 145M575 147L581 150C579.249 155.913 573.693 157.5 568 158L569 152L543 153L543 154L563 154C560.191 163.254 535.211 160 527 160L527 162L572 159.497L594 151L594 150L582 151L584 147L575 147M572 146L572 147L575 147L572 146M598 146L599 147L598 146M324.333 147.667L324.667 148.333L324.333 147.667M597 147L598 148L597 147z"/>
<path style="fill:#b3a1a1; stroke:none;" d="M323 148L322 152L323 152L323 148z"/>
<path style="fill:#5e5758; stroke:none;" d="M584 148L585 149L584 148M596 148L597 149L596 148M510 149L510 154L511 154L510 149M594.667 149.333L595.333 149.667L594.667 149.333M323 150L324 151L323 150M322 152L321 156L322 156L322 152z"/>
<path style="fill:#b3a1a1; stroke:none;" d="M321 153L322 154L321 153M510 154L510 155L549 155C538.726 150.689 521.172 154 510 154M557 154C552.636 161.914 530.306 159.342 522 159.91C516.365 160.296 510.345 158.609 510.019 166.005C509.799 170.996 508.756 180.086 512.013 184.302C516.289 189.837 527.08 193.52 533 197.344C553.088 210.321 574.73 220.452 595 233.066C604.815 239.173 616.531 256.031 602 264L605 256L604 256L603 261L599 257C594.532 256.52 593.04 253.776 591 250L592 249L595 250C593.306 245.035 590.452 241.799 585 243L585 255L592 256C598.998 275.221 611.99 261.629 611.683 247C611.399 233.443 591.725 227.252 582 221.861C577.545 219.391 573.19 216.69 568 217L569 215C555.705 214.175 541.438 198.794 531 191.587C526.415 188.421 520.342 186.268 516.279 182.505C512.345 178.862 508.277 167.9 513.318 163.742C516.257 161.318 520.437 162.291 523.911 161.871C532.886 160.786 541.936 160.355 551 159.285C556.194 158.673 561.928 160.424 563 154L557 154M320 156L321 157L320 156z"/>
<path style="fill:#5e5758; stroke:none;" d="M320 157L321 158L320 157z"/>
<path style="fill:#b3a1a1; stroke:none;" d="M319 158L318 162L319 162L319 158z"/>
<path style="fill:#5e5758; stroke:none;" d="M505 159L505 181L506 181L505 159M319 160L320 161L319 160M318 162L319 163L318 162M514 162L514 163L517 163L514 162z"/>
<path style="fill:#b3a1a1; stroke:none;" d="M317 163L318 164L317 163z"/>
<path style="fill:#5e5758; stroke:none;" d="M512 163L513 179L514 179L514 163L512 163M317.333 164.667L317.667 165.333L317.333 164.667z"/>
<path style="fill:#b3a1a1; stroke:none;" d="M316.333 165.667L316.667 166.333L316.333 165.667z"/>
<path style="fill:#5e5758; stroke:none;" d="M358 165L358 166L478 166L478 170C480.573 162.149 456.005 165 451 165L358 165z"/>
<path style="fill:#b3a1a1; stroke:none;" d="M357.333 166.667L357.667 167.333L357.333 166.667z"/>
<path style="fill:#ede9e9; stroke:none;" d="M329 317L396 318C392.986 355.878 379.68 394.772 372 432L407 432C410.519 432 417.434 433.306 420.062 430.397C422.253 427.97 422.447 423.06 423.293 420C425.856 410.738 427.796 401.322 430.127 392C430.852 389.098 431.715 380.207 435.924 380.207C440.018 380.207 443.702 390.033 445.424 393C451.869 404.105 458.428 421.769 467.904 430.397C471.408 433.586 479.595 432 484 432L526 432L495.231 377L485.527 357L504 337.999L543.576 299.59L561 281L519 281C513.655 281 505.902 279.6 501 282.027C478.69 293.074 464.614 319.506 443 332L449.746 313.946L456 279L385 279L388 263L457 263L464 221L397 221L400.589 206.603L415 205L455 205L469.567 204.397L473.2 195L478 166L390 166C382.975 166 364.327 162.67 358.728 167.028C355.987 169.16 355.798 174.85 355.25 178C353.679 187.021 352.023 196.026 350.199 205C342.782 241.504 331.955 279.874 329 317z"/>
<path style="fill:#5e5758; stroke:none;" d="M316.333 167.667L316.667 168.333L316.333 167.667z"/>
<path style="fill:#b3a1a1; stroke:none;" d="M315 168L314 172L315 172L315 168z"/>
<path style="fill:#5e5758; stroke:none;" d="M356.333 168.667L356.667 169.333L356.333 168.667M315 170L316 171L315 170z"/>
<path style="fill:#b3a1a1; stroke:none;" d="M356.333 170.667L356.667 171.333L356.333 170.667M477 170L477 173L478 173L477 170z"/>
<path style="fill:#5e5758; stroke:none;" d="M314.333 172.667L314.667 173.333L314.333 172.667z"/>
<path style="fill:#b3a1a1; stroke:none;" d="M362 172L363 173L362 172z"/>
<path style="fill:#e52229; stroke:none;" d="M336 312L415 312C421.346 312 438.231 315.008 443.258 310.972C448.093 307.091 447.897 290.922 449 285L378 285C378.84 278.494 379.63 263.215 384.564 258.603C388.284 255.127 398.256 257 403 257L452 257L457 227L389 227C390.616 220.754 390.941 203.783 396.433 200.028C399.896 197.66 406.993 199 411 199L449 199C453.03 199 463.141 200.822 465.987 197.397C470.062 192.492 469.82 179.261 471 173L444 172L390 172L363.589 173.028L360.6 182L355.661 207L343.6 270L336 312z"/>
<path style="fill:#b3a1a1; stroke:none;" d="M470 172L471 173L470 172M313.333 173.667L313.667 174.333L313.333 173.667z"/>
<path style="fill:#5e5758; stroke:none;" d="M477 173L477 176L478 176L477 173z"/>
<path style="fill:#b3a1a1; stroke:none;" d="M506 173L506 179L507 179L506 173z"/>
<path style="fill:#5e5758; stroke:none;" d="M355 174L356 175L355 174M313 175L314 176L313 175z"/>
<path style="fill:#b3a1a1; stroke:none;" d="M355.333 175.667L355.667 176.333L355.333 175.667M361 175L361 178L362 178L361 175M470 175L470 179L471 179L470 175M312 176L313 177L312 176M476.333 176.667L476.667 177.333L476.333 176.667z"/>
<path style="fill:#5e5758; stroke:none;" d="M312 177L313 178L312 177z"/>
<path style="fill:#b3a1a1; stroke:none;" d="M311 178L308 187L309 187L311 178z"/>
<path style="fill:#5e5758; stroke:none;" d="M354.333 178.667L354.667 179.333L354.333 178.667M476 178L476 182L477 182L476 178M311 180L312 181L311 180z"/>
<path style="fill:#b3a1a1; stroke:none;" d="M354 180L354 183L355 183L354 180M360 180L360 183L361 183L360 180M506 180L506 203L507 203L506 180M469 181L469 185L470 185L469 181M475 181L475 184L476 184L475 181z"/>
<path style="fill:#5e5758; stroke:none;" d="M514 181L515 182L514 181M310.333 182.667L310.667 183.333L310.333 182.667M347 182L348 183L347 182M515 182L516 183L515 182M345 183L346 184L345 183z"/>
<path style="fill:#b3a1a1; stroke:none;" d="M346 183L347 184L346 183z"/>
<path style="fill:#5e5758; stroke:none;" d="M353 183L353 186L354 186L353 183M516 183L516 184L519 184L516 183M343 184L344 185L343 184z"/>
<path style="fill:#b3a1a1; stroke:none;" d="M344 184L345 185L344 184z"/>
<path style="fill:#5e5758; stroke:none;" d="M475.333 184.667L475.667 185.333L475.333 184.667M519.667 184.333L520.333 184.667L519.667 184.333M309 185L310 186L309 185M341 185L342 186L341 185z"/>
<path style="fill:#b3a1a1; stroke:none;" d="M342 185L343 186L342 185M347 185L348 186L347 185M359 185L359 188L360 188L359 185z"/>
<path style="fill:#5e5758; stroke:none;" d="M521 185L522 186L521 185M339 186L340 187L339 186z"/>
<path style="fill:#b3a1a1; stroke:none;" d="M340 186L341 187L340 186z"/>
<path style="fill:#5e5758; stroke:none;" d="M347 186C345.066 192.185 334.499 196.867 329 200L329 203L344 193L343 216L344 216C345.166 206.973 350.687 194.786 347 186z"/>
<path style="fill:#b3a1a1; stroke:none;" d="M353.333 186.667L353.667 187.333L353.333 186.667M468 186L468 190L469 190L468 186z"/>
<path style="fill:#5e5758; stroke:none;" d="M522.667 186.333L523.333 186.667L522.667 186.333M308.333 187.667L308.667 188.333L308.333 187.667z"/>
<path style="fill:#b3a1a1; stroke:none;" d="M338.667 187.333L339.333 187.667L338.667 187.333z"/>
<path style="fill:#5e5758; stroke:none;" d="M524 187L525 188L524 187z"/>
<path style="fill:#b3a1a1; stroke:none;" d="M307.333 188.667L307.667 189.333L307.333 188.667z"/>
<path style="fill:#5e5758; stroke:none;" d="M336 188L337 189L336 188z"/>
<path style="fill:#b3a1a1; stroke:none;" d="M337 188L338 189L337 188z"/>
<path style="fill:#5e5758; stroke:none;" d="M352 188L352 191L353 191L352 188z"/>
<path style="fill:#b3a1a1; stroke:none;" d="M474.333 188.667L474.667 189.333L474.333 188.667z"/>
<path style="fill:#5e5758; stroke:none;" d="M526.667 188.333L527.333 188.667L526.667 188.333z"/>
<path style="fill:#b3a1a1; stroke:none;" d="M335 189L336 190L335 189z"/>
<path style="fill:#5e5758; stroke:none;" d="M528 189L529 190L528 189M307 190L308 191L307 190M333 190L334 191L333 190z"/>
<path style="fill:#b3a1a1; stroke:none;" d="M358 190L358 194L359 194L358 190z"/>
<path style="fill:#5e5758; stroke:none;" d="M474.333 190.667L474.667 191.333L474.333 190.667z"/>
<path style="fill:#b3a1a1; stroke:none;" d="M513 190L513 199L514 199L513 190z"/>
<path style="fill:#5e5758; stroke:none;" d="M514 190L515 191L514 190z"/>
<path style="fill:#b3a1a1; stroke:none;" d="M515 190L516 191L515 190z"/>
<path style="fill:#5e5758; stroke:none;" d="M529 190L530 191L529 190z"/>
<path style="fill:#b3a1a1; stroke:none;" d="M306 191L307 192L306 191z"/>
<path style="fill:#5e5758; stroke:none;" d="M331 191L330 193L331 191z"/>
<path style="fill:#b3a1a1; stroke:none;" d="M332 191L333 192L332 191M352 191L352 194L353 194L352 191z"/>
<path style="fill:#010101; stroke:none;" d="M514 191L514 228C531.343 228 555.383 222.368 569.901 235.394C576.747 241.536 568.12 248.776 579 254C579.2 247.83 584.972 237.895 591.786 244.244C596.252 248.405 597.954 255.78 601 261L602 261C604.96 254.848 605.35 246.295 599.891 241.379C589.811 232.301 574.636 227.447 563 220.548C547.152 211.151 531.221 197.518 514 191z"/>
<path style="fill:#5e5758; stroke:none;" d="M516 191L518 193L516 191z"/>
<path style="fill:#b3a1a1; stroke:none;" d="M517 191L518 192L517 191z"/>
<path style="fill:#5e5758; stroke:none;" d="M530.667 191.333L531.333 191.667L530.667 191.333M306.333 192.667L306.667 193.333L306.333 192.667z"/>
<path style="fill:#b3a1a1; stroke:none;" d="M331 192L332 193L331 192M467 192L467 195L468 195L467 192M518 192L519 193L518 192z"/>
<path style="fill:#5e5758; stroke:none;" d="M532 192L535 194L532 192z"/>
<path style="fill:#b3a1a1; stroke:none;" d="M305.333 193.667L305.667 194.333L305.333 193.667z"/>
<path style="fill:#5e5758; stroke:none;" d="M328 193L327 195L328 193z"/>
<path style="fill:#b3a1a1; stroke:none;" d="M329 193L330 194L329 193z"/>
<path style="fill:#5e5758; stroke:none;" d="M351 193L351 196L352 196L351 193z"/>
<path style="fill:#b3a1a1; stroke:none;" d="M473.333 193.667L473.667 194.333L473.333 193.667z"/>
<path style="fill:#5e5758; stroke:none;" d="M519 193L521 195L519 193z"/>
<path style="fill:#b3a1a1; stroke:none;" d="M520 193L521 194L520 193M328 194L329 195L328 194M521 194L522 195L521 194z"/>
<path style="fill:#5e5758; stroke:none;" d="M535 194L538 196L535 194M305 195L306 196L305 195M325 195L324 197L325 195z"/>
<path style="fill:#b3a1a1; stroke:none;" d="M326 195L327 196L326 195M357 195L357 199L358 199L357 195z"/>
<path style="fill:#5e5758; stroke:none;" d="M473.333 195.667L473.667 196.333L473.333 195.667M522 195L523 196L522 195z"/>
<path style="fill:#b3a1a1; stroke:none;" d="M523 195L524 196L523 195M304 196L305 197L304 196M325 196L326 197L325 196M351 196L351 199L352 199L351 196z"/>
<path style="fill:#5e5758; stroke:none;" d="M524 196L526 198L524 196z"/>
<path style="fill:#b3a1a1; stroke:none;" d="M525 196L526 197L525 196z"/>
<path style="fill:#5e5758; stroke:none;" d="M538 196C543.443 203.562 559.386 215.067 569 215L568 217L569 217L573 217L573 216L538 196M304.333 197.667L304.667 198.333L304.333 197.667M322 197L320 200L322 197z"/>
<path style="fill:#b3a1a1; stroke:none;" d="M323 197L324 198L323 197M526 197L527 198L526 197M303.333 198.667L303.667 199.333L303.333 198.667M322 198L323 199L322 198z"/>
<path style="fill:#5e5758; stroke:none;" d="M350 198L350 202L351 202L350 198z"/>
<path style="fill:#b3a1a1; stroke:none;" d="M466 198L467 199L466 198M472.333 198.667L472.667 199.333L472.333 198.667z"/>
<path style="fill:#5e5758; stroke:none;" d="M527 198L527 199L531 201L531 200L527 198z"/>
<path style="fill:#b3a1a1; stroke:none;" d="M528 198L529 199L528 198M321 199L322 200L321 199M395 199L395 200L466 200L444 199L395 199M530 199L531 200L530 199z"/>
<path style="fill:#5e5758; stroke:none;" d="M303 200L304 201L303 200M318 200L317 202L318 200z"/>
<path style="fill:#b3a1a1; stroke:none;" d="M319 200L320 201L319 200z"/>
<path style="fill:#5e5758; stroke:none;" d="M472 200L472 203L473 203L472 200z"/>
<path style="fill:#b3a1a1; stroke:none;" d="M531 200L532 201L531 200M302 201L303 202L302 201M318 201L319 202L318 201M356 201L356 204L357 204L356 201M394 201L394 204L395 204L394 201z"/>
<path style="fill:#5e5758; stroke:none;" d="M532 201L534 203L532 201z"/>
<path style="fill:#b3a1a1; stroke:none;" d="M533 201L534 202L533 201z"/>
<path style="fill:#5e5758; stroke:none;" d="M302.333 202.667L302.667 203.333L302.333 202.667z"/>
<path style="fill:#b3a1a1; stroke:none;" d="M316 202L317 203L316 202M350.333 202.667L350.667 203.333L350.333 202.667M534 202L535 203L534 202M301.333 203.667L301.667 204.333L301.333 203.667z"/>
<path style="fill:#5e5758; stroke:none;" d="M314 203L313 205L314 203z"/>
<path style="fill:#b3a1a1; stroke:none;" d="M315 203L316 204L315 203z"/>
<path style="fill:#5e5758; stroke:none;" d="M327.667 203.333L328.333 203.667L327.667 203.333z"/>
<path style="fill:#b3a1a1; stroke:none;" d="M471 203C466.739 206.228 460.162 205 455 205L418 205C412.49 205 402.319 202.88 399 208L400 208C403.949 204.615 410.978 206 416 206L455 206C458.312 206 471.788 207.782 471 203z"/>
<path style="fill:#5e5758; stroke:none;" d="M506 203L506 219L507 219L506 203M535 203L536 204L535 203z"/>
<path style="fill:#b3a1a1; stroke:none;" d="M536 203L537 204L536 203M314 204L315 205L314 204z"/>
<path style="fill:#5e5758; stroke:none;" d="M325 204L325 206L327 204L325 204M349 204L349 207L350 207L349 204z"/>
<path style="fill:#b3a1a1; stroke:none;" d="M537 204L537 205L540 206L537 204z"/>
<path style="fill:#5e5758; stroke:none;" d="M301 205L302 206L301 205z"/>
<path style="fill:#b3a1a1; stroke:none;" d="M312 205L313 206L312 205z"/>
<path style="fill:#5e5758; stroke:none;" d="M471 205L472 206L471 205M538 205L539 206L538 205z"/>
<path style="fill:#b3a1a1; stroke:none;" d="M300 206L301 207L300 206z"/>
<path style="fill:#5e5758; stroke:none;" d="M310 206L309 208L310 206z"/>
<path style="fill:#b3a1a1; stroke:none;" d="M311 206L312 207L311 206z"/>
<path style="fill:#5e5758; stroke:none;" d="M322 208L325 206L322 208z"/>
<path style="fill:#b3a1a1; stroke:none;" d="M355.333 206.667L355.667 207.333L355.333 206.667M393 206L393 209L394 209L393 206z"/>
<path style="fill:#5e5758; stroke:none;" d="M400 206L401 207L400 206M540 206L542 208L540 206z"/>
<path style="fill:#b3a1a1; stroke:none;" d="M541 206L542 207L541 206z"/>
<path style="fill:#5e5758; stroke:none;" d="M300.333 207.667L300.667 208.333L300.333 207.667z"/>
<path style="fill:#b3a1a1; stroke:none;" d="M310 207L311 208L310 207M349.333 207.667L349.667 208.333L349.333 207.667M542 207L543 208L542 207z"/>
<path style="fill:#5e5758; stroke:none;" d="M308 208L309 209L308 208M318 208L319 209L318 208M321 208L322 209L321 208M399 208L399 211L400 211L399 208M543 208L544 209L543 208z"/>
<path style="fill:#b3a1a1; stroke:none;" d="M544 208L545 209L544 208M299 209L300 210L299 209M307 209L308 210L307 209z"/>
<path style="fill:#5e5758; stroke:none;" d="M296 223L296 224C305.93 223.76 313.151 215.339 321 210C312.911 207.102 303.484 220.518 296 223M545 209L547 211L545 209z"/>
<path style="fill:#b3a1a1; stroke:none;" d="M546 209L547 210L546 209z"/>
<path style="fill:#5e5758; stroke:none;" d="M299 210L300 211L299 210M305 210L306 211L305 210z"/>
<path style="fill:#b3a1a1; stroke:none;" d="M306 210L307 211L306 210z"/>
<path style="fill:#5e5758; stroke:none;" d="M348.333 210.667L348.667 211.333L348.333 210.667z"/>
<path style="fill:#b3a1a1; stroke:none;" d="M547 210L548 211L547 210M298 211L299 212L298 211z"/>
<path style="fill:#5e5758; stroke:none;" d="M304 211L305 212L304 211z"/>
<path style="fill:#b3a1a1; stroke:none;" d="M354 211L354 214L355 214L354 211M392 211L392 214L393 214L392 211M398.333 211.667L398.667 212.333L398.333 211.667z"/>
<path style="fill:#5e5758; stroke:none;" d="M548 211L550 213L548 211z"/>
<path style="fill:#b3a1a1; stroke:none;" d="M549 211L550 212L549 211z"/>
<path style="fill:#5e5758; stroke:none;" d="M298.333 212.667L298.667 213.333L298.333 212.667z"/>
<path style="fill:#b3a1a1; stroke:none;" d="M303 212L304 213L303 212M348 212L349 213L348 212M550 212L550 213L553 214L550 212M297.333 213.667L297.667 214.333L297.333 213.667z"/>
<path style="fill:#5e5758; stroke:none;" d="M301 213L300 215L301 213z"/>
<path style="fill:#b3a1a1; stroke:none;" d="M302 213L303 214L302 213z"/>
<path style="fill:#5e5758; stroke:none;" d="M398 213L398 216L399 216L398 213M551 213L552 214L551 213z"/>
<path style="fill:#b3a1a1; stroke:none;" d="M301 214L302 215L301 214z"/>
<path style="fill:#5e5758; stroke:none;" d="M553 214L555 216L553 214z"/>
<path style="fill:#b3a1a1; stroke:none;" d="M554 214L555 215L554 214z"/>
<path style="fill:#5e5758; stroke:none;" d="M297.333 215.667L297.667 216.333L297.333 215.667M299 215L300 216L299 215M347.333 215.667L347.667 216.333L347.333 215.667z"/>
<path style="fill:#b3a1a1; stroke:none;" d="M391 215L391 218L392 218L391 215M555 215L556 216L555 215M296 216L296 218L298 218L296 216M298 216L299 217L298 216z"/>
<path style="fill:#5e5758; stroke:none;" d="M342 216L342 222L343 222L342 216z"/>
<path style="fill:#b3a1a1; stroke:none;" d="M353 216L353 219L354 219L353 216M397.333 216.667L397.667 217.333L397.333 216.667z"/>
<path style="fill:#5e5758; stroke:none;" d="M556 216L557 217L556 216z"/>
<path style="fill:#b3a1a1; stroke:none;" d="M557 216L558 217L557 216M347.333 217.667L347.667 218.333L347.333 217.667z"/>
<path style="fill:#5e5758; stroke:none;" d="M558 217L560 219L558 217z"/>
<path style="fill:#b3a1a1; stroke:none;" d="M559 217L560 218L559 217z"/>
<path style="fill:#5e5758; stroke:none;" d="M573.667 217.333L574.333 217.667L573.667 217.333M397 218C398.103 223.149 408.615 221 413 221L465 221L465 220L419 220L397 218z"/>
<path style="fill:#b3a1a1; stroke:none;" d="M560 218L561 219L560 218z"/>
<path style="fill:#5e5758; stroke:none;" d="M575.667 218.333L576.333 218.667L575.667 218.333M291.333 219.667L291.667 220.333L291.333 219.667M346 219L346 222L347 222L346 219z"/>
<path style="fill:#b3a1a1; stroke:none;" d="M513 219L513 228L514 228L513 219z"/>
<path style="fill:#5e5758; stroke:none;" d="M561 219L561 220L565 222L565 221L561 219z"/>
<path style="fill:#b3a1a1; stroke:none;" d="M562 219L563 220L562 219z"/>
<path style="fill:#5e5758; stroke:none;" d="M577.667 219.333L578.333 219.667L577.667 219.333z"/>
<path style="fill:#b3a1a1; stroke:none;" d="M352 220L352 224L353 224L352 220M390 220L390 223L391 223L390 220M564 220L565 221L564 220z"/>
<path style="fill:#5e5758; stroke:none;" d="M579.667 220.333L580.333 220.667L579.667 220.333M292 221L293 222L292 221z"/>
<path style="fill:#b3a1a1; stroke:none;" d="M464 221L465 222L464 221M565 221L566 222L565 221z"/>
<path style="fill:#5e5758; stroke:none;" d="M581.667 221.333L582.333 221.667L581.667 221.333M293.667 222.333L294.333 222.667L293.667 222.333M341 222L341 227L342 227L341 222z"/>
<path style="fill:#b3a1a1; stroke:none;" d="M346 222L346 225L347 225L346 222z"/>
<path style="fill:#5e5758; stroke:none;" d="M464 222L464 226L465 226L464 222M566 222L567 223L566 222z"/>
<path style="fill:#b3a1a1; stroke:none;" d="M567 222L568 223L567 222z"/>
<path style="fill:#5e5758; stroke:none;" d="M583 222L583 223L588 225L588 224L583 222M568 223L569 224L568 223z"/>
<path style="fill:#b3a1a1; stroke:none;" d="M569 223L570 224L569 223z"/>
<path style="fill:#5e5758; stroke:none;" d="M345 224L345 227L346 227L345 224M570 224L570 225L574 227L574 226L570 224z"/>
<path style="fill:#b3a1a1; stroke:none;" d="M571 224L572 225L571 224M389 225C392.407 228.899 402.099 227 407 227L457 227L457 226C435.64 226 409.777 229.947 389 225M463 225L463 228L464 228L463 225M573 225L574 226L573 225z"/>
<path style="fill:#5e5758; stroke:none;" d="M588.667 225.333L589.333 225.667L588.667 225.333z"/>
<path style="fill:#b3a1a1; stroke:none;" d="M351 226L351 230L352 230L351 226M574 226L574 227L577 228L574 226z"/>
<path style="fill:#5e5758; stroke:none;" d="M590.667 226.333L591.333 226.667L590.667 226.333z"/>
<path style="fill:#b3a1a1; stroke:none;" d="M345 227L345 230L346 230L345 227M457.333 227.667L457.667 228.333L457.333 227.667M507 227L507 242L508 242L507 227z"/>
<path style="fill:#5e5758; stroke:none;" d="M519 228L519 229L523 229L522 233L537 233C538.936 226.624 545.437 228 551 228L519 228M575 227L576 228L575 227M592.667 227.333L593.333 227.667L592.667 227.333M340 228L340 232L341 232L340 228M463 228L463 232L464 232L463 228z"/>
<path style="fill:#b3a1a1; stroke:none;" d="M514 228L514 229C515.275 232.241 512.811 234.636 512.228 238C511.158 244.164 514.45 252.443 508 256L508 261C511.911 260.348 512.7 258.864 513 255L515 256C515 248.609 512.123 236.753 522 236L521 234L530 234L530 233L522 233L523 229L514 228M537 233L532 233L532 234L551 234L551 235L549 235L549 236L572 240C570.372 234.502 565.199 232.498 560 231L560 232L564 235C560.147 235.112 545.02 233.923 547 229C542.453 227.093 537.883 227.707 537 233z"/>
<path style="fill:#ede9e9; stroke:none;" d="M545 229C546.822 234.491 558.732 235.453 564 235C560.261 229.297 551.323 227.994 545 229z"/>
<path style="fill:#b3a1a1; stroke:none;" d="M549 228L549 229L553 229L549 228z"/>
<path style="fill:#5e5758; stroke:none;" d="M553.667 228.333L554.333 228.667L553.667 228.333M577 228L578 229L577 228z"/>
<path style="fill:#b3a1a1; stroke:none;" d="M578 228L579 229L578 228z"/>
<path style="fill:#5e5758; stroke:none;" d="M594.667 228.333L595.333 228.667L594.667 228.333M344 229L344 232L345 232L344 229z"/>
<path style="fill:#b3a1a1; stroke:none;" d="M555 229L556 230L555 229z"/>
<path style="fill:#5e5758; stroke:none;" d="M556 229L557 230L556 229M579 229L580 230L579 229z"/>
<path style="fill:#b3a1a1; stroke:none;" d="M580 229L581 230L580 229z"/>
<path style="fill:#5e5758; stroke:none;" d="M596 229L597 230L596 229z"/>
<path style="fill:#b3a1a1; stroke:none;" d="M558 230L559 231L558 230z"/>
<path style="fill:#5e5758; stroke:none;" d="M559 230L560 231L559 230M581 230L582 231L581 230z"/>
<path style="fill:#b3a1a1; stroke:none;" d="M582 230L583 231L582 230z"/>
<path style="fill:#5e5758; stroke:none;" d="M597.667 230.333L598.333 230.667L597.667 230.333z"/>
<path style="fill:#b3a1a1; stroke:none;" d="M350 231L350 235L351 235L350 231M456 231L456 235L457 235L456 231M462 231L462 234L463 234L462 231z"/>
<path style="fill:#5e5758; stroke:none;" d="M562 231L563 232L562 231M583 231L583 232L589 235L589 234L583 231z"/>
<path style="fill:#b3a1a1; stroke:none;" d="M584 231L585 232L584 231z"/>
<path style="fill:#5e5758; stroke:none;" d="M599.667 231.333L600.333 231.667L599.667 231.333z"/>
<path style="fill:#b3a1a1; stroke:none;" d="M344 232L344 235L345 235L344 232z"/>
<path style="fill:#5e5758; stroke:none;" d="M564.667 232.333L565.333 232.667L564.667 232.333z"/>
<path style="fill:#b3a1a1; stroke:none;" d="M586 232L587 233L586 232z"/>
<path style="fill:#5e5758; stroke:none;" d="M601.667 232.333L602.333 232.667L601.667 232.333M566.667 233.333L567.333 233.667L566.667 233.333z"/>
<path style="fill:#b3a1a1; stroke:none;" d="M588 233L589 234L588 233z"/>
<path style="fill:#5e5758; stroke:none;" d="M603 233L604 234L603 233M339 234L339 237L340 237L339 234M462 234L462 237L463 237L462 234z"/>
<path style="fill:#ede9e9; stroke:none;" d="M521 234L521 235L539 235L521 234M546 234L546 235L551 235L546 234z"/>
<path style="fill:#5e5758; stroke:none;" d="M568.667 234.333L569.333 234.667L568.667 234.333z"/>
<path style="fill:#b3a1a1; stroke:none;" d="M589 234L589 235L592 236L589 234z"/>
<path style="fill:#5e5758; stroke:none;" d="M604 234L605 235L604 234M343 235L343 238L344 238L343 235M522 235L522 236L530 236L522 235z"/>
<path style="fill:#b3a1a1; stroke:none;" d="M530 235L530 236L537 236L530 235z"/>
<path style="fill:#5e5758; stroke:none;" d="M537 235L537 236L549 236L537 235M570 235L571 236L570 235M590 235L591 236L590 235M606 235L607 236L606 235z"/>
<path style="fill:#b3a1a1; stroke:none;" d="M349 236L349 240L350 240L349 236z"/>
<path style="fill:#5e5758; stroke:none;" d="M516 236L516 237L519 237L516 236M551 236L551 237L565 239L551 236M571 236L572 237L571 236M592 236L593 237L592 236z"/>
<path style="fill:#b3a1a1; stroke:none;" d="M593 236L594 237L593 236z"/>
<path style="fill:#ede9e9; stroke:none;" d="M605 236L606 237L605 236z"/>
<path style="fill:#5e5758; stroke:none;" d="M607 236L608 237L607 236z"/>
<path style="fill:#b3a1a1; stroke:none;" d="M455 237L455 240L456 240L455 237M461.333 237.667L461.667 238.333L461.333 237.667z"/>
<path style="fill:#5e5758; stroke:none;" d="M515 237L515 256L513 255C512.432 258.582 511.492 259.943 508 261L508 275L509 275L514 267L513 276C529.275 282.095 552.725 278 570 278L530 317.985L515 335L516 335L562.286 291.996L575 276C561.913 272.884 546.424 275 533 275C528.835 275 519.868 276.711 517.179 272.682C511.059 263.511 519.251 247.13 515 237M572 237L563 244C563.08 252.914 568.743 262.393 579 261.848C582.153 261.68 585.784 258.161 588.79 259.191C593.271 260.727 593.55 266.119 599 267L599 266L592 256L585 255L586 242C580.539 244.577 579.069 248.172 579 254L574 251L582 254C581.556 264.367 559.823 255.002 570 245L571 249L572 249L572 237M594 237L594 238L598 240L598 239L594 237z"/>
<path style="fill:#b3a1a1; stroke:none;" d="M595 237L596 238L595 237z"/>
<path style="fill:#5e5758; stroke:none;" d="M608.333 237.667L608.667 238.333L608.333 237.667z"/>
<path style="fill:#b3a1a1; stroke:none;" d="M343.333 238.667L343.667 239.333L343.333 238.667M597 238L598 239L597 238z"/>
<path style="fill:#5e5758; stroke:none;" d="M461 239L461 242L462 242L461 239M566 239L567 240L566 239z"/>
<path style="fill:#b3a1a1; stroke:none;" d="M598 239L598 240L604 247L605 247L598 239z"/>
<path style="fill:#5e5758; stroke:none;" d="M609 239L611 242L609 239M338.333 240.667L338.667 241.333L338.333 240.667M342 240L342 243L343 243L342 240M599 240L600 241L599 240M586 241L586 242L589 242L586 241M600 241L601 242L600 241z"/>
<path style="fill:#b3a1a1; stroke:none;" d="M348 242L348 245L349 245L348 242M454 242L454 246L455 246L454 242M460 242L460 245L461 245L460 242z"/>
<path style="fill:#5e5758; stroke:none;" d="M507 242L507 251L508 251L507 242M590 242L591 243L590 242M601 242L602 243L601 242M611 242L611 245L612 245L611 242z"/>
<path style="fill:#b3a1a1; stroke:none;" d="M342.333 243.667L342.667 244.333L342.333 243.667z"/>
<path style="fill:#5e5758; stroke:none;" d="M591 243L592 244L591 243M602 243L603 244L602 243M337 244L337 247L338 247L337 244M592 244L593 245L592 244M460.333 245.667L460.667 246.333L460.333 245.667z"/>
<path style="fill:#b3a1a1; stroke:none;" d="M568 245C566.974 248.495 566.024 253.768 569.329 256.44C573.264 259.621 583.094 261.221 582 254C576.13 253.905 572.4 250.144 570 245L568 245z"/>
<path style="fill:#5e5758; stroke:none;" d="M593 245L594 246L593 245M603 245L604 246L603 245M341.333 246.667L341.667 247.333L341.333 246.667M612 246C610.266 254.449 609.277 265.413 599 267L599 268C610.373 269.111 616.059 255.673 612 246z"/>
<path style="fill:#b3a1a1; stroke:none;" d="M347.333 247.667L347.667 248.333L347.333 247.667z"/>
<path style="fill:#5e5758; stroke:none;" d="M594 247L595 248L594 247M604 247L604 256L605 256L604 247z"/>
<path style="fill:#b3a1a1; stroke:none;" d="M341 248L342 249L341 248M453 248L453 251L454 251L453 248z"/>
<path style="fill:#5e5758; stroke:none;" d="M610.333 248.667L610.667 249.333L610.333 248.667z"/>
<path style="fill:#b3a1a1; stroke:none;" d="M459 249L460 250L459 249z"/>
<path style="fill:#ede9e9; stroke:none;" d="M592 249L591 250L598 258L594 249L592 249z"/>
<path style="fill:#5e5758; stroke:none;" d="M595.333 249.667L595.667 250.333L595.333 249.667M336 250L335 258L336 258L336 250M459.333 250.667L459.667 251.333L459.333 250.667z"/>
<path style="fill:#b3a1a1; stroke:none;" d="M605.333 250.667L605.667 251.333L605.333 250.667z"/>
<path style="fill:#5e5758; stroke:none;" d="M340.333 251.667L340.667 252.333L340.333 251.667z"/>
<path style="fill:#b3a1a1; stroke:none;" d="M595 251L596 252L595 251M346 252L346 255L347 255L346 252z"/>
<path style="fill:#5e5758; stroke:none;" d="M596 252L597 253L596 252z"/>
<path style="fill:#b3a1a1; stroke:none;" d="M340.333 253.667L340.667 254.333L340.333 253.667M596 253L598 256L596 253M611.333 253.667L611.667 254.333L611.333 253.667M452.333 254.667L452.667 255.333L452.333 254.667M458 254L459 255L458 254z"/>
<path style="fill:#5e5758; stroke:none;" d="M597 254L598 255L597 254M458 255L458 258L459 258L458 255M339.333 256.667L339.667 257.333L339.333 256.667M598 256L599 257L598 256z"/>
<path style="fill:#b3a1a1; stroke:none;" d="M345 257L345 261L346 261L345 257M339 258L339 261L340 261L339 258M383.333 258.667L383.667 259.333L383.333 258.667M457 258L457 261L458 261L457 258z"/>
<path style="fill:#ede9e9; stroke:none;" d="M598 258L599 259L598 258z"/>
<path style="fill:#5e5758; stroke:none;" d="M599 258L600 259L599 258M603 258L604 259L603 258M334.333 260.667L334.667 261.333L334.333 260.667M338 260L338 263L339 263L338 260M600 260L601 261L600 260M602 260L603 261L602 260M457.333 261.667L457.667 262.333L457.333 261.667z"/>
<path style="fill:#b3a1a1; stroke:none;" d="M344 262L344 266L345 266L344 262M382.333 262.667L382.667 263.333L382.333 262.667M338 263L338 266L339 266L338 263M388 263L389 264L388 263z"/>
<path style="fill:#5e5758; stroke:none;" d="M389 263L389 264L457 264L436 263L389 263M388.333 264.667L388.667 265.333L388.333 264.667M337 265L337 269L338 269L337 265z"/>
<path style="fill:#b3a1a1; stroke:none;" d="M343 267L343 271L344 271L343 267M381.333 267.667L381.667 268.333L381.333 267.667M387.333 267.667L387.667 268.333L387.333 267.667M337 269L337 272L338 272L337 269z"/>
<path style="fill:#5e5758; stroke:none;" d="M387 269L387 272L388 272L387 269M336 271L336 274L337 274L336 271z"/>
<path style="fill:#b3a1a1; stroke:none;" d="M380 271L380 274L381 274L380 271M386 271L386 274L387 274L386 271M342 273L342 276L343 276L342 273M336 274L336 277L337 277L336 274z"/>
<path style="fill:#5e5758; stroke:none;" d="M386 274L386 277L387 277L386 274M335 276L335 279L336 279L335 276z"/>
<path style="fill:#b3a1a1; stroke:none;" d="M379 276L379 279L380 279L379 276M385 276L385 279L386 279L385 276M341 278L341 281L342 281L341 278z"/>
<path style="fill:#5e5758; stroke:none;" d="M386 278L386 279L456 279L434 278L386 278z"/>
<path style="fill:#b3a1a1; stroke:none;" d="M335.333 279.667L335.667 280.333L335.333 279.667z"/>
<path style="fill:#5e5758; stroke:none;" d="M456 279L456 283L457 283L456 279M501 280L501 281C520.531 281 543.995 277.475 563 282L545 280L501 280z"/>
<path style="fill:#b3a1a1; stroke:none;" d="M378 281L378 285L379 285L378 281z"/>
<path style="fill:#5e5758; stroke:none;" d="M500 281L501 282L500 281z"/>
<path style="fill:#b3a1a1; stroke:none;" d="M561.333 281.667L561.667 282.333L561.333 281.667z"/>
<path style="fill:#5e5758; stroke:none;" d="M334.333 282.667L334.667 283.333L334.333 282.667z"/>
<path style="fill:#b3a1a1; stroke:none;" d="M455 282L455 285L456 285L455 282z"/>
<path style="fill:#5e5758; stroke:none;" d="M499 282L500 283L499 282z"/>
<path style="fill:#b3a1a1; stroke:none;" d="M340 283L340 286L341 286L340 283M498 283L499 284L498 283M560 283L561 284L560 283M334.333 284.667L334.667 285.333L334.333 284.667M497 284L498 285L497 284M559 284L560 285L559 284M449 285L450 286L449 285z"/>
<path style="fill:#5e5758; stroke:none;" d="M455 285L455 288L456 288L455 285z"/>
<path style="fill:#b3a1a1; stroke:none;" d="M496 285L497 286L496 285M558 285L559 286L558 285M495 286L496 287L495 286z"/>
<path style="fill:#5e5758; stroke:none;" d="M557 286L558 287L557 286M333.333 287.667L333.667 288.333L333.333 287.667z"/>
<path style="fill:#b3a1a1; stroke:none;" d="M448 287L448 291L449 291L448 287z"/>
<path style="fill:#5e5758; stroke:none;" d="M493 287L494 288L493 287z"/>
<path style="fill:#b3a1a1; stroke:none;" d="M494 287L495 288L494 287M503 287L504 288L503 287z"/>
<path style="fill:#e52229; stroke:none;" d="M439 318L414 318C411.039 318 406.105 317.11 403.589 319.028C398.461 322.935 397.529 340.798 396.211 347C390.617 373.306 385.74 399.962 379 426C385.728 427.989 408.591 430.156 414.487 425.972C417.927 423.531 418.47 415.83 419.349 412C422.234 399.429 426.347 386.799 428 374C431.634 373.844 436.464 372.163 439.815 374.032C444.09 376.415 446.516 382.933 448.85 387C455.175 398.016 462.377 417.516 472.379 425.397C475.638 427.964 481.12 427 485 427L516 427C510.573 409.851 497.532 392.627 488.573 377C485.718 372.021 477.846 362.912 478.252 357C478.693 350.592 490.666 342.287 495 338.004C504.799 328.322 514.783 318.414 525 309.17C532.143 302.706 541.866 295.864 546 287C533.954 287 515.265 283.44 504 287.742C493.057 291.922 481.696 306.342 473 314.169C465.663 320.772 458.407 327.458 451 333.985C447.988 336.638 443.517 340.199 439.163 338.382C433.915 336.192 438.906 322.536 439 318z"/>
<path style="fill:#b3a1a1; stroke:none;" d="M546 287L546 289L548 287L546 287z"/>
<path style="fill:#5e5758; stroke:none;" d="M556 287L557 288L556 287z"/>
<path style="fill:#b3a1a1; stroke:none;" d="M339 288L339 292L340 292L339 288M454.333 288.667L454.667 289.333L454.333 288.667z"/>
<path style="fill:#5e5758; stroke:none;" d="M492 288L493 289L492 288M555 288L556 289L555 288z"/>
<path style="fill:#b3a1a1; stroke:none;" d="M333.333 289.667L333.667 290.333L333.333 289.667z"/>
<path style="fill:#5e5758; stroke:none;" d="M491 289L492 290L491 289z"/>
<path style="fill:#b3a1a1; stroke:none;" d="M500 289L501 290L500 289M545 289L546 290L545 289z"/>
<path style="fill:#5e5758; stroke:none;" d="M554 289L555 290L554 289M454 290L454 293L455 293L454 290M490 290L491 291L490 290z"/>
<path style="fill:#b3a1a1; stroke:none;" d="M499 290L500 291L499 290M544 290L545 291L544 290z"/>
<path style="fill:#5e5758; stroke:none;" d="M553 290L554 291L553 290M489 291L490 292L489 291z"/>
<path style="fill:#b3a1a1; stroke:none;" d="M498 291L499 292L498 291M543 291L544 292L543 291z"/>
<path style="fill:#5e5758; stroke:none;" d="M552 291L553 292L552 291M332.333 292.667L332.667 293.333L332.333 292.667z"/>
<path style="fill:#b3a1a1; stroke:none;" d="M488 292L489 293L488 292M497 292L498 293L497 292M542 292L543 293L542 292z"/>
<path style="fill:#5e5758; stroke:none;" d="M551 292L552 293L551 292z"/>
<path style="fill:#b3a1a1; stroke:none;" d="M338 293L338 297L339 297L338 293M453 293L453 296L454 296L453 293M487 293L488 294L487 293M496 293L497 294L496 293M541 293L542 294L541 293z"/>
<path style="fill:#5e5758; stroke:none;" d="M550 293L551 294L550 293z"/>
<path style="fill:#b3a1a1; stroke:none;" d="M332 294L332 297L333 297L332 294M447 294L447 297L448 297L447 294z"/>
<path style="fill:#5e5758; stroke:none;" d="M485 294L483 297L485 294z"/>
<path style="fill:#b3a1a1; stroke:none;" d="M486 294L487 295L486 294M495 294L496 295L495 294M540 294L541 295L540 294z"/>
<path style="fill:#5e5758; stroke:none;" d="M549 294L550 295L549 294z"/>
<path style="fill:#b3a1a1; stroke:none;" d="M485 295L486 296L485 295M494 295L495 296L494 295M539 295L540 296L539 295M547 295L544 299L547 295z"/>
<path style="fill:#5e5758; stroke:none;" d="M548 295L549 296L548 295M453.333 296.667L453.667 297.333L453.333 296.667z"/>
<path style="fill:#b3a1a1; stroke:none;" d="M484 296L485 297L484 296M538 296L539 297L538 296z"/>
<path style="fill:#5e5758; stroke:none;" d="M547 296L548 297L547 296M331.333 297.667L331.667 298.333L331.333 297.667M482 297L483 298L482 297z"/>
<path style="fill:#b3a1a1; stroke:none;" d="M491 297L492 298L491 297M537 297L538 298L537 297z"/>
<path style="fill:#5e5758; stroke:none;" d="M546 297L547 298L546 297z"/>
<path style="fill:#b3a1a1; stroke:none;" d="M337 298L337 302L338 302L337 298z"/>
<path style="fill:#5e5758; stroke:none;" d="M481 298L482 299L481 298z"/>
<path style="fill:#b3a1a1; stroke:none;" d="M490 298L491 299L490 298M536 298L537 299L536 298z"/>
<path style="fill:#5e5758; stroke:none;" d="M545 298L546 299L545 298z"/>
<path style="fill:#b3a1a1; stroke:none;" d="M331 299L331 303L332 303L331 299M446 299L446 302L447 302L446 299z"/>
<path style="fill:#5e5758; stroke:none;" d="M480 299L481 300L480 299z"/>
<path style="fill:#b3a1a1; stroke:none;" d="M489 299L490 300L489 299M535 299L536 300L535 299z"/>
<path style="fill:#5e5758; stroke:none;" d="M544 299L545 300L544 299z"/>
<path style="fill:#b3a1a1; stroke:none;" d="M452 300L453 301L452 300M479 300L480 301L479 300M488 300L489 301L488 300M534 300L535 301L534 300M542 300L539 304L542 300z"/>
<path style="fill:#5e5758; stroke:none;" d="M543 300L544 301L543 300M452.333 301.667L452.667 302.333L452.333 301.667z"/>
<path style="fill:#b3a1a1; stroke:none;" d="M478 301L479 302L478 301M487 301L488 302L487 301M533 301L534 302L533 301z"/>
<path style="fill:#5e5758; stroke:none;" d="M542 301L543 302L542 301M330 302L330 305L331 305L330 302M476 302L475 304L476 302z"/>
<path style="fill:#b3a1a1; stroke:none;" d="M477 302L478 303L477 302M486 302L487 303L486 302M532 302L533 303L532 302z"/>
<path style="fill:#5e5758; stroke:none;" d="M541 302L542 303L541 302z"/>
<path style="fill:#b3a1a1; stroke:none;" d="M336 303L336 307L337 307L336 303M476 303L477 304L476 303M485 303L486 304L485 303M531 303L532 304L531 303z"/>
<path style="fill:#5e5758; stroke:none;" d="M540 303L541 304L540 303z"/>
<path style="fill:#b3a1a1; stroke:none;" d="M445 304L445 307L446 307L445 304z"/>
<path style="fill:#5e5758; stroke:none;" d="M474 304L475 305L474 304z"/>
<path style="fill:#b3a1a1; stroke:none;" d="M538 304L539 305L538 304M330 305L330 308L331 308L330 305M451.333 305.667L451.667 306.333L451.333 305.667z"/>
<path style="fill:#5e5758; stroke:none;" d="M473 305L474 306L473 305z"/>
<path style="fill:#b3a1a1; stroke:none;" d="M537 305L538 306L537 305z"/>
<path style="fill:#5e5758; stroke:none;" d="M472 306L473 307L472 306z"/>
<path style="fill:#b3a1a1; stroke:none;" d="M481 306L482 307L481 306M536 306L537 307L536 306z"/>
<path style="fill:#5e5758; stroke:none;" d="M329 307L329 310L330 310L329 307M451.333 307.667L451.667 308.333L451.333 307.667M471 307L472 308L471 307z"/>
<path style="fill:#b3a1a1; stroke:none;" d="M480 307L481 308L480 307M526 307L527 308L526 307M535 307L536 308L535 307M470 308L471 309L470 308M479 308L480 309L479 308M525 308L526 309L525 308M534 308L535 309L534 308M335 309L335 312L336 312L335 309M469 309L470 310L469 309M478 309L479 310L478 309M524 309L525 310L524 309M533 309L534 310L533 309M329 310L329 313L330 313L329 310M444.333 310.667L444.667 311.333L444.333 310.667M450.333 310.667L450.667 311.333L450.333 310.667M468 310L469 311L468 310M477 310L478 311L477 310M523 310L524 311L523 310z"/>
<path style="fill:#5e5758; stroke:none;" d="M532 310L533 311L532 310z"/>
<path style="fill:#b3a1a1; stroke:none;" d="M467 311L468 312L467 311M476 311L477 312L476 311M522 311L523 312L522 311z"/>
<path style="fill:#5e5758; stroke:none;" d="M531 311L532 312L531 311M328 312L328 316L329 316L328 312M450 312L450 315L451 315L450 312M465 312L466 313L465 312z"/>
<path style="fill:#b3a1a1; stroke:none;" d="M521 312L522 313L521 312z"/>
<path style="fill:#5e5758; stroke:none;" d="M530 312L531 313L530 312M464 313L465 314L464 313z"/>
<path style="fill:#b3a1a1; stroke:none;" d="M520 313L521 314L520 313z"/>
<path style="fill:#5e5758; stroke:none;" d="M529 313L530 314L529 313M463 314L464 315L463 314z"/>
<path style="fill:#b3a1a1; stroke:none;" d="M519 314L520 315L519 314z"/>
<path style="fill:#5e5758; stroke:none;" d="M528 314L529 315L528 314z"/>
<path style="fill:#b3a1a1; stroke:none;" d="M449.333 315.667L449.667 316.333L449.333 315.667z"/>
<path style="fill:#5e5758; stroke:none;" d="M462 315L463 316L462 315z"/>
<path style="fill:#b3a1a1; stroke:none;" d="M471 315L472 316L471 315M518 315L519 316L518 315z"/>
<path style="fill:#5e5758; stroke:none;" d="M527 315L528 316L527 315z"/>
<path style="fill:#b3a1a1; stroke:none;" d="M328 316L341 318L377 318L377 317L328 316z"/>
<path style="fill:#5e5758; stroke:none;" d="M461 316L462 317L461 316z"/>
<path style="fill:#b3a1a1; stroke:none;" d="M470 316L471 317L470 316M517 316L518 317L517 316M525 316L526 317L525 316z"/>
<path style="fill:#5e5758; stroke:none;" d="M526 316L527 317L526 316z"/>
<path style="fill:#b3a1a1; stroke:none;" d="M383.667 317.333L384.333 317.667L383.667 317.333M388 317L389 318L388 317z"/>
<path style="fill:#5e5758; stroke:none;" d="M449 317L450 318L449 317z"/>
<path style="fill:#b3a1a1; stroke:none;" d="M460 317L461 318L460 317M469 317L470 318L469 317M516 317L517 318L516 317z"/>
<path style="fill:#5e5758; stroke:none;" d="M525 317L526 318L525 317M395 318L395 321L396 321L395 318z"/>
<path style="fill:#b3a1a1; stroke:none;" d="M402 318L403 319L402 318M439 318L439 322L440 322L439 318z"/>
<path style="fill:#5e5758; stroke:none;" d="M446 318L447 319L446 318z"/>
<path style="fill:#b3a1a1; stroke:none;" d="M459 318L460 319L459 318M468 318L469 319L468 318M515 318L516 319L515 318z"/>
<path style="fill:#5e5758; stroke:none;" d="M524 318L525 319L524 318M457 319L455 322L457 319z"/>
<path style="fill:#b3a1a1; stroke:none;" d="M458 319L459 320L458 319M467 319L468 320L467 319M514 319L515 320L514 319z"/>
<path style="fill:#5e5758; stroke:none;" d="M523 319L524 320L523 319z"/>
<path style="fill:#b3a1a1; stroke:none;" d="M401 320L401 324L402 324L401 320M445.333 320.667L445.667 321.333L445.333 320.667M457 320L458 321L457 320M466 320L467 321L466 320M513 320L514 321L513 320M521 320L516 326L521 320z"/>
<path style="fill:#5e5758; stroke:none;" d="M522 320L523 321L522 320z"/>
<path style="fill:#b3a1a1; stroke:none;" d="M395.333 321.667L395.667 322.333L395.333 321.667M456 321L457 322L456 321M512 321L513 322L512 321z"/>
<path style="fill:#5e5758; stroke:none;" d="M521 321L522 322L521 321M445 322L446 323L445 322M454 322L455 323L454 322z"/>
<path style="fill:#b3a1a1; stroke:none;" d="M463 322L464 323L463 322M511 322L512 323L511 322z"/>
<path style="fill:#5e5758; stroke:none;" d="M520 322L521 323L520 322M394 323L394 326L395 326L394 323M453 323L454 324L453 323z"/>
<path style="fill:#b3a1a1; stroke:none;" d="M462 323L463 324L462 323M510 323L511 324L510 323z"/>
<path style="fill:#5e5758; stroke:none;" d="M519 323L520 324L519 323z"/>
<path style="fill:#b3a1a1; stroke:none;" d="M438 324L438 327L439 327L438 324z"/>
<path style="fill:#5e5758; stroke:none;" d="M452 324L453 325L452 324z"/>
<path style="fill:#b3a1a1; stroke:none;" d="M461 324L462 325L461 324M509 324L510 325L509 324z"/>
<path style="fill:#5e5758; stroke:none;" d="M518 324L519 325L518 324z"/>
<path style="fill:#b3a1a1; stroke:none;" d="M400 325L400 328L401 328L400 325M444 325L445 326L444 325M451 325L452 326L451 325M460 325L461 326L460 325M508 325L509 326L508 325z"/>
<path style="fill:#5e5758; stroke:none;" d="M517 325L518 326L517 325z"/>
<path style="fill:#b3a1a1; stroke:none;" d="M394.333 326.667L394.667 327.333L394.333 326.667z"/>
<path style="fill:#5e5758; stroke:none;" d="M444.333 326.667L444.667 327.333L444.333 326.667z"/>
<path style="fill:#b3a1a1; stroke:none;" d="M450 326L451 327L450 326M459 326L460 327L459 326M507 326L508 327L507 326M515 326L516 327L515 326z"/>
<path style="fill:#5e5758; stroke:none;" d="M448 327L446 330L448 327z"/>
<path style="fill:#b3a1a1; stroke:none;" d="M449 327L450 328L449 327M458 327L459 328L458 327M514 327L515 328L514 327z"/>
<path style="fill:#5e5758; stroke:none;" d="M393 328L393 331L394 331L393 328z"/>
<path style="fill:#b3a1a1; stroke:none;" d="M448 328L449 329L448 328M457 328L458 329L457 328M505 328L506 329L505 328M513 328L512 330L513 328M399 329L399 333L400 333L399 329M437 329L437 332L438 332L437 329M443 329L443 332L444 332L443 329M447 329L448 330L447 329M456 329L457 330L456 329M504 329L505 330L504 329z"/>
<path style="fill:#5e5758; stroke:none;" d="M513 329L514 330L513 329M445 330L446 331L445 330z"/>
<path style="fill:#b3a1a1; stroke:none;" d="M511 330L512 331L511 330M393.333 331.667L393.667 332.333L393.333 331.667z"/>
<path style="fill:#5e5758; stroke:none;" d="M444 331L445 332L444 331z"/>
<path style="fill:#b3a1a1; stroke:none;" d="M453 331L454 332L453 331M510 331L511 332L510 331z"/>
<path style="fill:#5e5758; stroke:none;" d="M392 332L392 335L393 335L392 332z"/>
<path style="fill:#b3a1a1; stroke:none;" d="M452 332L453 333L452 332M500 332L501 333L500 332M509 332L510 333L509 332M451 333L452 334L451 333M499 333L500 334L499 333M508 333L509 334L508 333M398 334L398 337L399 337L398 334M436 334L436 338L437 338L436 334M450 334L451 335L450 334M498 334L499 335L498 334M507 334L508 335L507 334M392 335L392 338L393 338L392 335M449 335L450 336L449 335M497 335L498 336L497 335z"/>
<path style="fill:#5e5758; stroke:none;" d="M506 335L507 336L506 335z"/>
<path style="fill:#b3a1a1; stroke:none;" d="M448 336L449 337L448 336M496 336L497 337L496 336z"/>
<path style="fill:#5e5758; stroke:none;" d="M505 336L506 337L505 336M391 337L391 340L392 340L391 337z"/>
<path style="fill:#b3a1a1; stroke:none;" d="M447 337L448 338L447 337M495 337L496 338L495 337z"/>
<path style="fill:#5e5758; stroke:none;" d="M504 337L505 338L504 337z"/>
<path style="fill:#b3a1a1; stroke:none;" d="M437 338L437 339L445 339L437 338M494 338L495 339L494 338z"/>
<path style="fill:#5e5758; stroke:none;" d="M503 338L504 339L503 338z"/>
<path style="fill:#b3a1a1; stroke:none;" d="M493 339L494 340L493 339z"/>
<path style="fill:#5e5758; stroke:none;" d="M502 339L503 340L502 339z"/>
<path style="fill:#b3a1a1; stroke:none;" d="M391.333 340.667L391.667 341.333L391.333 340.667M397.333 340.667L397.667 341.333L397.333 340.667M492 340L493 341L492 340z"/>
<path style="fill:#5e5758; stroke:none;" d="M501 340L502 341L501 340z"/>
<path style="fill:#b3a1a1; stroke:none;" d="M491 341L492 342L491 341z"/>
<path style="fill:#5e5758; stroke:none;" d="M500 341L501 342L500 341M390 342L390 345L391 345L390 342z"/>
<path style="fill:#b3a1a1; stroke:none;" d="M490 342L491 343L490 342z"/>
<path style="fill:#5e5758; stroke:none;" d="M499 342L500 343L499 342z"/>
<path style="fill:#b3a1a1; stroke:none;" d="M489 343L490 344L489 343z"/>
<path style="fill:#5e5758; stroke:none;" d="M498 343L499 344L498 343z"/>
<path style="fill:#b3a1a1; stroke:none;" d="M396.333 344.667L396.667 345.333L396.333 344.667M488 344L489 345L488 344z"/>
<path style="fill:#5e5758; stroke:none;" d="M497 344L498 345L497 344M385 345L383 357L384 357L385 345z"/>
<path style="fill:#b3a1a1; stroke:none;" d="M390 345L391 346L390 345M487 345L488 346L487 345M495 345L496 346L495 345z"/>
<path style="fill:#5e5758; stroke:none;" d="M496 345L497 346L496 345z"/>
<path style="fill:#b3a1a1; stroke:none;" d="M486 346L487 347L486 346z"/>
<path style="fill:#5e5758; stroke:none;" d="M495 346L496 347L495 346M389.333 347.667L389.667 348.333L389.333 347.667z"/>
<path style="fill:#b3a1a1; stroke:none;" d="M485 347L486 348L485 347M493 347L489 352L493 347z"/>
<path style="fill:#5e5758; stroke:none;" d="M494 347L495 348L494 347z"/>
<path style="fill:#b3a1a1; stroke:none;" d="M395 348L395 351L396 351L395 348M484 348L485 349L484 348z"/>
<path style="fill:#5e5758; stroke:none;" d="M493 348L494 349L493 348z"/>
<path style="fill:#b3a1a1; stroke:none;" d="M389.333 349.667L389.667 350.333L389.333 349.667M483 349L484 350L483 349z"/>
<path style="fill:#5e5758; stroke:none;" d="M492 349L493 350L492 349z"/>
<path style="fill:#b3a1a1; stroke:none;" d="M482 350L483 351L482 350z"/>
<path style="fill:#5e5758; stroke:none;" d="M491 350L492 351L491 350z"/>
<path style="fill:#b3a1a1; stroke:none;" d="M481 351L482 352L481 351z"/>
<path style="fill:#5e5758; stroke:none;" d="M490 351L491 352L490 351M388 352L389 353L388 352z"/>
<path style="fill:#b3a1a1; stroke:none;" d="M488 352L489 353L488 352M388 353L388 356L389 356L388 353M394 353L394 356L395 356L394 353M487 353L488 354L487 353M486 354L487 355L486 354M485 355L486 356L485 355z"/>
<path style="fill:#5e5758; stroke:none;" d="M387.333 356.667L387.667 357.333L387.333 356.667z"/>
<path style="fill:#b3a1a1; stroke:none;" d="M484 356L485 357L484 356M393 357L393 360L394 360L393 357M477 357L478 358L477 357z"/>
<path style="fill:#5e5758; stroke:none;" d="M484 357L486 359L484 357z"/>
<path style="fill:#b3a1a1; stroke:none;" d="M387 358L387 361L388 361L387 358M484 358L485 359L484 358M478 359L479 360L478 359M485 359L486 360L485 359z"/>
<path style="fill:#5e5758; stroke:none;" d="M386 360L386 363L387 363L386 360M486 360L487 361L486 360z"/>
<path style="fill:#b3a1a1; stroke:none;" d="M479 361L480 362L479 361M486 361L487 362L486 361M392 362L392 365L393 365L392 362M480 362L481 363L480 362z"/>
<path style="fill:#5e5758; stroke:none;" d="M487 362L488 363L487 362z"/>
<path style="fill:#b3a1a1; stroke:none;" d="M386.333 363.667L386.667 364.333L386.333 363.667M487 363L488 364L487 363M481 364L482 365L481 364z"/>
<path style="fill:#5e5758; stroke:none;" d="M488 364L489 365L488 364M385 365L385 368L386 368L385 365M489 365L490 366L489 365z"/>
<path style="fill:#b3a1a1; stroke:none;" d="M482 366L483 367L482 366M489 366L490 367L489 366M391 367L391 370L392 370L391 367z"/>
<path style="fill:#5e5758; stroke:none;" d="M490 367L491 368L490 367z"/>
<path style="fill:#b3a1a1; stroke:none;" d="M385.333 368.667L385.667 369.333L385.333 368.667M483 368L484 369L483 368M490 368L491 369L490 368M484.333 369.667L484.667 370.333L484.333 369.667z"/>
<path style="fill:#5e5758; stroke:none;" d="M491 369L492 370L491 369M384.333 370.667L384.667 371.333L384.333 370.667z"/>
<path style="fill:#b3a1a1; stroke:none;" d="M491 370L492 371L491 370M390 371L390 374L391 374L390 371M485 371L486 372L485 371z"/>
<path style="fill:#5e5758; stroke:none;" d="M492 371L493 372L492 371z"/>
<path style="fill:#b3a1a1; stroke:none;" d="M384 372L384 375L385 375L384 372M492 372L493 373L492 372M433 373L433 374L441 374L433 373M486 373L487 374L486 373M493 373L494 374L493 373M428.333 374.667L428.667 375.333L428.333 374.667M441 374L442 375L441 374z"/>
<path style="fill:#5e5758; stroke:none;" d="M494 374L495 375L494 374M383.333 375.667L383.667 376.333L383.333 375.667z"/>
<path style="fill:#b3a1a1; stroke:none;" d="M487 375L488 376L487 375M494 375L495 376L494 375M389 376L389 379L390 379L389 376M442 376L443 377L442 376M488 376L489 377L488 376z"/>
<path style="fill:#5e5758; stroke:none;" d="M495 376L496 377L495 376z"/>
<path style="fill:#b3a1a1; stroke:none;" d="M383.333 377.667L383.667 378.333L383.333 377.667M427 377L427 380L428 380L427 377M443.333 377.667L443.667 378.333L443.333 377.667M495 377L496 378L495 377M489 378L490 379L489 378z"/>
<path style="fill:#5e5758; stroke:none;" d="M496 378L497 379L496 378M382.333 379.667L382.667 380.333L382.333 379.667z"/>
<path style="fill:#b3a1a1; stroke:none;" d="M434 379L434 380L438 380L434 379M444 379L445 380L444 379M496 379L497 380L496 379z"/>
<path style="fill:#5e5758; stroke:none;" d="M433.333 380.667L433.667 381.333L433.333 380.667M437 380L438 381L437 380z"/>
<path style="fill:#b3a1a1; stroke:none;" d="M490 380L491 381L490 380z"/>
<path style="fill:#5e5758; stroke:none;" d="M497 380L499 382L497 380z"/>
<path style="fill:#b3a1a1; stroke:none;" d="M382.333 381.667L382.667 382.333L382.333 381.667M388.333 381.667L388.667 382.333L388.333 381.667z"/>
<path style="fill:#5e5758; stroke:none;" d="M438 381L439 382L438 381z"/>
<path style="fill:#b3a1a1; stroke:none;" d="M445 381L446 382L445 381M497 381L498 382L497 381M426.333 382.667L426.667 383.333L426.333 382.667M432.333 382.667L432.667 383.333L432.333 382.667M439 382L440 383L439 382M446.333 382.667L446.667 383.333L446.333 382.667M491 382L492 383L491 382M498 382L499 383L498 382z"/>
<path style="fill:#5e5758; stroke:none;" d="M439 383L440 384L439 383z"/>
<path style="fill:#b3a1a1; stroke:none;" d="M492.333 383.667L492.667 384.333L492.333 383.667z"/>
<path style="fill:#5e5758; stroke:none;" d="M499 383L500 384L499 383M381.333 384.667L381.667 385.333L381.333 384.667M432.333 384.667L432.667 385.333L432.333 384.667z"/>
<path style="fill:#b3a1a1; stroke:none;" d="M440 384L441 385L440 384M447 384L448 385L447 384M499 384L500 385L499 384M387 385L387 388L388 388L387 385z"/>
<path style="fill:#5e5758; stroke:none;" d="M440 385L441 386L440 385z"/>
<path style="fill:#b3a1a1; stroke:none;" d="M493 385L494 386L493 385z"/>
<path style="fill:#5e5758; stroke:none;" d="M500 385L501 386L500 385z"/>
<path style="fill:#b3a1a1; stroke:none;" d="M381.333 386.667L381.667 387.333L381.333 386.667M425.333 386.667L425.667 387.333L425.333 386.667M431.333 386.667L431.667 387.333L431.333 386.667z"/>
<path style="fill:#5e5758; stroke:none;" d="M441 386L443 389L441 386z"/>
<path style="fill:#b3a1a1; stroke:none;" d="M448 386L449 387L448 386M500 386L501 387L500 386z"/>
<path style="fill:#5e5758; stroke:none;" d="M376 387L376 390L377 390L376 387z"/>
<path style="fill:#b3a1a1; stroke:none;" d="M442 387L443 388L442 387M494 387L495 388L494 387z"/>
<path style="fill:#5e5758; stroke:none;" d="M501 387L502 388L501 387M380.333 388.667L380.667 389.333L380.333 388.667M431.333 388.667L431.667 389.333L431.333 388.667z"/>
<path style="fill:#b3a1a1; stroke:none;" d="M449 388L450 389L449 388z"/>
<path style="fill:#5e5758; stroke:none;" d="M502 388L503 389L502 388z"/>
<path style="fill:#b3a1a1; stroke:none;" d="M386 389L386 393L387 393L386 389M443 389L444 390L443 389M450.333 389.667L450.667 390.333L450.333 389.667M495 389L496 390L495 389M502 389L503 390L502 389M380 390L380 393L381 393L380 390M424.333 390.667L424.667 391.333L424.333 390.667M430.333 390.667L430.667 391.333L430.333 390.667z"/>
<path style="fill:#5e5758; stroke:none;" d="M443 390L444 391L443 390z"/>
<path style="fill:#b3a1a1; stroke:none;" d="M496.333 390.667L496.667 391.333L496.333 390.667z"/>
<path style="fill:#5e5758; stroke:none;" d="M503 390L504 391L503 390z"/>
<path style="fill:#b3a1a1; stroke:none;" d="M444 391L445 392L444 391M451 391L452 392L451 391M503 391L504 392L503 391z"/>
<path style="fill:#5e5758; stroke:none;" d="M375 392L376 393L375 392M379 392L379 395L380 395L379 392M430.333 392.667L430.667 393.333L430.333 392.667M444 392L445 393L444 392z"/>
<path style="fill:#b3a1a1; stroke:none;" d="M497 392L498 393L497 392z"/>
<path style="fill:#5e5758; stroke:none;" d="M504 392L505 393L504 392M445 393L446 394L445 393z"/>
<path style="fill:#b3a1a1; stroke:none;" d="M452 393L453 394L452 393M504 393L505 394L504 393M385 394L385 397L386 397L385 394M423.333 394.667L423.667 395.333L423.333 394.667M429.333 394.667L429.667 395.333L429.333 394.667M446 394L447 395L446 394M453 394L454 395L453 394M498 394L499 395L498 394z"/>
<path style="fill:#5e5758; stroke:none;" d="M505 394L506 397L507 397L505 394z"/>
<path style="fill:#b3a1a1; stroke:none;" d="M379 395L379 398L380 398L379 395z"/>
<path style="fill:#5e5758; stroke:none;" d="M446 395L447 396L446 395z"/>
<path style="fill:#b3a1a1; stroke:none;" d="M505 395L506 396L505 395z"/>
<path style="fill:#5e5758; stroke:none;" d="M429.333 396.667L429.667 397.333L429.333 396.667z"/>
<path style="fill:#b3a1a1; stroke:none;" d="M447 396L448 397L447 396M454 396L455 397L454 396M499 396L500 397L499 396z"/>
<path style="fill:#5e5758; stroke:none;" d="M378 397L378 400L379 400L378 397M447 397L448 398L447 397M507 397L508 398L507 397z"/>
<path style="fill:#b3a1a1; stroke:none;" d="M422 398L422 401L423 401L422 398M428.333 398.667L428.667 399.333L428.333 398.667z"/>
<path style="fill:#5e5758; stroke:none;" d="M448 398L449 399L448 398z"/>
<path style="fill:#b3a1a1; stroke:none;" d="M455 398L456 399L455 398M500 398L501 399L500 398M507 398L508 399L507 398M384 399L384 402L385 402L384 399M449 399L450 400L449 399M456.333 399.667L456.667 400.333L456.333 399.667M501 399L502 400L501 399z"/>
<path style="fill:#5e5758; stroke:none;" d="M508 399L509 400L508 399M373 400L373 403L374 403L373 400z"/>
<path style="fill:#b3a1a1; stroke:none;" d="M378.333 400.667L378.667 401.333L378.333 400.667z"/>
<path style="fill:#5e5758; stroke:none;" d="M428 400L428 403L429 403L428 400M449 400L450 401L449 400z"/>
<path style="fill:#b3a1a1; stroke:none;" d="M508 400L509 401L508 400M450 401L451 402L450 401M457 401L458 402L457 401M502 401L503 402L502 401z"/>
<path style="fill:#5e5758; stroke:none;" d="M509 401L511 405L512 405L509 401M377 402L377 405L378 405L377 402z"/>
<path style="fill:#b3a1a1; stroke:none;" d="M421 402L421 405L422 405L421 402M427 402L427 405L428 405L427 402z"/>
<path style="fill:#5e5758; stroke:none;" d="M434 402L433 405L434 405L434 402M450 402L451 403L450 402z"/>
<path style="fill:#b3a1a1; stroke:none;" d="M509 402L510 403L509 402M451 403L452 404L451 403M458 403L459 404L458 403M503 403L504 404L503 403M383 404L383 407L384 407L383 404M504.333 404.667L504.667 405.333L504.333 404.667M510 404L511 405L510 404M377.333 405.667L377.667 406.333L377.333 405.667z"/>
<path style="fill:#5e5758; stroke:none;" d="M427.333 405.667L427.667 406.333L427.333 405.667z"/>
<path style="fill:#b3a1a1; stroke:none;" d="M433 405L432 410L433 405z"/>
<path style="fill:#5e5758; stroke:none;" d="M452 405L453 406L452 405z"/>
<path style="fill:#b3a1a1; stroke:none;" d="M459 405L460 406L459 405M511 405L512 406L511 405M420 406L420 409L421 409L420 406z"/>
<path style="fill:#5e5758; stroke:none;" d="M432.333 406.667L432.667 407.333L432.333 406.667z"/>
<path style="fill:#b3a1a1; stroke:none;" d="M453 406L454 407L453 406M460 406L461 407L460 406M505.333 406.667L505.667 407.333L505.333 406.667z"/>
<path style="fill:#5e5758; stroke:none;" d="M512 406L513 407L512 406M517.333 406.667L517.667 407.333L517.333 406.667M376.333 407.667L376.667 408.333L376.333 407.667z"/>
<path style="fill:#b3a1a1; stroke:none;" d="M426.333 407.667L426.667 408.333L426.333 407.667z"/>
<path style="fill:#5e5758; stroke:none;" d="M453 407L454 408L453 407z"/>
<path style="fill:#b3a1a1; stroke:none;" d="M512 407L513 408L512 407M382 408L382 411L383 411L382 408M454 408L456 410L454 408M461 408L462 409L461 408M506 408L507 409L506 408z"/>
<path style="fill:#5e5758; stroke:none;" d="M513 408L514 409L513 408M518 408L519 409L518 408z"/>
<path style="fill:#b3a1a1; stroke:none;" d="M376.333 409.667L376.667 410.333L376.333 409.667z"/>
<path style="fill:#5e5758; stroke:none;" d="M426.333 409.667L426.667 410.333L426.333 409.667M454 409L455 410L454 409z"/>
<path style="fill:#b3a1a1; stroke:none;" d="M513 409L514 410L513 409z"/>
<path style="fill:#5e5758; stroke:none;" d="M519 409L532 436L515 438L515 439L523 439C521.426 442.739 520.631 445.507 523 449L524 440L533.864 437.397L531.305 429L519 409M431.333 410.667L431.667 411.333L431.333 410.667z"/>
<path style="fill:#ede9e9; stroke:none;" d="M432 410C431.437 414.178 428.822 419.754 429.893 423.91C430.923 427.908 436.055 430.124 438.621 433.09C446.09 441.725 453.89 449.873 461.53 458.259C469.049 466.513 474.098 477.362 481.375 485.981C484.548 489.74 489.301 490.82 492.505 494.278C500.053 502.421 506.336 511.766 514.428 519.675C522.936 527.992 533.182 534.671 543 541.279C545.521 542.975 551.255 546.998 553.957 543.396C557.908 538.128 542.419 521.832 539.614 517C526.456 494.328 520.217 465.196 520 439L516 439C516.004 477.76 529.113 511.905 553 542C544.303 540.774 535.742 532.279 529 526.985C519.264 519.342 504.647 508.238 499.028 497C496.983 492.91 498.237 487.43 497.715 483C496.027 468.699 495.119 453.403 495 439L489 439L490 488C481.866 482.27 470.96 470.64 467.703 461C465.568 454.679 468.262 447.566 466.698 441.17C465.815 437.562 462.75 434.265 461 431L460 431L460 452C450.777 447.33 436.583 429.837 433.028 420C431.83 416.687 433.346 413.301 432 410z"/>
<path style="fill:#5e5758; stroke:none;" d="M433 410L433 415L434 415L433 410M455 410L456 411L455 410z"/>
<path style="fill:#b3a1a1; stroke:none;" d="M462 410L463 411L462 410M507 410L508 411L507 410z"/>
<path style="fill:#5e5758; stroke:none;" d="M514 410L515 411L514 410M375 411L375 414L376 414L375 411z"/>
<path style="fill:#b3a1a1; stroke:none;" d="M419.333 411.667L419.667 412.333L419.333 411.667M425.333 411.667L425.667 412.333L425.333 411.667M456 411L457 412L456 411M463.333 411.667L463.667 412.333L463.333 411.667z"/>
<path style="fill:#5e5758; stroke:none;" d="M515 411L516 412L515 411z"/>
<path style="fill:#b3a1a1; stroke:none;" d="M431.333 412.667L431.667 413.333L431.333 412.667z"/>
<path style="fill:#5e5758; stroke:none;" d="M456 412L457 413L456 412z"/>
<path style="fill:#b3a1a1; stroke:none;" d="M508 412L509 413L508 412M515 412L516 413L515 412M381 413L381 416L382 416L381 413z"/>
<path style="fill:#5e5758; stroke:none;" d="M425.333 413.667L425.667 414.333L425.333 413.667z"/>
<path style="fill:#b3a1a1; stroke:none;" d="M457 413L458 414L457 413M464 413L465 414L464 413M509.333 413.667L509.667 414.333L509.333 413.667z"/>
<path style="fill:#5e5758; stroke:none;" d="M516 413L517 414L516 413z"/>
<path style="fill:#b3a1a1; stroke:none;" d="M375.333 414.667L375.667 415.333L375.333 414.667z"/>
<path style="fill:#5e5758; stroke:none;" d="M430.333 414.667L430.667 415.333L430.333 414.667M457 414L458 415L457 414z"/>
<path style="fill:#b3a1a1; stroke:none;" d="M516 414L517 415L516 414M418.333 415.667L418.667 416.333L418.333 415.667M424 415L425 416L424 415z"/>
<path style="fill:#5e5758; stroke:none;" d="M458 415L459 416L458 415z"/>
<path style="fill:#b3a1a1; stroke:none;" d="M465 415L466 416L465 415M510 415L511 416L510 415z"/>
<path style="fill:#5e5758; stroke:none;" d="M517 415L519 419L520 419L517 415M374.333 416.667L374.667 417.333L374.333 416.667M424 416L424 419L425 419L424 416z"/>
<path style="fill:#b3a1a1; stroke:none;" d="M430.333 416.667L430.667 417.333L430.333 416.667M432 416L432 421L433 421L432 416M517 416L518 417L517 416M380 417L380 420L381 420L380 417z"/>
<path style="fill:#5e5758; stroke:none;" d="M459 417L460 418L459 417z"/>
<path style="fill:#b3a1a1; stroke:none;" d="M466 417L467 418L466 417M511 417L512 418L511 417M374.333 418.667L374.667 419.333L374.333 418.667z"/>
<path style="fill:#5e5758; stroke:none;" d="M429.333 418.667L429.667 419.333L429.333 418.667z"/>
<path style="fill:#b3a1a1; stroke:none;" d="M460 418L461 419L460 418M467 418L468 419L467 418M518 418L519 419L518 418M417.333 419.667L417.667 420.333L417.333 419.667M423.333 419.667L423.667 420.333L423.333 419.667z"/>
<path style="fill:#5e5758; stroke:none;" d="M460 419L461 420L460 419z"/>
<path style="fill:#b3a1a1; stroke:none;" d="M512 419L513 420L512 419M519 419L520 420L519 419M429 420L429 423L430 423L429 420z"/>
<path style="fill:#5e5758; stroke:none;" d="M461 420L462 421L461 420z"/>
<path style="fill:#b3a1a1; stroke:none;" d="M468 420L469 421L468 420M513.333 420.667L513.667 421.333L513.333 420.667z"/>
<path style="fill:#5e5758; stroke:none;" d="M520 420L521 421L520 420M373.333 421.667L373.667 422.333L373.333 421.667M423.333 421.667L423.667 422.333L423.333 421.667z"/>
<path style="fill:#b3a1a1; stroke:none;" d="M433 421L434 422L433 421M462 421L463 422L462 421M469.333 421.667L469.667 422.333L469.333 421.667M520 421L521 422L520 421M379 422L379 425L380 425L379 422M422 422L422 425L423 425L422 422z"/>
<path style="fill:#5e5758; stroke:none;" d="M428 422L426 431C431.749 430.508 433.203 434.933 436.364 439C443.471 448.141 453.068 455.138 460 464L461 464L446.025 447.999L428 422M434 422L435 423L434 422M462 422L463 423L462 422z"/>
<path style="fill:#b3a1a1; stroke:none;" d="M514 422L515 423L514 422z"/>
<path style="fill:#5e5758; stroke:none;" d="M521 422L522 423L521 422z"/>
<path style="fill:#b3a1a1; stroke:none;" d="M373 423L373 426L374 426L373 423M416.333 423.667L416.667 424.333L416.333 423.667z"/>
<path style="fill:#5e5758; stroke:none;" d="M435 423L437 425L435 423z"/>
<path style="fill:#b3a1a1; stroke:none;" d="M463 423L464 424L463 423M470.333 423.667L470.667 424.333L470.333 423.667M521 423L522 424L521 423M435 424L436 425L435 424z"/>
<path style="fill:#5e5758; stroke:none;" d="M463 424L464 425L463 424z"/>
<path style="fill:#b3a1a1; stroke:none;" d="M515 424L516 425L515 424z"/>
<path style="fill:#5e5758; stroke:none;" d="M522 424L523 425L522 424M372 425L372 428L373 428L372 425M422.333 425.667L422.667 426.333L422.333 425.667z"/>
<path style="fill:#b3a1a1; stroke:none;" d="M429 425L430 426L429 425M436 425L437 426L436 425M464 425L465 426L464 425M471 425L472 426L471 425z"/>
<path style="fill:#5e5758; stroke:none;" d="M523 425L524 426L523 425z"/>
<path style="fill:#b3a1a1; stroke:none;" d="M379 426L380 427L379 426M415 426L416 427L415 426M430 426L431 427L430 426M437 426L438 427L437 426z"/>
<path style="fill:#5e5758; stroke:none;" d="M464 426L465 427L464 426z"/>
<path style="fill:#b3a1a1; stroke:none;" d="M472 426L473 427L472 426M516 426L517 427L516 426M523 426L524 427L523 426M421.333 427.667L421.667 428.333L421.333 427.667M431 427L458.101 459.458L474.289 482.871L494 503L505.039 514.931L536 541C541.471 541.86 549.951 550.731 555.4 545.397C562.698 538.253 550.438 526.617 546.671 521C532.561 499.966 524.017 473.508 524 448L522 447L521 447C521.494 470.944 527.203 496.172 539.035 517C541.791 521.851 556.576 537.583 553.863 542.677C551.722 546.699 546.362 542.867 544 541.279C535.295 535.424 527.329 529.115 519.015 522.731C508.779 514.871 501.39 503.949 493.2 494.278C490.236 490.778 485.38 489.524 482.209 485.981C472.084 474.669 464.703 461.872 454.174 451.021C446.781 443.402 440.922 431.204 431 427z"/>
<path style="fill:#5e5758; stroke:none;" d="M438 427L439 428L438 427M465 427L466 428L465 427M524 427L525 428L524 427z"/>
<path style="fill:#b3a1a1; stroke:none;" d="M372.333 428.667L372.667 429.333L372.333 428.667z"/>
<path style="fill:#5e5758; stroke:none;" d="M439 428L441 430L439 428z"/>
<path style="fill:#b3a1a1; stroke:none;" d="M466 428L467 429L466 428M524 428L525 429L524 428z"/>
<path style="fill:#5e5758; stroke:none;" d="M421.333 429.667L421.667 430.333L421.333 429.667z"/>
<path style="fill:#b3a1a1; stroke:none;" d="M439 429L440 430L439 429z"/>
<path style="fill:#5e5758; stroke:none;" d="M459 429L459 433L460 433L461 429L459 429M466 429L467 430L466 429M525 429L526 430L525 429M371 430L371 433L372 433L371 430z"/>
<path style="fill:#b3a1a1; stroke:none;" d="M440 430L444 435L440 430M460 430L461 431L460 430M467 430L468 431L467 430M525 430L526 431L525 430M420 431C405.85 435.183 386.763 432 372 432L372 433C387.056 433 406.571 436.265 421 432L420 431z"/>
<path style="fill:#5e5758; stroke:none;" d="M441 431L442 432L441 431M461 431L463 433L461 431M467 431L468 432L467 431M526 431L527 432L526 431M420 432L421 433L420 432M442 432L443 433L442 432z"/>
<path style="fill:#b3a1a1; stroke:none;" d="M461 432L462 433L461 432z"/>
<path style="fill:#5e5758; stroke:none;" d="M468 432L468 433C484.932 438.005 508.317 434 526 434L526 433C507.689 433 485.823 436.243 468 432z"/>
<path style="fill:#b3a1a1; stroke:none;" d="M469 432L469 433L527 433L508 432L469 432z"/>
<path style="fill:#5e5758; stroke:none;" d="M443 433L444 434L443 433z"/>
<path style="fill:#b3a1a1; stroke:none;" d="M459 433L459 452L460 452L459 433M462 433L463 434L462 433z"/>
<path style="fill:#5e5758; stroke:none;" d="M463 434L464 435L463 434M444 435L445 436L444 435z"/>
<path style="fill:#b3a1a1; stroke:none;" d="M463 435L464 436L463 435z"/>
<path style="fill:#5e5758; stroke:none;" d="M445 436L448 439L445 436M464 436L465 437L464 436z"/>
<path style="fill:#b3a1a1; stroke:none;" d="M445 437L446 438L445 437M464 437L465 438L464 437M446 438L447 439L446 438M465 438L466 439L465 438z"/>
<path style="fill:#5e5758; stroke:none;" d="M466 438L467 439L466 438M489 438L489 439L495 439L489 438z"/>
<path style="fill:#b3a1a1; stroke:none;" d="M447 439L454 447L447 439z"/>
<path style="fill:#5e5758; stroke:none;" d="M467 439L467 458L468 458L467 439M488 439L488 447L489 447L488 439M495 439L496 440L495 439z"/>
<path style="fill:#b3a1a1; stroke:none;" d="M515 439L515 443L516 443L515 439M520 439L520 447L521 447L523 439L520 439z"/>
<path style="fill:#5e5758; stroke:none;" d="M448 440L449 441L448 440z"/>
<path style="fill:#b3a1a1; stroke:none;" d="M495 440L495 447L496 447L495 440z"/>
<path style="fill:#5e5758; stroke:none;" d="M449 441L450 442L449 441M450 442L451 443L450 442M451 443L452 444L451 443M515 443L515 448L516 448L515 443M452 444L453 445L452 444M453 445L454 446L453 445z"/>
<path style="fill:#b3a1a1; stroke:none;" d="M454 447L455 448L454 447z"/>
<path style="fill:#5e5758; stroke:none;" d="M496 447L496 457L497 457L496 447z"/>
<path style="fill:#b3a1a1; stroke:none;" d="M455 448L456 449L455 448z"/>
<path style="fill:#5e5758; stroke:none;" d="M456 449L459 452L456 449z"/>
<path style="fill:#b3a1a1; stroke:none;" d="M516 449L516 452L517 452L516 449M456 450L457 451L456 450M457 451L458 452L457 451z"/>
<path style="fill:#5e5758; stroke:none;" d="M516 452L516 457L517 457L516 452M524 452L524 458L525 458L524 452M452 453L453 454L452 453z"/>
<path style="fill:#b3a1a1; stroke:none;" d="M489 454L489 467L490 467L489 454M517 456L517 460L518 460L517 456M496 457L496 463L497 463L496 457M467 458L473 469L467 458z"/>
<path style="fill:#5e5758; stroke:none;" d="M525 458L525 463L526 463L525 458M517 460L517 464L518 464L517 460M468 461L469 462L468 461M469 463L470 464L469 463M497 463L497 473L498 473L497 463z"/>
<path style="fill:#b3a1a1; stroke:none;" d="M518 463L518 467L519 467L518 463z"/>
<path style="fill:#5e5758; stroke:none;" d="M526 463L526 469L527 469L526 463M470 464L471 465L470 464M461 465L463 468L461 465M471 466L472 467L471 466M472 467L473 468L472 467M489 467L487 485L487 486L490 487L489 467M518 467L518 472L519 472L518 467M463 468L464 469L463 468M464.333 469.667L464.667 470.333L464.333 469.667z"/>
<path style="fill:#b3a1a1; stroke:none;" d="M473 469L474 470L473 469z"/>
<path style="fill:#5e5758; stroke:none;" d="M474 470L476 472L474 470z"/>
<path style="fill:#b3a1a1; stroke:none;" d="M519 470L519 474L520 474L519 470z"/>
<path style="fill:#5e5758; stroke:none;" d="M465 471L467 474L465 471z"/>
<path style="fill:#b3a1a1; stroke:none;" d="M474 471L475 472L474 471z"/>
<path style="fill:#5e5758; stroke:none;" d="M527 471L527 474L528 474L527 471z"/>
<path style="fill:#b3a1a1; stroke:none;" d="M475 472L479 477L475 472z"/>
<path style="fill:#5e5758; stroke:none;" d="M476 473L477 474L476 473z"/>
<path style="fill:#b3a1a1; stroke:none;" d="M497 473L497 482L498 482L497 473z"/>
<path style="fill:#5e5758; stroke:none;" d="M467 474L468 475L467 474M477 474L478 475L477 474M519 474L519 477L520 477L519 474M528 474L528 479L529 479L528 474M468.333 475.667L468.667 476.333L468.333 475.667M478 475L479 476L478 475z"/>
<path style="fill:#b3a1a1; stroke:none;" d="M520 476L520 479L521 479L520 476z"/>
<path style="fill:#5e5758; stroke:none;" d="M469 477L470 478L469 477M479 477L480 478L479 477M470 478L473 482L470 478M480 478L486 484L480 478z"/>
<path style="fill:#b3a1a1; stroke:none;" d="M480 479L481 480L480 479z"/>
<path style="fill:#5e5758; stroke:none;" d="M498 479L498 491L499 491L498 479M520 479L520 482L521 482L520 479M529 479L529 484L530 484L529 479z"/>
<path style="fill:#b3a1a1; stroke:none;" d="M481 480L482 481L481 480M482 481L483 482L482 481z"/>
<path style="fill:#5e5758; stroke:none;" d="M473 482L474 483L473 482z"/>
<path style="fill:#b3a1a1; stroke:none;" d="M483 482L484 483L483 482M521.333 482.667L521.667 483.333L521.333 482.667z"/>
<path style="fill:#5e5758; stroke:none;" d="M474 483L475 484L474 483z"/>
<path style="fill:#b3a1a1; stroke:none;" d="M484 483L485 484L484 483z"/>
<path style="fill:#5e5758; stroke:none;" d="M475 484L476 485L475 484z"/>
<path style="fill:#b3a1a1; stroke:none;" d="M485 484L486 485L485 484M490 484L490 487L491 487L490 484z"/>
<path style="fill:#5e5758; stroke:none;" d="M521.333 484.667L521.667 485.333L521.333 484.667M476 485L486 494L476 485z"/>
<path style="fill:#b3a1a1; stroke:none;" d="M486 485L487 486L486 485z"/>
<path style="fill:#5e5758; stroke:none;" d="M530 485L530 488L531 488L530 485z"/>
<path style="fill:#b3a1a1; stroke:none;" d="M487 486L488 487L487 486M522.333 486.667L522.667 487.333L522.333 486.667M488.667 487.333L489.333 487.667L488.667 487.333z"/>
<path style="fill:#5e5758; stroke:none;" d="M522 488L523 489L522 488M531 489L531 492L532 492L531 489z"/>
<path style="fill:#b3a1a1; stroke:none;" d="M523 490L524 491L523 490M498 491C498.066 496.584 499.419 499.665 504 503L498 491z"/>
<path style="fill:#5e5758; stroke:none;" d="M523.333 491.667L523.667 492.333L523.333 491.667M532 492L532 495L533 495L532 492z"/>
<path style="fill:#b3a1a1; stroke:none;" d="M524.333 493.667L524.667 494.333L524.333 493.667z"/>
<path style="fill:#5e5758; stroke:none;" d="M486 494L486 495L489 495L486 494M489 495L491 497L491 495L489 495M524.333 495.667L524.667 496.333L524.333 495.667M533 495L533 498L534 498L533 495z"/>
<path style="fill:#b3a1a1; stroke:none;" d="M525 496L526 500L527 500L525 496z"/>
<path style="fill:#5e5758; stroke:none;" d="M491 497L491 500L492 500L491 497M499 497L500 498L499 497M500 498L501 499L500 498M525 498L526 499L525 498M534.333 498.667L534.667 499.333L534.333 498.667M501 499L502 500L501 499M492.333 500.667L492.667 501.333L492.333 500.667M502 500L503 501L502 500M526.333 500.667L526.667 501.333L526.333 500.667M535.333 500.667L535.667 501.333L535.333 500.667M503 501L504 502L503 501z"/>
<path style="fill:#b3a1a1; stroke:none;" d="M527 501L528 505L529 505L527 501z"/>
<path style="fill:#5e5758; stroke:none;" d="M493 502L494 503L493 502M495 502C494.933 506.402 497.521 508.52 501 511L495 502M536.333 502.667L536.667 503.333L536.333 502.667z"/>
<path style="fill:#b3a1a1; stroke:none;" d="M504 503L505 504L504 503z"/>
<path style="fill:#5e5758; stroke:none;" d="M527 503L528 504L527 503M505 504L506 505L505 504M537.333 504.667L537.667 505.333L537.333 504.667M506 505L507 506L506 505M528 505L529 506L528 505M507 506L508 507L507 506z"/>
<path style="fill:#b3a1a1; stroke:none;" d="M529 506L530 507L529 506z"/>
<path style="fill:#5e5758; stroke:none;" d="M538.333 506.667L538.667 507.333L538.333 506.667M508 507L509 508L508 507M529 507L530 508L529 507M509 508L517 516L509 508z"/>
<path style="fill:#b3a1a1; stroke:none;" d="M530 508L533 514L534 514L530 508z"/>
<path style="fill:#5e5758; stroke:none;" d="M539.333 508.667L539.667 509.333L539.333 508.667z"/>
<path style="fill:#b3a1a1; stroke:none;" d="M509 509L510 510L509 509z"/>
<path style="fill:#5e5758; stroke:none;" d="M530 509L531 510L530 509z"/>
<path style="fill:#b3a1a1; stroke:none;" d="M510 510L511 511L510 510z"/>
<path style="fill:#5e5758; stroke:none;" d="M540.333 510.667L540.667 511.333L540.333 510.667M501 511L502 512L501 511z"/>
<path style="fill:#b3a1a1; stroke:none;" d="M511 511L512 512L511 511z"/>
<path style="fill:#5e5758; stroke:none;" d="M531 511L532 512L531 511M502 512L503 513L502 512z"/>
<path style="fill:#b3a1a1; stroke:none;" d="M512 512L513 513L512 512z"/>
<path style="fill:#5e5758; stroke:none;" d="M541 512L542 513L541 512M503 513L504 514L503 513z"/>
<path style="fill:#b3a1a1; stroke:none;" d="M513 513L514 514L513 513z"/>
<path style="fill:#5e5758; stroke:none;" d="M532 513L533 514L532 513M504 514L505 515L504 514z"/>
<path style="fill:#b3a1a1; stroke:none;" d="M514 514L515 515L514 514z"/>
<path style="fill:#5e5758; stroke:none;" d="M533 514L535 517L533 514M542 514L543 515L542 514M505 515L506 516L505 515z"/>
<path style="fill:#b3a1a1; stroke:none;" d="M515 515L516 516L515 515M534 515L535 516L534 515z"/>
<path style="fill:#5e5758; stroke:none;" d="M543.333 515.667L543.667 516.333L543.333 515.667M506 516L507 517L506 516M517 516L518 517L517 516M507 517L508 518L507 517z"/>
<path style="fill:#b3a1a1; stroke:none;" d="M518 517L519 518L518 517M535 517L536 518L535 517z"/>
<path style="fill:#5e5758; stroke:none;" d="M544 517L545 518L544 517M508 518L509 519L508 518M510 518L509 519L519 528L510 518M519 518L520 519L519 518M535 518L536 519L535 518M545.333 518.667L545.667 519.333L545.333 518.667z"/>
<path style="fill:#b3a1a1; stroke:none;" d="M520 519L521 520L520 519M536 519L537 520L536 519M521 520L522 521L521 520M537 520L538 521L537 520z"/>
<path style="fill:#ede9e9; stroke:none;" d="M544 520L545 521L544 520z"/>
<path style="fill:#5e5758; stroke:none;" d="M546 520L547 521L546 520z"/>
<path style="fill:#b3a1a1; stroke:none;" d="M522 521L526 525L522 521z"/>
<path style="fill:#5e5758; stroke:none;" d="M523 521L524 522L523 521M537 521L538 522L537 521M547.333 521.667L547.667 522.333L547.333 521.667M524 522L525 523L524 522z"/>
<path style="fill:#b3a1a1; stroke:none;" d="M538 522L540 524L538 522z"/>
<path style="fill:#5e5758; stroke:none;" d="M525 523L526 524L525 523M538 523L539 524L538 523M548 523L549 524L548 523M526 524L527 525L526 524M539 524L540 525L539 524M549.333 524.667L549.667 525.333L549.333 524.667z"/>
<path style="fill:#b3a1a1; stroke:none;" d="M527 525L528 526L527 525M540 525L542 527L540 525M528 526L531 529L528 526z"/>
<path style="fill:#5e5758; stroke:none;" d="M529 526L530 527L529 526M540 526L541 527L540 526M550 526L551 527L550 526M530 527L531 528L530 527M541 527L542 528L541 527M551 527L552 528L551 527M519 528L520 529L519 528M531 528L532 529L531 528z"/>
<path style="fill:#b3a1a1; stroke:none;" d="M542 528L544 530L542 528z"/>
<path style="fill:#5e5758; stroke:none;" d="M552.333 528.667L552.667 529.333L552.333 528.667M520 529L521 530L520 529z"/>
<path style="fill:#b3a1a1; stroke:none;" d="M532 529L534 531L532 529z"/>
<path style="fill:#5e5758; stroke:none;" d="M533 529L534 530L533 529M542 529L543 530L542 529M521 530L522 531L521 530M534 530L535 531L534 530M543 530L544 531L543 530M553 530L554 531L553 530M522 531L526 534L522 531M535 531L536 532L535 531M544 531L545 532L544 531M554.333 531.667L554.667 532.333L554.333 531.667z"/>
<path style="fill:#b3a1a1; stroke:none;" d="M536 532L539 535L536 532z"/>
<path style="fill:#5e5758; stroke:none;" d="M537 532L538 533L537 532z"/>
<path style="fill:#b3a1a1; stroke:none;" d="M545 532L548 535L545 532z"/>
<path style="fill:#5e5758; stroke:none;" d="M526 534L533 539L526 534M538 533L539 534L538 533M545 533L546 534L545 533M555 533L556 534L555 533M539 534L540 535L539 534M546 534L547 535L546 534M556 534L557 535L556 534z"/>
<path style="fill:#b3a1a1; stroke:none;" d="M540 535L542 537L540 535z"/>
<path style="fill:#5e5758; stroke:none;" d="M541 535L542 536L541 535M547 535L548 536L547 535M557 535L558 536L557 535M542 536L543 537L542 536z"/>
<path style="fill:#b3a1a1; stroke:none;" d="M548 536L551 539L548 536z"/>
<path style="fill:#5e5758; stroke:none;" d="M558 536C555.168 550.969 547.322 545.494 537 540L536 541C539.593 545.336 546.059 549.953 552 549.797C559.383 549.603 562.049 541.344 558 536z"/>
<path style="fill:#b3a1a1; stroke:none;" d="M543 537L545 539L543 537z"/>
<path style="fill:#5e5758; stroke:none;" d="M544 537L545 538L544 537M548 537L549 538L548 537M545 538L546 539L545 538M549 538L550 539L549 538M533 539L536 541L533 539z"/>
<path style="fill:#b3a1a1; stroke:none;" d="M546 539L548 541L546 539z"/>
<path style="fill:#5e5758; stroke:none;" d="M547 539L548 540L547 539M550 539L551 540L550 539M548 540L549 541L548 540M551 540L550 542L552 542L551 540z"/>
<path style="fill:#b3a1a1; stroke:none;" d="M549 541L550 542L549 541M552 541L553 542L552 541M550.667 542.333L551.333 542.667L550.667 542.333z"/>
</svg>
