<?xml version="1.0" standalone="yes"?>
<svg xmlns="http://www.w3.org/2000/svg" width="900" height="650">
<path style="fill:#0dcbf1; stroke:none;" d="M0 0L0 650L900 650L900 0L0 0z"/>
<path style="fill:#63857f; stroke:none;" d="M487 105L486 107L487 105z"/>
<path style="fill:#d78846; stroke:none;" d="M479 158C466.406 152.044 454.901 143.949 442 138.427C398.131 119.652 355.047 116.413 311 135.576C304.88 138.238 298.73 141.999 292 142.816C286.477 143.486 278.423 141.078 275.18 147.059C270.334 155.994 283.362 176.397 286.8 185C288.173 188.435 290.986 193.171 289.686 196.961C287.918 202.113 281.376 206.588 278.159 211C270.724 221.197 266.215 235.376 268 248L272 251L267 249C270.892 279.635 299.051 301.89 327 311L332 284L322 279L322 278L325 278L323 275L327 276L327 275L322 275L323 272L333 276L333 277L328 276L326 278L326 279C327.715 279.683 337.451 281.865 333 278L333 277C338.705 275.148 343.522 266.764 344 261L347 258L342 257L342 256C345.135 256.579 348.523 257.775 349 254L366 239L362 237L362 236C371.248 238.153 376.523 230.583 384 226.232C396.938 218.702 416.335 208.638 431.956 211.149C441.639 212.706 437.892 233.524 436.489 240C430.572 267.322 409.794 286.344 388 302C395.956 311.281 413.544 316.06 425 319.424C450.352 326.871 481.661 331.781 507 321.547C517.248 317.408 524.189 310.201 533 304C537.982 314.379 552.406 323.464 562 329.388C574.473 337.089 589.089 344.817 604 345.91C626.436 347.554 655.978 336.287 667.475 316C673.98 304.52 675.06 287.908 673.83 275C668.458 218.595 632.536 159.512 584 130.204C559.388 115.342 536.732 113.953 509 111.91C502.388 111.423 492.169 102.368 486.394 106.897C482.275 110.128 482.061 117.234 482.004 122C481.859 134.074 479.249 145.961 479 158z"/>
<path style="fill:#63857f; stroke:none;" d="M492 105L493 106L492 105M494 106L495 107L494 106M484 108L485 109L484 108M497 108L498 109L497 108M499 109L500 110L499 109M483 110L484 111L483 110M501.667 110.333L502.333 110.667L501.667 110.333M505 111L505 112L511 112L505 111M524.667 112.333L525.333 112.667L524.667 112.333M527 112L527 113L534 113L527 112M482 113L482 116L483 116L482 113z"/>
<path style="fill:#cab89e; stroke:none;" d="M539 113L540 114L539 113z"/>
<path style="fill:#63857f; stroke:none;" d="M540.667 113.333L541.333 113.667L540.667 113.333M546.667 114.333L547.333 114.667L546.667 114.333M550 115L551 116L550 115z"/>
<path style="fill:#cab89e; stroke:none;" d="M553 116L554 117L553 116z"/>
<path style="fill:#63857f; stroke:none;" d="M554 116L555 117L554 116M557 117L558 118L557 117M560 118L561 119L560 118M562 119L563 120L562 119M564.667 120.333L565.333 120.667L564.667 120.333M363 121L363 122L374 122L363 121M375.667 121.333L376.333 121.667L375.667 121.333M567 121L568 122L567 121M350.667 122.333L351.333 122.667L350.667 122.333z"/>
<path style="fill:#cab89e; stroke:none;" d="M352.667 122.333L353.333 122.667L352.667 122.333M384.667 122.333L385.333 122.667L384.667 122.333z"/>
<path style="fill:#63857f; stroke:none;" d="M386.667 122.333L387.333 122.667L386.667 122.333M569 122L570 123L569 122M344 123L345 124L344 123z"/>
<path style="fill:#cab89e; stroke:none;" d="M345.667 123.333L346.333 123.667L345.667 123.333M392 123L393 124L392 123z"/>
<path style="fill:#63857f; stroke:none;" d="M393.667 123.333L394.333 123.667L393.667 123.333M571 123L572 124L571 123M339 124L340 125L339 124z"/>
<path style="fill:#cab89e; stroke:none;" d="M340.667 124.333L341.333 124.667L340.667 124.333M398 124L399 125L398 124z"/>
<path style="fill:#63857f; stroke:none;" d="M399 124L400 125L399 124M573 124L574 125L573 124M335 125L336 126L335 125z"/>
<path style="fill:#cab89e; stroke:none;" d="M336 125L337 126L336 125M403 125L404 126L403 125z"/>
<path style="fill:#63857f; stroke:none;" d="M404 125L405 126L404 125M575 125L576 126L575 125M332 126L333 127L332 126z"/>
<path style="fill:#cab89e; stroke:none;" d="M407.667 126.333L408.333 126.667L407.667 126.333z"/>
<path style="fill:#63857f; stroke:none;" d="M481 126L481 133L482 133L481 126M577 126L578 127L577 126M329 127L330 128L329 127z"/>
<path style="fill:#cab89e; stroke:none;" d="M330 127L331 128L330 127M410.667 127.333L411.333 127.667L410.667 127.333z"/>
<path style="fill:#63857f; stroke:none;" d="M412 127L413 128L412 127M579 127L580 128L579 127z"/>
<path style="fill:#cab89e; stroke:none;" d="M327.667 128.333L328.333 128.667L327.667 128.333M413 128L413 129L416 129L413 128z"/>
<path style="fill:#63857f; stroke:none;" d="M581 128L582 129L581 128M324 129L325 130L324 129z"/>
<path style="fill:#cab89e; stroke:none;" d="M416 129L416 130L420 131L420 130L416 129z"/>
<path style="fill:#63857f; stroke:none;" d="M419 129L420 130L419 129M582 129L583 130L582 129z"/>
<path style="fill:#cab89e; stroke:none;" d="M322 130L323 131L322 130M421 130L422 131L421 130z"/>
<path style="fill:#63857f; stroke:none;" d="M422 130L423 131L422 130M584 130L585 131L584 130M319 131L320 132L319 131z"/>
<path style="fill:#cab89e; stroke:none;" d="M320 131L321 132L320 131M424 131L425 132L424 131z"/>
<path style="fill:#63857f; stroke:none;" d="M425 131L426 132L425 131M586 131L587 132L586 131M317 132L318 133L317 132z"/>
<path style="fill:#cab89e; stroke:none;" d="M421 132L422 133L421 132M426 132L427 133L426 132z"/>
<path style="fill:#63857f; stroke:none;" d="M427 132L428 133L427 132M587 132L588 133L587 132M315 133L316 134L315 133z"/>
<path style="fill:#cab89e; stroke:none;" d="M429 133L430 134L429 133z"/>
<path style="fill:#63857f; stroke:none;" d="M430 133L431 134L430 133M589 133L590 134L589 133M313 134L314 135L313 134z"/>
<path style="fill:#cab89e; stroke:none;" d="M432 134L433 135L432 134z"/>
<path style="fill:#63857f; stroke:none;" d="M433 134L434 135L433 134M590 134L591 135L590 134z"/>
<path style="fill:#cab89e; stroke:none;" d="M311 135L312 136L311 135M434 135L435 136L434 135z"/>
<path style="fill:#63857f; stroke:none;" d="M435 135L436 136L435 135M592 135L593 136L592 135M308 136L309 137L308 136z"/>
<path style="fill:#cab89e; stroke:none;" d="M437 136L438 137L437 136z"/>
<path style="fill:#63857f; stroke:none;" d="M593 136L594 137L593 136M306 137L307 138L306 137z"/>
<path style="fill:#cab89e; stroke:none;" d="M439 137L440 138L439 137z"/>
<path style="fill:#63857f; stroke:none;" d="M304 138L305 139L304 138M442 138L443 139L442 138M480 138L480 143L481 143L480 138M596 138L597 139L596 138z"/>
<path style="fill:#cab89e; stroke:none;" d="M302 139L303 140L302 139M444 139L445 140L444 139z"/>
<path style="fill:#63857f; stroke:none;" d="M597 139L598 140L597 139M299 140L300 141L299 140z"/>
<path style="fill:#cab89e; stroke:none;" d="M300 140L301 141L300 140M446 140L447 141L446 140z"/>
<path style="fill:#63857f; stroke:none;" d="M598 140L599 141L598 140M297 141L298 142L297 141z"/>
<path style="fill:#cab89e; stroke:none;" d="M448 141L449 142L448 141z"/>
<path style="fill:#63857f; stroke:none;" d="M281 142L282 143L281 142M294 142L295 143L294 142z"/>
<path style="fill:#cab89e; stroke:none;" d="M450 142L451 143L450 142z"/>
<path style="fill:#63857f; stroke:none;" d="M451 142L452 143L451 142M601 142L602 143L601 142M277 143L278 144L277 143z"/>
<path style="fill:#cab89e; stroke:none;" d="M452 143L453 144L452 143z"/>
<path style="fill:#63857f; stroke:none;" d="M453 143L454 144L453 143M602 143L603 144L602 143M276 144L277 145L276 144z"/>
<path style="fill:#cab89e; stroke:none;" d="M454 144L455 145L454 144z"/>
<path style="fill:#63857f; stroke:none;" d="M603 144L604 145L603 144M275 145L276 146L275 145z"/>
<path style="fill:#cab89e; stroke:none;" d="M456 145L457 146L456 145M458 146L459 147L458 146z"/>
<path style="fill:#63857f; stroke:none;" d="M274 147L275 148L274 147z"/>
<path style="fill:#cab89e; stroke:none;" d="M460 147L461 148L460 147z"/>
<path style="fill:#63857f; stroke:none;" d="M479 147L479 152L480 152L479 147z"/>
<path style="fill:#cab89e; stroke:none;" d="M462 148L463 149L462 148z"/>
<path style="fill:#63857f; stroke:none;" d="M608 148L609 149L608 148M464 149L465 150L464 149M609 149L610 150L609 149z"/>
<path style="fill:#cab89e; stroke:none;" d="M465 150L466 151L465 150z"/>
<path style="fill:#63857f; stroke:none;" d="M610 150L611 151L610 150z"/>
<path style="fill:#cab89e; stroke:none;" d="M467 151L468 152L467 151z"/>
<path style="fill:#63857f; stroke:none;" d="M611 151L612 152L611 151z"/>
<path style="fill:#cab89e; stroke:none;" d="M432 152L433 153L432 152M469 152L470 153L469 152z"/>
<path style="fill:#63857f; stroke:none;" d="M612 152L613 153L612 152M613 153L614 154L613 153M274 154L275 155L274 154z"/>
<path style="fill:#cab89e; stroke:none;" d="M472 154L473 155L472 154z"/>
<path style="fill:#63857f; stroke:none;" d="M614 154L615 155L614 154M474 155L475 156L474 155M478 155L477 158L478 155M615 155L616 156L615 155z"/>
<path style="fill:#cab89e; stroke:none;" d="M439 156L440 157L439 156M475 156L476 157L475 156z"/>
<path style="fill:#63857f; stroke:none;" d="M616 156L617 157L616 156M275 157L276 158L275 157z"/>
<path style="fill:#cab89e; stroke:none;" d="M466 158L467 159L466 158M468 158L469 159L468 158z"/>
<path style="fill:#63857f; stroke:none;" d="M618 158L619 159L618 158M276 160L277 161L276 160z"/>
<path style="fill:#cab89e; stroke:none;" d="M464 160L465 161L464 160M473 160L474 161L473 160z"/>
<path style="fill:#63857f; stroke:none;" d="M277 162L278 163L277 162M622 163L623 164L622 163M278 164L279 165L278 164M623 164L624 165L623 164M624 165L625 166L624 165M279.333 166.667L279.667 167.333L279.333 166.667M280 169L281 170L280 169M628 170L629 171L628 170M281 171L282 172L281 171M629 171L630 172L629 171M282.333 173.667L282.667 174.333L282.333 173.667M631 174L632 175L631 174M632 175L633 176L632 175M283 176L284 177L283 176M633 176L634 177L633 176z"/>
<path style="fill:#cab89e; stroke:none;" d="M467 178L468 179L467 178z"/>
<path style="fill:#63857f; stroke:none;" d="M284 179L285 180L284 179M635 179L636 180L635 179M636 180L637 181L636 180M285 181L286 182L285 181z"/>
<path style="fill:#cab89e; stroke:none;" d="M373 182L379 185L379 184L373 182z"/>
<path style="fill:#63857f; stroke:none;" d="M637 182L638 183L637 182z"/>
<path style="fill:#cab89e; stroke:none;" d="M383 183L383 184L391 185L383 183M464 183L465 184L464 183M506 183L507 184L506 183z"/>
<path style="fill:#63857f; stroke:none;" d="M638 183L639 184L638 183M286 184L287 185L286 184z"/>
<path style="fill:#cab89e; stroke:none;" d="M466 184L467 185L466 184M380 185L381 186L380 185M391 186L396 188L396 187L394 185L391 186z"/>
<path style="fill:#63857f; stroke:none;" d="M287.333 186.667L287.667 187.333L287.333 186.667M640 186L641 187L640 186z"/>
<path style="fill:#cab89e; stroke:none;" d="M397 188L398 189L397 188z"/>
<path style="fill:#63857f; stroke:none;" d="M288.333 189.667L288.667 190.333L288.333 189.667z"/>
<path style="fill:#cab89e; stroke:none;" d="M399 189L400 190L399 189z"/>
<path style="fill:#63857f; stroke:none;" d="M642 189L643 190L642 189M289 191L289 194L290 194L289 191M643 191L644 192L643 191z"/>
<path style="fill:#cab89e; stroke:none;" d="M385 192L386 193L385 192z"/>
<path style="fill:#63857f; stroke:none;" d="M644 192L645 193L644 192M645 194L646 195L645 194M290 195L290 198L291 198L290 195z"/>
<path style="fill:#cab89e; stroke:none;" d="M409 196L410 197L409 196M412 197L429 207L416 197L412 197z"/>
<path style="fill:#63857f; stroke:none;" d="M647 197L648 198L647 197M289 198L290 199L289 198z"/>
<path style="fill:#cab89e; stroke:none;" d="M395 198L396 199L395 198z"/>
<path style="fill:#63857f; stroke:none;" d="M288 199L289 200L288 199z"/>
<path style="fill:#cab89e; stroke:none;" d="M397 199L398 200L397 199z"/>
<path style="fill:#63857f; stroke:none;" d="M648 199L649 200L648 199M287 200L288 201L287 200z"/>
<path style="fill:#cab89e; stroke:none;" d="M400 200L401 201L400 200z"/>
<path style="fill:#63857f; stroke:none;" d="M649 201L650 202L649 201z"/>
<path style="fill:#cab89e; stroke:none;" d="M285 202L286 203L285 202M404 202L406 204L404 202M284 203L285 204L284 203z"/>
<path style="fill:#63857f; stroke:none;" d="M283 204L284 205L283 204M651 204L652 205L651 204M282 205L283 206L282 205M281 206L282 207L281 206M652 206L653 207L652 206M280 207L281 208L280 207z"/>
<path style="fill:#cab89e; stroke:none;" d="M392 207L393 208L392 207M486 208L487 209L486 208z"/>
<path style="fill:#63857f; stroke:none;" d="M653 208L654 209L653 208M279 209L280 210L279 209z"/>
<path style="fill:#cab89e; stroke:none;" d="M329 209L330 210L329 209z"/>
<path style="fill:#63857f; stroke:none;" d="M278 210L279 211L278 210z"/>
<path style="fill:#cab89e; stroke:none;" d="M490 210L491 211L490 210z"/>
<path style="fill:#63857f; stroke:none;" d="M654 210L655 211L654 210M277 211L278 212L277 211z"/>
<path style="fill:#cab89e; stroke:none;" d="M379 211L379 212L382 212L379 211M384 211L383 213L385 213L384 211M362 236L362 237L366 239L349 254C348.506 257.761 345.015 256.304 342 256L342 257L347 258L344 261C343.01 266.742 338.117 274.24 333 277L333 278C334.417 282.482 328.295 279.613 326 279L326 278L328 276L333 277L333 276C329.519 274.166 324.79 271.219 322 275L327 275L327 276L323 275C323.942 277.288 324.563 277.658 322 278L322 279L332 284C330.545 289.625 325.773 304.415 329.042 309.581C335.437 319.685 362.184 315.054 371 311.771C396.358 302.327 422.865 278.272 432.796 253C436.681 243.111 438.429 232.613 437.961 222C437.811 218.612 437.714 212.524 433.772 211.318C418.483 206.641 395.595 218.902 383 226.232C375.699 230.481 370.927 237.283 362 236z"/>
<path style="fill:#63857f; stroke:none;" d="M655 212L656 213L655 212M276 213L277 214L276 213M275 214L276 215L275 214z"/>
<path style="fill:#cab89e; stroke:none;" d="M383 214L384 215L383 214z"/>
<path style="fill:#63857f; stroke:none;" d="M656 214L657 215L656 214z"/>
<path style="fill:#cab89e; stroke:none;" d="M343 215L344 216L343 215z"/>
<path style="fill:#63857f; stroke:none;" d="M274 216L275 217L274 216z"/>
<path style="fill:#cab89e; stroke:none;" d="M346.667 216.333L347.333 216.667L346.667 216.333M352.667 217.333L353.333 217.667L352.667 217.333z"/>
<path style="fill:#63857f; stroke:none;" d="M657 217L658 218L657 217M273 218L274 219L273 218z"/>
<path style="fill:#cab89e; stroke:none;" d="M334.667 219.333L335.333 219.667L334.667 219.333M358.667 219.333L359.333 219.667L358.667 219.333z"/>
<path style="fill:#63857f; stroke:none;" d="M658 219L659 220L658 219M272 220L273 221L272 220z"/>
<path style="fill:#cab89e; stroke:none;" d="M337 220L337 221L341 221L337 220M358 221L358 222L370 225L370 224L365 223L367 221L358 221z"/>
<path style="fill:#d78846; stroke:none;" d="M363.667 221.333L364.333 221.667L363.667 221.333z"/>
<path style="fill:#63857f; stroke:none;" d="M659 221L660 222L659 221M271.333 222.667L271.667 223.333L271.333 222.667z"/>
<path style="fill:#cab89e; stroke:none;" d="M368.667 222.333L369.333 222.667L368.667 222.333z"/>
<path style="fill:#63857f; stroke:none;" d="M660 223L661 224L660 223z"/>
<path style="fill:#cab89e; stroke:none;" d="M345 224L346 225L345 224M377 224L378 225L377 224M660 224L661 225L660 224z"/>
<path style="fill:#63857f; stroke:none;" d="M270 225L271 226L270 225z"/>
<path style="fill:#cab89e; stroke:none;" d="M295 225L296 226L295 225M350 225C351.968 228.001 353.465 228.462 357 228L357 227L350 225M371 225L372 226L371 225M270 226L271 227L270 226M374 226L375 227L374 226z"/>
<path style="fill:#63857f; stroke:none;" d="M661 226L662 227L661 226z"/>
<path style="fill:#cab89e; stroke:none;" d="M271 227L272 228L271 227M376 227L377 228L376 227z"/>
<path style="fill:#63857f; stroke:none;" d="M269.333 228.667L269.667 229.333L269.333 228.667z"/>
<path style="fill:#cab89e; stroke:none;" d="M274.667 228.333L275.333 228.667L274.667 228.333z"/>
<path style="fill:#63857f; stroke:none;" d="M662 228L663 229L662 228z"/>
<path style="fill:#cab89e; stroke:none;" d="M356 229L356 230L363 232L363 231L356 229M278.667 230.333L279.333 230.667L278.667 230.333M545 231L546 232L545 231z"/>
<path style="fill:#63857f; stroke:none;" d="M663 231L664 232L663 231z"/>
<path style="fill:#cab89e; stroke:none;" d="M365 232L366 233L365 232z"/>
<path style="fill:#63857f; stroke:none;" d="M268 233L269 234L268 233z"/>
<path style="fill:#cab89e; stroke:none;" d="M352 233L352 235L354 233L352 233M358 234L359 235L358 234z"/>
<path style="fill:#63857f; stroke:none;" d="M664 234L665 235L664 234z"/>
<path style="fill:#cab89e; stroke:none;" d="M329 235L332 237L332 236L329 235M360.667 235.333L361.333 235.667L360.667 235.333M292 236L293 237L292 236M355 236L356 237L355 236z"/>
<path style="fill:#63857f; stroke:none;" d="M665.333 236.667L665.667 237.333L665.333 236.667M267 237L267 241L268 241L267 237z"/>
<path style="fill:#cab89e; stroke:none;" d="M333 237L334 238L333 237M335 238L336 239L335 238M349 238L349 239L355 241L355 240L349 238M358 238L359 239L358 238M338 239L338 240L339 242L344 242L344 241L338 239z"/>
<path style="fill:#63857f; stroke:none;" d="M666.333 239.667L666.667 240.333L666.333 239.667z"/>
<path style="fill:#cab89e; stroke:none;" d="M267.333 242.667L267.667 243.333L267.333 242.667z"/>
<path style="fill:#63857f; stroke:none;" d="M667 242L668 243L667 242z"/>
<path style="fill:#cab89e; stroke:none;" d="M341 243L342 244L341 243M351 243L352 244L351 243M667 243L668 244L667 243M305 244L307 247L305 244M353 244L356 246L356 245L353 244M267 245L267 249L272 251L267 245M303 245L304 246L303 245M309 245L310 246L309 245M313 246L313 247L344 261L344 260C336.875 256.629 330.257 247.885 322 249L323 247L322 247L313 246z"/>
<path style="fill:#63857f; stroke:none;" d="M668 246L669 247L668 246z"/>
<path style="fill:#cab89e; stroke:none;" d="M328 247L329 248L328 247M339 247L340 248L339 247M296 248L297 249L296 248M311 248L313 250L311 248M330 248L331 249L330 248M273 249L274 250L273 249M277.667 249.333L278.333 249.667L277.667 249.333M332 249L332 250L336 252L332 249M353 249L354 250L353 249z"/>
<path style="fill:#63857f; stroke:none;" d="M669.333 249.667L669.667 250.333L669.333 249.667z"/>
<path style="fill:#cab89e; stroke:none;" d="M282 250L283 251L282 250M337 251L337 252L349 256C345.472 252.635 341.945 250.594 337 251M272 251L272 252L272 253L276 254L272 251M277 251L278 252L277 251M284 251L285 252L284 251z"/>
<path style="fill:#63857f; stroke:none;" d="M267 252L267 256L268 256L267 252z"/>
<path style="fill:#cab89e; stroke:none;" d="M279 252L280 253L279 252M286 252L287 253L286 252M281 253L282 254L281 253M337 253L337 254L342 256L342 255L337 253M348 253L349 254L348 253M278 254L279 255L278 254M290 254L291 255L290 254z"/>
<path style="fill:#63857f; stroke:none;" d="M670 254L671 255L670 254z"/>
<path style="fill:#cab89e; stroke:none;" d="M280 255L281 256L280 255M283 256L286 258L286 257L283 256M295 256L296 257L295 256M304 256L305 257L304 256M298 257L299 258L298 257M541 257L544 260L541 257M268 258L269 259L268 258M320 258L320 259L327 262L320 258z"/>
<path style="fill:#63857f; stroke:none;" d="M671.333 258.667L671.667 259.333L671.333 258.667M268 259L269 260L268 259z"/>
<path style="fill:#cab89e; stroke:none;" d="M329 260L331 262L329 260M545 260L546 261L545 260M335 261L335 264L339 265L335 261z"/>
<path style="fill:#63857f; stroke:none;" d="M269 262L270 263L269 262z"/>
<path style="fill:#cab89e; stroke:none;" d="M328 262L328 263L332 264L332 263L328 262z"/>
<path style="fill:#d78846; stroke:none;" d="M336 263L337 264L336 263z"/>
<path style="fill:#63857f; stroke:none;" d="M672.333 263.667L672.667 264.333L672.333 263.667M270 264L271 265L270 264z"/>
<path style="fill:#cab89e; stroke:none;" d="M271 266L272 267L271 266M315.667 266.333L316.333 266.667L315.667 266.333M318 267L319 268L318 267M530 267L532 269L530 267z"/>
<path style="fill:#63857f; stroke:none;" d="M272 268L273 269L272 268z"/>
<path style="fill:#cab89e; stroke:none;" d="M320 268L321 269L320 268M315 269L316 270L315 269z"/>
<path style="fill:#63857f; stroke:none;" d="M673 269L673 273L674 273L673 269z"/>
<path style="fill:#cab89e; stroke:none;" d="M317.667 270.333L318.333 270.667L317.667 270.333z"/>
<path style="fill:#63857f; stroke:none;" d="M274 271L275 272L274 271z"/>
<path style="fill:#cab89e; stroke:none;" d="M300 271L301 272L300 271z"/>
<path style="fill:#63857f; stroke:none;" d="M275 272L276 273L275 272z"/>
<path style="fill:#cab89e; stroke:none;" d="M302 272L303 273L302 272M320 272L321 273L320 272z"/>
<path style="fill:#63857f; stroke:none;" d="M276 274L277 275L276 274M277 275L278 276L277 275M278 276L279 277L278 276z"/>
<path style="fill:#cab89e; stroke:none;" d="M321 277L322 278L321 277M329 278L329 279L332 279L329 278z"/>
<path style="fill:#63857f; stroke:none;" d="M280 279L281 280L280 279z"/>
<path style="fill:#cab89e; stroke:none;" d="M228 336C221.436 333.472 202.347 330.284 209.179 344C212.4 350.465 219.723 353.458 224 359C211.372 361.895 198.139 364.858 186 369.425C182.868 370.604 175.207 372.614 175.207 376.934C175.207 383.241 187.46 381.544 191 381.166C201.778 380.016 211.74 377.087 222 373.667C226.482 372.173 233.221 368.43 238 369.455C243.19 370.569 248.622 376.083 253 379C263.14 385.757 273.696 391.825 284 398.319C313.926 417.178 347.383 436.348 380 450C358.592 462.495 334.71 472.515 312 482.424C299.027 488.085 286.3 495.018 274 502C260.706 509.546 245.891 514.789 235.043 526.015C231.321 529.866 224.988 538.373 231.279 542.911C242.178 550.771 266.454 542.017 278 539.127C320.103 528.587 360.301 512.465 402 500.579C412.92 497.466 423.929 494.855 435 492.35C439.649 491.298 446.71 491.017 450.581 488.062C453.356 485.945 453.718 482.202 454 479L455 479L453 488C460.01 485.786 457.738 478.483 456 473L457 473L458 487C462.782 486.356 467.771 483.993 472.576 484.032C487.763 484.156 505.042 491.808 520 494.8C555.247 501.851 591.955 510 628 510C651.209 510 687.414 501.828 671 471L670 471L665 480L670 469L659 455L658 455C645.805 468.866 621.616 444.51 641 437L641 436C621.795 423.351 601.111 418.654 579 413.127C569.526 410.758 559.731 406.849 550 406C555.853 396.643 564.73 388.917 573 381.718C578.721 376.738 584.146 372.78 580 365L583 372C593.271 366.556 594.889 351.024 580 354.76C546.762 363.102 516.454 383.257 483 391L483 392L531 399.873L549 406L386 372.789L302 355L327 341C313.883 327.606 287.109 350.732 273.213 340.397C268.193 336.663 265.434 328.238 262.186 323C254.713 310.949 245.671 294.758 234.83 285.529C230.411 281.767 215.656 275.923 211.068 282.589C208.756 285.948 212.804 293.679 214.064 297C218.957 309.9 225.187 322.406 228 336z"/>
<path style="fill:#63857f; stroke:none;" d="M281 280L282 281L281 280M282 281L283 282L282 281z"/>
<path style="fill:#d78846; stroke:none;" d="M224 283L224 284L228 286L224 283z"/>
<path style="fill:#63857f; stroke:none;" d="M674 283L675 284L674 283z"/>
<path style="fill:#cab89e; stroke:none;" d="M324 285L325 286L324 285z"/>
<path style="fill:#63857f; stroke:none;" d="M286 286L287 287L286 286z"/>
<path style="fill:#d78846; stroke:none;" d="M226 287L227 288L226 287z"/>
<path style="fill:#63857f; stroke:none;" d="M287 287L288 288L287 287M288 288L289 289L288 288M228 290L229 291L228 290z"/>
<path style="fill:#343737; stroke:none;" d="M229 290L230 291L229 290z"/>
<path style="fill:#63857f; stroke:none;" d="M230.333 290.667L230.667 291.333L230.333 290.667z"/>
<path style="fill:#cab89e; stroke:none;" d="M291 290L292 291L291 290z"/>
<path style="fill:#343737; stroke:none;" d="M231 291L236 296L231 291z"/>
<path style="fill:#63857f; stroke:none;" d="M232 291L233 292L232 291z"/>
<path style="fill:#cab89e; stroke:none;" d="M292 291L293 292L292 291z"/>
<path style="fill:#63857f; stroke:none;" d="M233 292L234 293L233 292z"/>
<path style="fill:#cab89e; stroke:none;" d="M293 292L294 293L293 292M294 293L295 294L294 293z"/>
<path style="fill:#63857f; stroke:none;" d="M673 293L673 296L674 296L673 293M235 294L236 295L235 294z"/>
<path style="fill:#cab89e; stroke:none;" d="M295 294L296 295L295 294z"/>
<path style="fill:#63857f; stroke:none;" d="M231.667 295.333L232.333 295.667L231.667 295.333M296 295L297 296L296 295z"/>
<path style="fill:#343737; stroke:none;" d="M232 296L233 299L234 299L232 296z"/>
<path style="fill:#63857f; stroke:none;" d="M297 296L298 297L297 296M232 297L233 298L232 297z"/>
<path style="fill:#cab89e; stroke:none;" d="M299 297L300 298L299 297z"/>
<path style="fill:#63857f; stroke:none;" d="M234 298L235 301L234 298M300 298L301 299L300 298z"/>
<path style="fill:#cab89e; stroke:none;" d="M302 299L303 300L302 299z"/>
<path style="fill:#63857f; stroke:none;" d="M672 299L672 302L673 302L672 299M303 300L304 301L303 300z"/>
<path style="fill:#cab89e; stroke:none;" d="M305 301L306 302L305 301z"/>
<path style="fill:#63857f; stroke:none;" d="M306 302L307 303L306 302z"/>
<path style="fill:#cab89e; stroke:none;" d="M307 302L308 303L307 302M308 303L309 304L308 303z"/>
<path style="fill:#63857f; stroke:none;" d="M386 303L386 304L390 305L390 304L386 303M309 304L310 305L309 304z"/>
<path style="fill:#cab89e; stroke:none;" d="M310 304L310 305L315 307L310 304z"/>
<path style="fill:#63857f; stroke:none;" d="M385 304L386 305L385 304M531.667 304.333L532.333 304.667L531.667 304.333M311 305L312 306L311 305M383 305L384 306L383 305M390.667 305.333L391.333 305.667L390.667 305.333M671.333 305.667L671.667 306.333L671.333 305.667M313 306L314 307L313 306M381 306L382 307L381 306M392.667 306.333L393.333 306.667L392.667 306.333M315 307L316 308L315 307z"/>
<path style="fill:#cab89e; stroke:none;" d="M316.667 307.333L317.333 307.667L316.667 307.333z"/>
<path style="fill:#63857f; stroke:none;" d="M394.667 307.333L395.333 307.667L394.667 307.333M528 307L529 308L528 307z"/>
<path style="fill:#cab89e; stroke:none;" d="M318.667 308.333L319.333 308.667L318.667 308.333z"/>
<path style="fill:#63857f; stroke:none;" d="M396.667 308.333L397.333 308.667L396.667 308.333M321 309L322 310L321 309z"/>
<path style="fill:#cab89e; stroke:none;" d="M322 309L323 310L322 309z"/>
<path style="fill:#63857f; stroke:none;" d="M398.667 309.333L399.333 309.667L398.667 309.333M526 309L527 310L526 309M537 309L538 310L537 309M670 309L671 310L670 309M324 310L325 311L324 310z"/>
<path style="fill:#cab89e; stroke:none;" d="M325 310L326 311L325 310z"/>
<path style="fill:#63857f; stroke:none;" d="M327 310L328 311L327 310M401 310L402 311L401 310M371 311L372 312L371 311M403 311L404 312L403 311M539 311L540 312L539 311M669 311L670 312L669 311M405.667 312.333L406.333 312.667L405.667 312.333z"/>
<path style="fill:#cab89e; stroke:none;" d="M522 312L523 313L522 312z"/>
<path style="fill:#63857f; stroke:none;" d="M540 312L541 313L540 312M365 313L366 314L365 313M407.667 313.333L408.333 313.667L407.667 313.333M521 313L522 314L521 313M541 313L542 314L541 313M410 314L411 315L410 314M542 314L543 315L542 314M412.667 315.333L413.333 315.667L412.667 315.333M518 315L519 316L518 315M543 315L544 316L543 315M415.667 316.333L416.333 316.667L415.667 316.333M544 316L545 317L544 316M418 317L419 318L418 317M515 317L516 318L515 317M545 317L546 318L545 317M666 317L667 318L666 317M421 318L422 319L421 318z"/>
<path style="fill:#cab89e; stroke:none;" d="M513 318L514 319L513 318z"/>
<path style="fill:#63857f; stroke:none;" d="M424 319L425 320L424 319z"/>
<path style="fill:#cab89e; stroke:none;" d="M425 319L426 320L425 319M511 319L512 320L511 319z"/>
<path style="fill:#63857f; stroke:none;" d="M548 319L549 320L548 319M665 319L666 320L665 319M427 320L428 321L427 320z"/>
<path style="fill:#cab89e; stroke:none;" d="M428 320L429 321L428 320M509 320L510 321L509 320z"/>
<path style="fill:#63857f; stroke:none;" d="M549 320L550 321L549 320M664 320L665 321L664 320M431 321L432 322L431 321M507 321L508 322L507 321M550 321L551 322L550 321M663 321L664 322L663 321M435 322L436 323L435 322M504 322L505 323L504 322M552 322L553 323L552 322M439.667 323.333L440.333 323.667L439.667 323.333M501 323L502 324L501 323M553 323L554 324L553 323M662 323L663 324L662 323M444.667 324.333L445.333 324.667L444.667 324.333M497.667 324.333L498.333 324.667L497.667 324.333M554 324L555 325L554 324M661 324L662 325L661 324M450 325L450 326L453 326L450 325M492.667 325.333L493.333 325.667L492.667 325.333M556 325L557 326L556 325M660 325L661 326L660 325M459 326L459 327L463 327L459 326M465 326L466 327L465 326M481 326L481 327L487 327L481 326M557 326L558 327L557 326M560 328L561 329L560 328M656 328L657 329L656 328M562 329L563 330L562 329M655 329L656 330L655 329M563 330L564 331L563 330M565 331L566 332L565 331M652 331L653 332L652 331M566.667 332.333L567.333 332.667L566.667 332.333M568 333L569 334L568 333M648 333L649 334L648 333M570 334L571 335L570 334M572 335L573 336L572 335M645 335L646 336L645 335M574 336L575 337L574 336M643 336L644 337L643 336z"/>
<path style="fill:#d78846; stroke:none;" d="M232 337L232 338L256 344.13L299 354C292.496 345.948 278.909 350.816 272 341L271 341L273 346L232 337z"/>
<path style="fill:#63857f; stroke:none;" d="M576 337L577 338L576 337M642 337L643 338L642 337M578.667 338.333L579.333 338.667L578.667 338.333M640 338L641 339L640 338M580.667 339.333L581.333 339.667L580.667 339.333M637 339L638 340L637 339M583 340L584 341L583 340M635 340L636 341L635 340M585 341L586 342L585 341M633 341L634 342L633 341M588 342L589 343L588 342M630 342L631 343L630 342M591 343L592 344L591 343M627 343L628 344L627 343M594 344L594 345L597 345L594 344M623.667 344.333L624.333 344.667L623.667 344.333M598 345L598 346L601 346L598 345M619.667 345.333L620.333 345.667L619.667 345.333M605 346L605 347L614 347L605 346z"/>
<path style="fill:#d78846; stroke:none;" d="M227 357L227 358L238 367L239 367C237.691 360.53 233.244 357.94 227 357z"/>
<path style="fill:#63857f; stroke:none;" d="M272 363L272 364L277 366L272 363M270 364L271 365L270 364z"/>
<path style="fill:#343737; stroke:none;" d="M271.103 364.801C265.149 366.811 265.654 378.244 272.776 375.377C277.613 373.431 277.845 362.526 271.103 364.801z"/>
<path style="fill:#63857f; stroke:none;" d="M580 365L583 367L580 365M267 367L268 368L267 367z"/>
<path style="fill:#343737; stroke:none;" d="M582 367L582 373L583 373L582 367z"/>
<path style="fill:#63857f; stroke:none;" d="M287 368L288 369L287 368z"/>
<path style="fill:#343737; stroke:none;" d="M287.896 369.176C281.68 369.95 279.019 382.122 286.907 380.623C291.72 379.709 293.948 368.422 287.896 369.176z"/>
<path style="fill:#63857f; stroke:none;" d="M289 368L290 369L289 368M266.333 369.667L266.667 370.333L266.333 369.667M276.333 369.667L276.667 370.333L276.333 369.667M285 369L286 370L285 369M583.333 369.667L583.667 370.333L583.333 369.667M284 370L285 371L284 370M291 370L292 371L291 370M578 370L579 371L578 370M283 371L284 372L283 371z"/>
<path style="fill:#343737; stroke:none;" d="M578.333 371.667L578.667 372.333L578.333 371.667z"/>
<path style="fill:#63857f; stroke:none;" d="M282 372L283 373L282 372M266 373L267 374L266 373M275 373L276 374L275 373M301 373L302 374L301 373z"/>
<path style="fill:#343737; stroke:none;" d="M302.025 373.89C296.562 375.274 295.273 386.867 301.965 385.248C307.26 383.968 308.761 372.184 302.025 373.89z"/>
<path style="fill:#63857f; stroke:none;" d="M578 373L579 374L578 373M281.333 374.667L281.667 375.333L281.333 374.667M306 374L307 375L306 374M186 376L186 377L192 377L186 376z"/>
<path style="fill:#343737; stroke:none;" d="M191.667 375.333L192.333 375.667L191.667 375.333z"/>
<path style="fill:#63857f; stroke:none;" d="M291.333 375.667L291.667 376.333L291.333 375.667M269 376L269 377L273 377L269 376M180 377L182 379L182 377L180 377M297 377L298 378L297 377z"/>
<path style="fill:#343737; stroke:none;" d="M182.667 378.333L183.333 378.667L182.667 378.333z"/>
<path style="fill:#63857f; stroke:none;" d="M183 379L183 380L188 379L183 379z"/>
<path style="fill:#343737; stroke:none;" d="M186 378L187 379L186 378z"/>
<path style="fill:#63857f; stroke:none;" d="M281 378L282 379L281 378M290 378L291 379L290 378M316 378L317 379L316 378z"/>
<path style="fill:#343737; stroke:none;" d="M316.957 379.176C311.2 379.884 308.777 391.31 315.965 390.534C321.238 389.965 323.011 378.431 316.957 379.176z"/>
<path style="fill:#63857f; stroke:none;" d="M318 378L319 379L318 378M296 379L296 383L297 383L296 379M314 379L315 380L314 379M320 379L321 380L320 379M306.333 380.667L306.667 381.333L306.333 380.667M313 380L314 381L313 380M284 381L284 382L287 382L284 381M312 381L313 382L312 381M321.333 382.667L321.667 383.333L321.333 382.667M330.667 382.333L331.333 382.667L330.667 382.333M305 383L306 384L305 383M311 383L312 384L311 383M328 383L325 387L328 383z"/>
<path style="fill:#343737; stroke:none;" d="M329.039 384.086C323.49 386.653 323.882 397.77 330.776 394.573C335.482 392.391 335.524 381.087 329.039 384.086z"/>
<path style="fill:#63857f; stroke:none;" d="M333 383L334 384L333 383z"/>
<path style="fill:#d78846; stroke:none;" d="M338 384L338 385C345.54 384.068 348.79 385.81 355 390L356 389C351.448 382.891 345.11 381.898 338 384z"/>
<path style="fill:#63857f; stroke:none;" d="M297 384L298 385L297 384M304 384L305 385L304 384M334.333 384.667L334.667 385.333L334.333 384.667z"/>
<path style="fill:#cab89e; stroke:none;" d="M341 384L341 385L354 390C350.479 385.336 346.711 384.122 341 384z"/>
<path style="fill:#63857f; stroke:none;" d="M298 385L299 386L298 385M303 385L304 386L303 385M310 385L310 388L311 388L310 385M341 385L341 386L345 386L341 385M300.667 386.333L301.333 386.667L300.667 386.333M320.333 386.667L320.667 387.333L320.333 386.667M339 386L338 388L339 386z"/>
<path style="fill:#343737; stroke:none;" d="M340.228 387.029C330.425 392.964 334.894 426.476 350.57 415.971C359.746 409.823 355.575 377.737 340.228 387.029z"/>
<path style="fill:#63857f; stroke:none;" d="M347.667 386.333L348.333 386.667L347.667 386.333M350 387L351 388L350 387M324.333 388.667L324.667 389.333L324.333 388.667M334.333 388.667L334.667 389.333L334.333 388.667M311 389L312 390L311 389M337 389L338 390L337 389M312 390L313 391L312 390M314 391L314 392L317 392L314 391M354 391L355 392L354 391M324 392L325 393L324 392M333 392L334 393L333 392z"/>
<path style="fill:#d78846; stroke:none;" d="M480 392L480 393L512 397.424L549 406L531 399.627L480 392z"/>
<path style="fill:#63857f; stroke:none;" d="M355 393L355 400L356 400L355 393M325 394L326 395L325 394M336 394L336 398L337 398L336 394M327 395L328 396L327 395M329.667 395.333L330.333 395.667L329.667 395.333M365 395L366 396L365 395z"/>
<path style="fill:#343737; stroke:none;" d="M366 395.89C360.318 397.359 358.71 409.391 365.964 407.288C371.119 405.793 372.616 394.181 366 395.89z"/>
<path style="fill:#63857f; stroke:none;" d="M370 397L371 398L370 397z"/>
<path style="fill:#d78846; stroke:none;" d="M548.667 398.333L549.333 398.667L548.667 398.333z"/>
<path style="fill:#63857f; stroke:none;" d="M361 399L362 400L361 399z"/>
<path style="fill:#d78846; stroke:none;" d="M543 399L543 400L546 400L543 399z"/>
<path style="fill:#63857f; stroke:none;" d="M381.667 400.333L382.333 400.667L381.667 400.333M360.333 401.667L360.667 402.333L360.333 401.667M379 401L380 402L379 401z"/>
<path style="fill:#343737; stroke:none;" d="M380.09 401.801C374.74 403.621 373.705 414.563 380.816 412.878C386.275 411.585 386.939 399.471 380.09 401.801z"/>
<path style="fill:#63857f; stroke:none;" d="M384 401L385 402L384 401M335 402L335 406L336 406L335 402M370 402L371 403L370 402M354 403L354 407L355 407L354 403M385 403L386 404L385 403M360.333 404.667L360.667 405.333L360.333 404.667M376 404L377 405L376 404M369 405L370 406L369 405M385 405L385 408L386 408L385 405M394 405L393 407L394 405z"/>
<path style="fill:#343737; stroke:none;" d="M395.075 406.006C389.094 407.721 388.754 419.719 395.791 417.199C400.559 415.491 401.52 404.158 395.075 406.006z"/>
<path style="fill:#63857f; stroke:none;" d="M398 405L399 406L398 405M368 406L369 407L368 406M375 406L376 407L375 406M399 406L400 407L399 406M362 407L363 408L362 407M367 407L368 408L367 407M391 408L392 409L391 408M400.333 408.667L400.667 409.333L400.333 408.667M390 409L391 410L390 409M334 410L335 411L334 410M353.333 410.667L353.667 411.333L353.333 410.667M384 410L385 411L384 410M410 410L411 411L410 410z"/>
<path style="fill:#343737; stroke:none;" d="M410.957 411.06C405.295 411.903 402.709 423.307 409.975 422.534C415.536 421.942 416.911 410.173 410.957 411.06z"/>
<path style="fill:#63857f; stroke:none;" d="M413 410L414 411L413 410M375 411L376 412L375 411M383 411L384 412L383 411M414 411L415 412L414 411M376 412L377 413L376 412M389 412L389 415L390 415L389 412M407 412L408 413L407 412M336 413L337 414L336 413M378 413L379 414L378 413M380.667 413.333L381.333 413.667L380.667 413.333M399 413L400 414L399 413M415 413L415 417L416 417L415 413M338 414L339 415L338 414M352 414L353 415L352 414z"/>
<path style="fill:#d78846; stroke:none;" d="M334 415L334 416C339.516 418.457 347.543 423.113 353 419L334 415z"/>
<path style="fill:#63857f; stroke:none;" d="M341 415L342 416L341 415M398 415L399 416L398 415M405 415L406 416L405 415M426 415L427 416L426 415M343 416L344 417L343 416M351 416L352 417L351 416M390 416L391 417L390 416M424 416L425 417L424 416z"/>
<path style="fill:#343737; stroke:none;" d="M425.025 416.801C419.965 418.47 417.98 429.627 424.975 428.168C430.672 426.98 431.933 414.522 425.025 416.801z"/>
<path style="fill:#63857f; stroke:none;" d="M346 417L346 418L351 418L346 417M391 417L392 418L391 417M396 417L397 418L396 417z"/>
<path style="fill:#cab89e; stroke:none;" d="M346 418L346 419L351 419L346 418z"/>
<path style="fill:#63857f; stroke:none;" d="M414 419L415 420L414 419M430 419L430 422L431 422L430 419M440 419L441 420L440 419z"/>
<path style="fill:#343737; stroke:none;" d="M440.957 420.06C435.301 420.903 432.712 432.317 439.965 431.534C445.331 430.955 446.916 419.173 440.957 420.06z"/>
<path style="fill:#63857f; stroke:none;" d="M443 419L444 420L443 419M420 420L421 421L420 420M438 420L439 421L438 420M444 420L445 421L444 420M405 421L406 422L405 421M413 421L414 422L413 421M437 421L438 422L437 421M412 422L413 423L412 422M436 422L437 423L436 422M445 422L445 425L446 425L445 422M409.667 423.333L410.333 423.667L409.667 423.333M419.333 423.667L419.667 424.333L419.333 423.667M429 424L430 425L429 424M435 424L436 425L435 424M455 424L456 425L455 424z"/>
<path style="fill:#343737; stroke:none;" d="M456 424.971C450.197 426.294 448.773 438.373 455.964 436.288C461.045 434.814 462.706 423.442 456 424.971z"/>
<path style="fill:#63857f; stroke:none;" d="M458 424L459 425L458 424M428 426L429 427L428 426M434 426L434 429L435 429L434 426M460 426L461 427L460 426M427 427L428 428L427 427M444 427L445 428L444 427M422 428L423 429L422 428M426 428L427 429L426 428M451 428L452 429L451 428M472 429L473 430L472 429z"/>
<path style="fill:#343737; stroke:none;" d="M472.964 429.971C466.729 431.378 465.671 443.712 472.907 441.338C477.468 439.841 479.42 428.513 472.964 429.971z"/>
<path style="fill:#63857f; stroke:none;" d="M475 429L476 430L475 429M435 430L436 431L435 430M450.333 430.667L450.667 431.333L450.333 430.667M436 431L437 432L436 431M460 431L461 432L460 431M477.333 431.667L477.667 432.333L477.333 431.667M438.667 432.333L439.333 432.667L438.667 432.333M450.333 433.667L450.667 434.333L450.333 433.667M459 434L460 435L459 434M467.333 434.667L467.667 435.333L467.333 434.667M477 434L477 437L478 437L477 434M458 435L459 436L458 435M488 435L489 436L488 435z"/>
<path style="fill:#343737; stroke:none;" d="M488.946 436.176C483.039 436.893 480.764 448.328 487.914 447.534C493.064 446.962 495.078 435.432 488.946 436.176z"/>
<path style="fill:#63857f; stroke:none;" d="M490 435L491 436L490 435M452 436L453 437L452 436M457 436L458 437L457 436M486 436L487 437L486 436M492 436L493 437L492 436M454.667 437.333L455.333 437.667L454.667 437.333M485 437L486 438L485 437M638.667 437.333L639.333 437.667L638.667 437.333z"/>
<path style="fill:#343737; stroke:none;" d="M640 437.992C624.33 437.816 638.25 459.461 648 459.801C665.412 460.407 648.596 438.088 640 437.992z"/>
<path style="fill:#63857f; stroke:none;" d="M641 437L642 438L641 437z"/>
<path style="fill:#d78846; stroke:none;" d="M382 447C386.669 445.426 390.17 441.502 395 440.394C408.95 437.195 427.824 444.814 441 449C437.979 444.058 430.296 443.697 425 442.373C410.434 438.732 392.9 433.526 382 447z"/>
<path style="fill:#63857f; stroke:none;" d="M476 438L477 439L476 438M484 438L485 439L484 438M643 438L644 439L643 438M467 439L468 440L467 439M483 439L484 440L483 439M635 439L636 440L635 439M644 439L645 440L644 439M475 440L476 441L475 440M505 440L506 441L505 440z"/>
<path style="fill:#343737; stroke:none;" d="M506.025 440.89C500.562 442.274 499.272 453.867 505.965 452.248C511.26 450.968 512.76 439.184 506.025 440.89z"/>
<path style="fill:#63857f; stroke:none;" d="M509 440L510 441L509 440M645 440L646 441L645 440M474 441L475 442L474 441M510 441L511 442L510 441M646 441L647 442L646 441M471.667 442.333L472.333 442.667L471.667 442.333M482 442L482 445L483 445L482 442M647 442L648 443L647 442M492 443L493 444L492 443z"/>
<path style="fill:#d78846; stroke:none;" d="M538.667 443.333L539.333 443.667L538.667 443.333z"/>
<path style="fill:#63857f; stroke:none;" d="M631 443L631 446L632 446L631 443M648 443L649 444L648 443M501 444L502 445L501 444M522 444L523 445L522 444z"/>
<path style="fill:#343737; stroke:none;" d="M522.957 444.971C516.537 446.426 515.655 458.722 522.907 456.338C527.336 454.882 529.039 443.592 522.957 444.971z"/>
<path style="fill:#63857f; stroke:none;" d="M525 444L526 445L525 444M649 444L650 445L649 444M491 445L492 446L491 445z"/>
<path style="fill:#d78846; stroke:none;" d="M540.667 445.333L541.333 445.667L540.667 445.333z"/>
<path style="fill:#63857f; stroke:none;" d="M619 445L619 446L625 446L619 445M483 446L484 447L483 446M500 446L500 450L501 450L500 446M527 446L527 451L528 451L527 446z"/>
<path style="fill:#d78846; stroke:none;" d="M538 446L536 449L538 446z"/>
<path style="fill:#63857f; stroke:none;" d="M544.667 446.333L545.333 446.667L544.667 446.333M554 446L555 447L554 446M616 446L617 447L616 446z"/>
<path style="fill:#343737; stroke:none;" d="M617.005 446.653C608.783 449.279 611.343 460.573 616.649 465.258C620.11 468.313 627.999 467.329 631.941 465.736C643.173 461.198 627.415 443.327 617.005 446.653z"/>
<path style="fill:#d78846; stroke:none;" d="M442 447C447.005 454.18 464.175 456.299 472 460.877C475.872 463.142 481.233 466.79 480.319 471.999C479.625 475.95 475.805 478.594 474 482C482.206 478.769 486.346 469.285 478.786 462.61C469.224 454.165 453.86 450.859 442 447z"/>
<path style="fill:#63857f; stroke:none;" d="M484 447L485 448L484 447M510.333 447.667L510.667 448.333L510.333 447.667M541 447L542 448L541 447z"/>
<path style="fill:#343737; stroke:none;" d="M551 483C552.69 478.494 553.543 473.701 554.576 469C555.363 465.414 556.38 461.665 556.671 458C557.321 449.794 548.398 444.271 541.044 448.179C534.328 451.748 530.395 472.591 535.742 478.436C538.895 481.882 546.664 481.878 551 483z"/>
<path style="fill:#63857f; stroke:none;" d="M549.667 447.333L550.333 447.667L549.667 447.333M555 447L556 448L555 447M614 447L615 448L614 447M486.667 448.333L487.333 448.667L486.667 448.333M539 448L540 449L539 448M553 448L554 449L553 448M556 448L557 449L556 448M612 448L613 449L612 448M633 448L634 449L633 448M517 449L518 450L517 449M538 449L539 450L538 449M554 449L555 450L554 449M557 449L558 450L557 449M597 449L597 450L603 450L597 449M653 449L654 450L653 449M509 450L510 451L509 450M537 450L538 451L537 450M555 450L556 451L555 450z"/>
<path style="fill:#343737; stroke:none;" d="M557 450L558 451L557 450M596.564 451.028C587.494 457.739 598.951 475.843 608.667 467.397C614.979 461.91 605.026 444.766 596.564 451.028z"/>
<path style="fill:#63857f; stroke:none;" d="M605 450L606 451L605 450M654 450L655 451L654 450M501 451L502 452L501 451M508 451L509 452L508 451M557.667 451.333L558.333 451.667L557.667 451.333M606 451L607 452L606 451M631 451L632 452L631 451M655 451L656 452L655 451M502 452L503 453L502 452M507 452L508 453L507 452M536 452L537 453L536 452M556.333 452.667L556.667 453.333L556.333 452.667z"/>
<path style="fill:#343737; stroke:none;" d="M558 452L558 455L559 455L558 452z"/>
<path style="fill:#63857f; stroke:none;" d="M594 452L594 455L595 455L594 452M607 452L608 453L607 452M636 452L637 453L636 452M526 453L527 454L526 453M637 453L638 454L637 453M517 454L518 455L517 454M559 454L559 463L560 463L559 454M611 454L612 455L611 454M633 454L634 455L633 454M638 454L639 455L638 454M657.333 454.667L657.667 455.333L657.333 454.667M525 455L526 456L525 455M535.333 455.667L535.667 456.333L535.333 455.667M608 455L609 456L608 455M524 456L525 457L524 456M634 456L635 457L634 456M640 456L641 457L640 456M521.667 457.333L522.333 457.667L521.667 457.333z"/>
<path style="fill:#343737; stroke:none;" d="M559 457L559 460L560 460L559 457z"/>
<path style="fill:#63857f; stroke:none;" d="M612 457L613 458L612 457M641 457L642 458L641 457M656 457L657 458L656 457M609 458L610 459L609 458M635 458L636 459L635 458M642 458L643 459L642 458M655 458L656 459L655 458M534 459L534 463L535 463L534 459M556.333 459.667L556.667 460.333L556.333 459.667M613 459L614 460L613 459M644 459L645 460L644 459M651.667 459.333L652.333 459.667L651.667 459.333M636 460L636 463L637 463L636 460M610.333 461.667L610.667 462.333L610.333 461.667z"/>
<path style="fill:#343737; stroke:none;" d="M558 462L558 466L559 466L558 462z"/>
<path style="fill:#63857f; stroke:none;" d="M614 462L615 463L614 462M555.333 464.667L555.667 465.333L555.333 464.667M615 464L616 465L615 464M557 465L557 470L558 470L557 465M594 465L595 466L594 465M633 465L634 466L633 465M610 466L611 467L610 466M617 466L618 467L617 466M629.667 466.333L630.333 466.667L629.667 466.333M609 467L610 468L609 467M598 468L598 469L601 469L598 468M608 468L609 469L608 468M554 469L555 470L554 469z"/>
<path style="fill:#d78846; stroke:none;" d="M668 470L665 480L670 470L668 470z"/>
<path style="fill:#63857f; stroke:none;" d="M670 470L671 471L670 470M456 473L456 475L458 475L456 473M553.333 473.667L553.667 474.333L553.333 473.667z"/>
<path style="fill:#343737; stroke:none;" d="M457 475L458 476L457 475z"/>
<path style="fill:#63857f; stroke:none;" d="M457 476L457 478L459 478L459 476L457 476M534.333 477.667L534.667 478.333L534.333 477.667z"/>
<path style="fill:#343737; stroke:none;" d="M458 478L458 485L459 485L458 478z"/>
<path style="fill:#63857f; stroke:none;" d="M552 478L552 481L553 481L552 478M454 479L455 480L454 479M535 479L536 480L535 479z"/>
<path style="fill:#343737; stroke:none;" d="M454 480L454 484L455 484L454 480z"/>
<path style="fill:#63857f; stroke:none;" d="M538.667 480.333L539.333 480.667L538.667 480.333z"/>
<path style="fill:#d78846; stroke:none;" d="M664 480C650.348 492.453 634.95 488.157 619 494.094C612.136 496.649 609.321 502.606 604 507L604 508C610.636 506.597 613.186 499.611 619 496.417C629.653 490.563 642.764 493.986 654 489.535C658.137 487.897 664.105 484.952 664 480z"/>
<path style="fill:#63857f; stroke:none;" d="M543.667 481.333L544.333 481.667L543.667 481.333M547 482L547 483L550 483L547 482M551 482L552 483L551 482M453 483L453 485L455 485L453 483z"/>
<path style="fill:#343737; stroke:none;" d="M453 485L452 488L453 485z"/>
<path style="fill:#63857f; stroke:none;" d="M457.667 485.333L458.333 485.667L457.667 485.333M452 486L453 487L452 486z"/>
<path style="fill:#343737; stroke:none;" d="M457 486L458 487L457 486z"/>
<path style="fill:#63857f; stroke:none;" d="M451 488L452 489L451 488M586 499L587 500L586 499z"/>
<path style="fill:#343737; stroke:none;" d="M586.333 500.667L586.667 501.333L586.333 500.667z"/>
<path style="fill:#63857f; stroke:none;" d="M590 501L590 502L594 504L590 501M586 502L586 503L587 505L591 506L586 502z"/>
<path style="fill:#343737; stroke:none;" d="M591 502L592 503L591 502M587 503L588 504L587 503M592 503L593 504L592 503M588 504L589 505L588 504M593 504L594 505L593 504z"/>
<path style="fill:#d78846; stroke:none;" d="M346 509L348 511L346 509M344 511L345 512L344 511M345 513L345 517L346 517L345 513z"/>
<path style="fill:#63857f; stroke:none;" d="M276 526L277 528L278 528L279 526L276 526M273 527L275 529L273 527z"/>
<path style="fill:#343737; stroke:none;" d="M274 527L274 528L277 528L274 527z"/>
<path style="fill:#63857f; stroke:none;" d="M270 528L272 530L270 528z"/>
<path style="fill:#343737; stroke:none;" d="M271 528L271 529L274 529L271 528z"/>
<path style="fill:#63857f; stroke:none;" d="M281 530L284 529L281 530M268.333 529.667L268.667 530.333L268.333 529.667z"/>
<path style="fill:#343737; stroke:none;" d="M269.667 529.333L270.333 529.667L269.667 529.333z"/>
<path style="fill:#63857f; stroke:none;" d="M277 529L279 531L279 529L277 529z"/>
<path style="fill:#343737; stroke:none;" d="M279.667 529.333L280.333 529.667L279.667 529.333z"/>
<path style="fill:#63857f; stroke:none;" d="M265 530L264 532L266 532L265 530z"/>
<path style="fill:#343737; stroke:none;" d="M266.667 530.333L267.333 530.667L266.667 530.333z"/>
<path style="fill:#63857f; stroke:none;" d="M274 530L277 532L274 530z"/>
<path style="fill:#343737; stroke:none;" d="M276.667 530.333L277.333 530.667L276.667 530.333z"/>
<path style="fill:#63857f; stroke:none;" d="M272 531L272 533L274 533L272 531z"/>
<path style="fill:#343737; stroke:none;" d="M273.667 531.333L274.333 531.667L273.667 531.333z"/>
<path style="fill:#63857f; stroke:none;" d="M269 532L271 534L269 532z"/>
<path style="fill:#343737; stroke:none;" d="M270.667 532.333L271.333 532.667L270.667 532.333z"/>
<path style="fill:#63857f; stroke:none;" d="M265 533L265 534L268 535L265 533z"/>
<path style="fill:#343737; stroke:none;" d="M267 533L267 534L270 534L267 533z"/>
<path style="fill:#63857f; stroke:none;" d="M262 534L264 536L264 534L262 534z"/>
<path style="fill:#343737; stroke:none;" d="M264 534L264 535L267 535L264 534z"/>
<path style="fill:#63857f; stroke:none;" d="M259 535L259 537L261 537L259 535z"/>
<path style="fill:#343737; stroke:none;" d="M260 535L260 536L263 536L260 535z"/>
<path style="fill:#63857f; stroke:none;" d="M242.667 536.333L243.333 536.667L242.667 536.333M255 536L254 538L256 538L255 536z"/>
<path style="fill:#343737; stroke:none;" d="M256 536L256 537L259 537L256 536z"/>
<path style="fill:#63857f; stroke:none;" d="M244 537L244 538L247 538L244 537z"/>
<path style="fill:#343737; stroke:none;" d="M247 537L247 538L254 538L247 537z"/>
</svg>
