<?xml version="1.0" standalone="yes"?>
<svg xmlns="http://www.w3.org/2000/svg" width="900" height="650">
<path style="fill:#5f17eb; stroke:none;" d="M0 0L0 650L900 650L900 0L0 0z"/>
<path style="fill:#223558; stroke:none;" d="M433 101L434 102L433 101z"/>
<path style="fill:#359191; stroke:none;" d="M434 101L434 102L445 102L434 101z"/>
<path style="fill:#1fd761; stroke:none;" d="M445 101.424C423.556 104.239 403 105.002 382 111.435C326.134 128.549 278.98 168.842 251.309 220C183.014 346.262 256.278 508.944 395 543.625C420.825 550.081 448.581 551.876 475 548.714C581.598 535.959 668.218 446.304 672.961 338C677.543 233.341 609.121 134.413 506 108.627C487.192 103.923 464.417 98.8762 445 101.424z"/>
<path style="fill:#359191; stroke:none;" d="M455 101L455 102L466 102L455 101M423 102L423 103L427 103L423 102M471 102L471 103L476 103L471 102z"/>
<path style="fill:#223558; stroke:none;" d="M476 102L477 103L476 102z"/>
<path style="fill:#359191; stroke:none;" d="M415 103L415 104L419 104L415 103M480 103L480 104L483 104L480 103z"/>
<path style="fill:#223558; stroke:none;" d="M483 103L484 104L483 103z"/>
<path style="fill:#359191; stroke:none;" d="M409 104L409 105L412 105L409 104M487 104L487 105L490 105L487 104M404 105L404 106L407 106L404 105M492 105L492 106L495 106L492 105M399 106L399 107L402 107L399 106M497.667 106.333L498.333 106.667L497.667 106.333z"/>
<path style="fill:#223558; stroke:none;" d="M499 106L500 107L499 106z"/>
<path style="fill:#359191; stroke:none;" d="M395.667 107.333L396.333 107.667L395.667 107.333M501.667 107.333L502.333 107.667L501.667 107.333z"/>
<path style="fill:#223558; stroke:none;" d="M503 107L504 108L503 107z"/>
<path style="fill:#359191; stroke:none;" d="M391.667 108.333L392.333 108.667L391.667 108.333M505.667 108.333L506.333 108.667L505.667 108.333z"/>
<path style="fill:#223558; stroke:none;" d="M507 108L508 109L507 108M387 109L388 110L387 109z"/>
<path style="fill:#359191; stroke:none;" d="M388 109L389 110L388 109M509.667 109.333L510.333 109.667L509.667 109.333M384.667 110.333L385.333 110.667L384.667 110.333M513 110L514 111L513 110z"/>
<path style="fill:#223558; stroke:none;" d="M514 110L515 111L514 110z"/>
<path style="fill:#359191; stroke:none;" d="M381 111L382 112L381 111M516.667 111.333L517.333 111.667L516.667 111.333M378 112L379 113L378 112M519.667 112.333L520.333 112.667L519.667 112.333M375.667 113.333L376.333 113.667L375.667 113.333M522.667 113.333L523.333 113.667L522.667 113.333M372.667 114.333L373.333 114.667L372.667 114.333M525 114L526 115L525 114z"/>
<path style="fill:#223558; stroke:none;" d="M526 114L527 115L526 114M369 115L370 116L369 115z"/>
<path style="fill:#359191; stroke:none;" d="M370 115L371 116L370 115M528 115L529 116L528 115M367 116L368 117L367 116M531 116L532 117L531 116M364.667 117.333L365.333 117.667L364.667 117.333M533 117L534 118L533 117M362 118L363 119L362 118M535.667 118.333L536.333 118.667L535.667 118.333M360 119L361 120L360 119M538 119L539 120L538 119M357.667 120.333L358.333 120.667L357.667 120.333M540 120L541 121L540 120M355 121L356 122L355 121M542 121L543 122L542 121M353 122L354 123L353 122M544 122L545 123L544 122M351 123L352 124L351 123M546.667 123.333L547.333 123.667L546.667 123.333M349 124L350 125L349 124M549 124L550 125L549 124M347 125L348 126L347 125M551 125L552 126L551 125M345 126L346 127L345 126M552 126L553 127L552 126M343 127L344 128L343 127M554 127L555 128L554 127M341 128L342 129L341 128M556 128L557 129L556 128M340 129L341 130L340 129M558 129L559 130L558 129M338 130L339 131L338 130M560 130L561 131L560 130M336 131L337 132L336 131M334 132L335 133L334 132M563 132L564 133L563 132M333 133L334 134L333 133M565 133L566 134L565 133M331 134L332 135L331 134M568 135L569 136L568 135M328 136L329 137L328 136z"/>
<path style="fill:#223558; stroke:none;" d="M570 136L571 137L570 136M326 137L327 138L326 137z"/>
<path style="fill:#359191; stroke:none;" d="M571 137L572 138L571 137M325 138L326 139L325 138z"/>
<path style="fill:#223558; stroke:none;" d="M573 138L574 139L573 138z"/>
<path style="fill:#359191; stroke:none;" d="M323 139L324 140L323 139M574 139L575 140L574 139M322 140L323 141L322 140z"/>
<path style="fill:#223558; stroke:none;" d="M576 140L577 141L576 140z"/>
<path style="fill:#359191; stroke:none;" d="M577 141L578 142L577 141M319 142L320 143L319 142M318 143L319 144L318 143M580 143L581 144L580 143M316 144L317 145L316 144M581 144L582 145L581 144M315 145L316 146L315 145M584 146L585 147L584 146M312 147L313 148L312 147M585 147L586 148L585 147M311 148L312 149L311 148M310 149L311 150L310 149M588 149L589 150L588 149M589 150L590 151L589 150M307 151L308 152L307 151M590 151L591 152L590 151M306 152L307 153L306 152M305 153L306 154L305 153M593 153L594 154L593 153M304 154L305 155L304 154M594 154L595 155L594 154M595 155L596 156L595 155M301 156L302 157L301 156M596 156L597 157L596 156M300 157L301 158L300 157M597 157L598 158L597 157M299 158L300 159L299 158M298 159L299 160L298 159M297 160L298 161L297 160z"/>
<path style="fill:#223558; stroke:none;" d="M601 160L602 161L601 160z"/>
<path style="fill:#359191; stroke:none;" d="M296 161L297 162L296 161M602 161L603 162L602 161M295 162L296 163L295 162M603 162L604 163L603 162M294 163L295 164L294 163M604 163L605 164L604 163M293 164L294 165L293 164M605 164L606 165L605 164M606 165L607 166L606 165M607 166L608 167L607 166M608 167L609 168L608 167M289 168L290 169L289 168M609 168L610 169L609 168M288 169L289 170L288 169M610 169L611 170L610 169M287 170L288 171L287 170M611 170L612 171L611 170M286 171L287 172L286 171M612 171L613 172L612 171M285 172L286 173L285 172z"/>
<path style="fill:#223558; stroke:none;" d="M613 172L614 173L613 172z"/>
<path style="fill:#359191; stroke:none;" d="M284 173L285 174L284 173M283 174L284 175L283 174M282 175L283 176L282 175M281 176L282 177L281 176M616 176L617 177L616 176z"/>
<path style="fill:#223558; stroke:none;" d="M280 177L281 178L280 177z"/>
<path style="fill:#359191; stroke:none;" d="M617 177L618 178L617 177M618 178L619 179L618 178M619 179L620 180L619 179M278 180L279 181L278 180M620 180L621 181L620 180M277 181L278 182L277 181M276 182L277 183L276 182M275 183L276 184L275 183M622 183L623 184L622 183M623 184L624 185L623 184M624 185L625 186L624 185M273 186L274 187L273 186z"/>
<path style="fill:#223558; stroke:none;" d="M625 186L626 187L625 186z"/>
<path style="fill:#359191; stroke:none;" d="M272 187L273 188L272 187M271 188L272 189L271 188M626 188L627 189L626 188M627 189L628 190L627 189z"/>
<path style="fill:#223558; stroke:none;" d="M628 190L629 191L628 190z"/>
<path style="fill:#359191; stroke:none;" d="M269 191L270 192L269 191M268 192L269 193L268 192M629 192L630 193L629 192M630 193L631 194L630 193M267 194L268 195L267 194z"/>
<path style="fill:#223558; stroke:none;" d="M631 194L632 195L631 194z"/>
<path style="fill:#359191; stroke:none;" d="M266 195L267 196L266 195M632 196L633 197L632 196M633 197L634 198L633 197M264 198L265 199L264 198z"/>
<path style="fill:#223558; stroke:none;" d="M263 199L264 200L263 199z"/>
<path style="fill:#359191; stroke:none;" d="M634 199L635 200L634 199M635 200L636 201L635 200M262 201L263 202L262 201z"/>
<path style="fill:#223558; stroke:none;" d="M261 202L262 203L261 202z"/>
<path style="fill:#359191; stroke:none;" d="M636 202L637 203L636 202M637 203L638 204L637 203M260 204L261 205L260 204M638 205L639 206L638 205z"/>
<path style="fill:#223558; stroke:none;" d="M639 206L640 207L639 206z"/>
<path style="fill:#359191; stroke:none;" d="M258 207L259 208L258 207M640 208L641 209L640 208M257 209L258 210L257 209z"/>
<path style="fill:#223558; stroke:none;" d="M256 210L257 211L256 210z"/>
<path style="fill:#359191; stroke:none;" d="M641 210L642 211L641 210M642 211L643 212L642 211M255 212L256 213L255 212M643 213L644 214L643 213M254 214L255 215L254 214M644 215L645 216L644 215M253 216L254 217L253 216M252 217L253 218L252 217M645 217L646 218L645 217M646 218L647 219L646 218M251 219L252 220L251 219M389 220L389 221L393 221L389 220z"/>
<path style="fill:#223558; stroke:none;" d="M393 220L393 221L402 221L393 220z"/>
<path style="fill:#030304; stroke:none;" d="M402 220.424C371.134 224.477 334.835 221.899 306 235.916C290.671 243.367 291.28 268.342 308 273.775C317.169 276.755 326.146 272.896 335 270.63C346.801 267.61 358.925 265.772 371 264.285C409.069 259.595 449.235 260.805 487 267.614C511.577 272.045 536.151 278.693 559 288.861C570.576 294.013 584.697 305.636 598 302.468C611.96 299.143 618.043 281.332 609.442 270.015C600.888 258.76 581.567 252.865 569 247.309C528.403 229.36 480.096 221.521 436 220.996C424.681 220.861 413.362 218.932 402 220.424z"/>
<path style="fill:#223558; stroke:none;" d="M429 220L429 221L441 221L429 220z"/>
<path style="fill:#359191; stroke:none;" d="M441 220L441 221L446 221L441 220M647 220L648 221L647 220M250 221L251 222L250 221M375 221L375 222L379 222L375 221z"/>
<path style="fill:#223558; stroke:none;" d="M379 221L379 222L385 222L379 221M453 221L453 222L456 222L453 221z"/>
<path style="fill:#359191; stroke:none;" d="M456 221L456 222L459 222L456 221M366 222L366 223L370 223L366 222z"/>
<path style="fill:#223558; stroke:none;" d="M370 222L370 223L373 223L370 222M464 222L464 223L467 223L464 222z"/>
<path style="fill:#359191; stroke:none;" d="M467 222L467 223L470 223L467 222M648 222L649 223L648 222M249 223L250 224L249 223M357 223L357 224L361 224L357 223z"/>
<path style="fill:#223558; stroke:none;" d="M361.667 223.333L362.333 223.667L361.667 223.333z"/>
<path style="fill:#5f17eb; stroke:none;" d="M363 223L364 224L363 223z"/>
<path style="fill:#223558; stroke:none;" d="M364 223L365 224L364 223M472 223L472 224L475 224L472 223z"/>
<path style="fill:#359191; stroke:none;" d="M475.667 223.333L476.333 223.667L475.667 223.333M350 224L350 225L354 225L350 224z"/>
<path style="fill:#223558; stroke:none;" d="M354 224L355 225L354 224z"/>
<path style="fill:#5f17eb; stroke:none;" d="M355.667 224.333L356.333 224.667L355.667 224.333z"/>
<path style="fill:#223558; stroke:none;" d="M357 224L358 225L357 224M480 224L480 225L483 225L480 224z"/>
<path style="fill:#359191; stroke:none;" d="M483.667 224.333L484.333 224.667L483.667 224.333M649 224L650 225L649 224M248 225L249 226L248 225M344 225L344 226L347 226L344 225z"/>
<path style="fill:#223558; stroke:none;" d="M347 225L348 226L347 225z"/>
<path style="fill:#5f17eb; stroke:none;" d="M348 225L349 226L348 225z"/>
<path style="fill:#223558; stroke:none;" d="M349 225L350 226L349 225M487.667 225.333L488.333 225.667L487.667 225.333z"/>
<path style="fill:#359191; stroke:none;" d="M489.667 225.333L490.333 225.667L489.667 225.333M339.667 226.333L340.333 226.667L339.667 226.333z"/>
<path style="fill:#223558; stroke:none;" d="M341.667 226.333L342.333 226.667L341.667 226.333z"/>
<path style="fill:#5f17eb; stroke:none;" d="M343 226L344 227L343 226z"/>
<path style="fill:#223558; stroke:none;" d="M344 226L345 227L344 226M493.667 226.333L494.333 226.667L493.667 226.333z"/>
<path style="fill:#359191; stroke:none;" d="M495.667 226.333L496.333 226.667L495.667 226.333M650 226L651 227L650 226M247 227L248 228L247 227M334.667 227.333L335.333 227.667L334.667 227.333z"/>
<path style="fill:#223558; stroke:none;" d="M336 227L337 228L336 227z"/>
<path style="fill:#5f17eb; stroke:none;" d="M337.667 227.333L338.333 227.667L337.667 227.333z"/>
<path style="fill:#223558; stroke:none;" d="M499.667 227.333L500.333 227.667L499.667 227.333z"/>
<path style="fill:#359191; stroke:none;" d="M501.667 227.333L502.333 227.667L501.667 227.333M329.667 228.333L330.333 228.667L329.667 228.333z"/>
<path style="fill:#223558; stroke:none;" d="M331 228L332 229L331 228z"/>
<path style="fill:#5f17eb; stroke:none;" d="M332 228L333 229L332 228z"/>
<path style="fill:#223558; stroke:none;" d="M333 228L334 229L333 228M504.667 228.333L505.333 228.667L504.667 228.333z"/>
<path style="fill:#359191; stroke:none;" d="M506.667 228.333L507.333 228.667L506.667 228.333M651 228L652 229L651 228M246 229L247 230L246 229M325.667 229.333L326.333 229.667L325.667 229.333z"/>
<path style="fill:#223558; stroke:none;" d="M327 229L328 230L327 229z"/>
<path style="fill:#5f17eb; stroke:none;" d="M328 229L329 230L328 229z"/>
<path style="fill:#223558; stroke:none;" d="M509.667 229.333L510.333 229.667L509.667 229.333z"/>
<path style="fill:#359191; stroke:none;" d="M511 229L512 230L511 229M321 230L322 231L321 230z"/>
<path style="fill:#223558; stroke:none;" d="M322 230L322 231L325 231L322 230M514.667 230.333L515.333 230.667L514.667 230.333z"/>
<path style="fill:#359191; stroke:none;" d="M516 230L517 231L516 230M652 230L653 231L652 230M245 231L246 232L245 231M317.667 231.333L318.333 231.667L317.667 231.333z"/>
<path style="fill:#223558; stroke:none;" d="M319.667 231.333L320.333 231.667L319.667 231.333M518.667 231.333L519.333 231.667L518.667 231.333z"/>
<path style="fill:#359191; stroke:none;" d="M520 231L521 232L520 231M314 232L315 233L314 232z"/>
<path style="fill:#223558; stroke:none;" d="M315.667 232.333L316.333 232.667L315.667 232.333M522.667 232.333L523.333 232.667L522.667 232.333z"/>
<path style="fill:#359191; stroke:none;" d="M524 232L525 233L524 232M653.333 232.667L653.667 233.333L653.333 232.667z"/>
<path style="fill:#223558; stroke:none;" d="M244 233L245 234L244 233z"/>
<path style="fill:#359191; stroke:none;" d="M310 233L311 234L310 233z"/>
<path style="fill:#223558; stroke:none;" d="M311.667 233.333L312.333 233.667L311.667 233.333M526.667 233.333L527.333 233.667L526.667 233.333z"/>
<path style="fill:#359191; stroke:none;" d="M528 233L529 234L528 233M244 234L245 235L244 234M307 234L308 235L307 234z"/>
<path style="fill:#223558; stroke:none;" d="M308.667 234.333L309.333 234.667L308.667 234.333M530.667 234.333L531.333 234.667L530.667 234.333z"/>
<path style="fill:#359191; stroke:none;" d="M532 234L533 235L532 234M305 235L306 236L305 235z"/>
<path style="fill:#223558; stroke:none;" d="M306 235L307 236L306 235M533 235L534 236L533 235z"/>
<path style="fill:#5f17eb; stroke:none;" d="M534 235L535 236L534 235z"/>
<path style="fill:#359191; stroke:none;" d="M535.667 235.333L536.333 235.667L535.667 235.333M654 235L655 236L654 235M243 236L244 237L243 236z"/>
<path style="fill:#223558; stroke:none;" d="M304 236L305 237L304 236z"/>
<path style="fill:#5f17eb; stroke:none;" d="M537 236L538 237L537 236z"/>
<path style="fill:#223558; stroke:none;" d="M538 236L539 237L538 236z"/>
<path style="fill:#359191; stroke:none;" d="M539 236L540 237L539 236M302 237L303 238L302 237z"/>
<path style="fill:#5f17eb; stroke:none;" d="M540.667 237.333L541.333 237.667L540.667 237.333z"/>
<path style="fill:#359191; stroke:none;" d="M542.667 237.333L543.333 237.667L542.667 237.333M655 237L656 238L655 237M242 238L243 239L242 238M301 238L302 239L301 238z"/>
<path style="fill:#223558; stroke:none;" d="M543 238L544 239L543 238z"/>
<path style="fill:#5f17eb; stroke:none;" d="M544 238L545 239L544 238z"/>
<path style="fill:#359191; stroke:none;" d="M545.667 238.333L546.333 238.667L545.667 238.333M300 239L301 240L300 239z"/>
<path style="fill:#223558; stroke:none;" d="M546 239L547 240L546 239z"/>
<path style="fill:#5f17eb; stroke:none;" d="M547.667 239.333L548.333 239.667L547.667 239.333z"/>
<path style="fill:#359191; stroke:none;" d="M549 239L550 240L549 239M656.333 239.667L656.667 240.333L656.333 239.667z"/>
<path style="fill:#223558; stroke:none;" d="M241 240L242 241L241 240z"/>
<path style="fill:#359191; stroke:none;" d="M299 240L300 241L299 240z"/>
<path style="fill:#5f17eb; stroke:none;" d="M550.667 240.333L551.333 240.667L550.667 240.333z"/>
<path style="fill:#359191; stroke:none;" d="M552 240L553 241L552 240M241 241L242 242L241 241M298 241L299 242L298 241z"/>
<path style="fill:#5f17eb; stroke:none;" d="M553.667 241.333L554.333 241.667L553.667 241.333z"/>
<path style="fill:#359191; stroke:none;" d="M555 241L556 242L555 241z"/>
<path style="fill:#5f17eb; stroke:none;" d="M556.667 242.333L557.333 242.667L556.667 242.333z"/>
<path style="fill:#359191; stroke:none;" d="M558 242L559 243L558 242M657 242L658 243L657 242M240 243L241 244L240 243z"/>
<path style="fill:#223558; stroke:none;" d="M297 243L298 244L297 243M558 243L559 244L558 243z"/>
<path style="fill:#5f17eb; stroke:none;" d="M559 243L560 244L559 243z"/>
<path style="fill:#223558; stroke:none;" d="M560 243L562 245L560 243z"/>
<path style="fill:#359191; stroke:none;" d="M561 243L562 244L561 243M296 244L297 245L296 244z"/>
<path style="fill:#5f17eb; stroke:none;" d="M562 244L563 245L562 244z"/>
<path style="fill:#359191; stroke:none;" d="M563.667 244.333L564.333 244.667L563.667 244.333M658.333 244.667L658.667 245.333L658.333 244.667z"/>
<path style="fill:#223558; stroke:none;" d="M239 245L240 246L239 245M296 245L297 246L296 245M564 245L565 246L564 245z"/>
<path style="fill:#5f17eb; stroke:none;" d="M565 245L566 246L565 245z"/>
<path style="fill:#359191; stroke:none;" d="M566 245L567 246L566 245M239 246L240 247L239 246M295 246L296 247L295 246z"/>
<path style="fill:#5f17eb; stroke:none;" d="M567 246L568 247L567 246z"/>
<path style="fill:#359191; stroke:none;" d="M568.667 246.333L569.333 246.667L568.667 246.333z"/>
<path style="fill:#223558; stroke:none;" d="M295 247L296 248L295 247z"/>
<path style="fill:#5f17eb; stroke:none;" d="M569 247L569 248L573 249L573 248L569 247z"/>
<path style="fill:#359191; stroke:none;" d="M571 247L572 248L571 247M659 247L660 248L659 247M238.333 248.667L238.667 249.333L238.333 248.667M573 248L574 249L573 248M294.333 249.667L294.667 250.333L294.333 249.667z"/>
<path style="fill:#223558; stroke:none;" d="M573 249L574 250L573 249z"/>
<path style="fill:#5f17eb; stroke:none;" d="M574 249L574 250L582 253L582 252L574 249z"/>
<path style="fill:#359191; stroke:none;" d="M576 249L577 250L576 249M578 250L579 251L578 250M660 250L661 251L660 250M237.333 251.667L237.667 252.333L237.333 251.667z"/>
<path style="fill:#223558; stroke:none;" d="M294 251L294 257L295 257L294 251z"/>
<path style="fill:#359191; stroke:none;" d="M580 251L581 252L580 251M582 252L583 253L582 252M661.333 252.667L661.667 253.333L661.333 252.667z"/>
<path style="fill:#223558; stroke:none;" d="M582 253L583 254L582 253z"/>
<path style="fill:#5f17eb; stroke:none;" d="M583 253L584 254L583 253z"/>
<path style="fill:#359191; stroke:none;" d="M584 253L585 254L584 253M236 254L237 255L236 254z"/>
<path style="fill:#223558; stroke:none;" d="M584 254L585 255L584 254z"/>
<path style="fill:#5f17eb; stroke:none;" d="M585 254L586 255L585 254z"/>
<path style="fill:#359191; stroke:none;" d="M586 254L587 255L586 254z"/>
<path style="fill:#223558; stroke:none;" d="M586 255L587 256L586 255z"/>
<path style="fill:#5f17eb; stroke:none;" d="M587 255L588 256L587 255z"/>
<path style="fill:#359191; stroke:none;" d="M588 255L589 256L588 255z"/>
<path style="fill:#223558; stroke:none;" d="M662 255L663 256L662 255M588 256L589 257L588 256z"/>
<path style="fill:#5f17eb; stroke:none;" d="M589 256L590 257L589 256z"/>
<path style="fill:#359191; stroke:none;" d="M590 256L591 257L590 256M662 256L663 257L662 256M235.333 257.667L235.667 258.333L235.333 257.667M294 257L295 258L294 257z"/>
<path style="fill:#5f17eb; stroke:none;" d="M591 257L592 258L591 257z"/>
<path style="fill:#359191; stroke:none;" d="M592 257L593 258L592 257z"/>
<path style="fill:#223558; stroke:none;" d="M592 258L593 259L592 258z"/>
<path style="fill:#5f17eb; stroke:none;" d="M593 258L593 259L599 262L599 261L593 258z"/>
<path style="fill:#359191; stroke:none;" d="M594 258L595 259L594 258M596 259L597 260L596 259M663 259L664 260L663 259M234.333 260.667L234.667 261.333L234.333 260.667z"/>
<path style="fill:#223558; stroke:none;" d="M295 260L296 261L295 260z"/>
<path style="fill:#359191; stroke:none;" d="M598 260L599 261L598 260M295 261L296 262L295 261z"/>
<path style="fill:#223558; stroke:none;" d="M599 261L600 262L599 261M392 262L392 263L398 263L392 262z"/>
<path style="fill:#359191; stroke:none;" d="M398 262L398 263L407 263L398 262M424 262L424 263L437 263L424 262z"/>
<path style="fill:#223558; stroke:none;" d="M437 262L437 263L442 263L437 262z"/>
<path style="fill:#5f17eb; stroke:none;" d="M600 262L601 263L600 262z"/>
<path style="fill:#359191; stroke:none;" d="M601 262L602 263L601 262M664.333 262.667L664.667 263.333L664.333 262.667z"/>
<path style="fill:#223558; stroke:none;" d="M233 263L234 264L233 263z"/>
<path style="fill:#359191; stroke:none;" d="M296 263L297 264L296 263z"/>
<path style="fill:#223558; stroke:none;" d="M378 263L378 264L381 264L378 263z"/>
<path style="fill:#359191; stroke:none;" d="M381 263L381 264L386 264L381 263M448 263L448 264L453 264L448 263z"/>
<path style="fill:#223558; stroke:none;" d="M453 263L453 264L456 264L453 263M601 263L602 264L601 263z"/>
<path style="fill:#5f17eb; stroke:none;" d="M602 263L603 264L602 263z"/>
<path style="fill:#359191; stroke:none;" d="M603 263L604 264L603 263M233 264L234 265L233 264z"/>
<path style="fill:#223558; stroke:none;" d="M369 264L369 265L372 265L369 264z"/>
<path style="fill:#359191; stroke:none;" d="M372 264L372 265L375 265L372 264M459 264L459 265L462 265L459 264z"/>
<path style="fill:#223558; stroke:none;" d="M462 264L462 265L465 265L462 264M603.667 264.333L604.333 264.667L603.667 264.333z"/>
<path style="fill:#359191; stroke:none;" d="M297 265L298 266L297 265z"/>
<path style="fill:#223558; stroke:none;" d="M361 265L361 266L364 266L361 265z"/>
<path style="fill:#359191; stroke:none;" d="M364.667 265.333L365.333 265.667L364.667 265.333M468.667 265.333L469.333 265.667L468.667 265.333z"/>
<path style="fill:#223558; stroke:none;" d="M470 265L470 266L473 266L470 265z"/>
<path style="fill:#5f17eb; stroke:none;" d="M605 265L610 270L605 265z"/>
<path style="fill:#359191; stroke:none;" d="M606 265L607 266L606 265z"/>
<path style="fill:#223558; stroke:none;" d="M665 265L666 266L665 265M355 266L356 267L355 266z"/>
<path style="fill:#359191; stroke:none;" d="M356.667 266.333L357.333 266.667L356.667 266.333M476.667 266.333L477.333 266.667L476.667 266.333z"/>
<path style="fill:#223558; stroke:none;" d="M478.667 266.333L479.333 266.667L478.667 266.333z"/>
<path style="fill:#359191; stroke:none;" d="M607 266L608 267L607 266M665 266L666 267L665 266M232.333 267.667L232.667 268.333L232.333 267.667M298 267L299 268L298 267z"/>
<path style="fill:#223558; stroke:none;" d="M349.667 267.333L350.333 267.667L349.667 267.333z"/>
<path style="fill:#359191; stroke:none;" d="M351 267L352 268L351 267M483.667 267.333L484.333 267.667L483.667 267.333z"/>
<path style="fill:#223558; stroke:none;" d="M485.667 267.333L486.333 267.667L485.667 267.333z"/>
<path style="fill:#359191; stroke:none;" d="M608 267L609 268L608 267M299 268L300 269L299 268z"/>
<path style="fill:#223558; stroke:none;" d="M344 268L345 269L344 268z"/>
<path style="fill:#359191; stroke:none;" d="M345 268L346 269L345 268M488.667 268.333L489.333 268.667L488.667 268.333z"/>
<path style="fill:#223558; stroke:none;" d="M490.667 268.333L491.333 268.667L490.667 268.333z"/>
<path style="fill:#359191; stroke:none;" d="M609 268L610 269L609 268M300 269L301 270L300 269z"/>
<path style="fill:#223558; stroke:none;" d="M339.667 269.333L340.333 269.667L339.667 269.333z"/>
<path style="fill:#359191; stroke:none;" d="M341 269L342 270L341 269M494 269L495 270L494 269z"/>
<path style="fill:#223558; stroke:none;" d="M495.667 269.333L496.333 269.667L495.667 269.333z"/>
<path style="fill:#359191; stroke:none;" d="M666.333 269.667L666.667 270.333L666.333 269.667M301 270L302 271L301 270z"/>
<path style="fill:#223558; stroke:none;" d="M335 270L336 271L335 270z"/>
<path style="fill:#359191; stroke:none;" d="M336.667 270.333L337.333 270.667L336.667 270.333M499 270L500 271L499 270z"/>
<path style="fill:#223558; stroke:none;" d="M500.667 270.333L501.333 270.667L500.667 270.333M610.333 270.667L610.667 271.333L610.333 270.667z"/>
<path style="fill:#359191; stroke:none;" d="M231.333 271.667L231.667 272.333L231.333 271.667M302 271L303 272L302 271z"/>
<path style="fill:#223558; stroke:none;" d="M331 271L332 272L331 271z"/>
<path style="fill:#359191; stroke:none;" d="M332.667 271.333L333.333 271.667L332.667 271.333M503.667 271.333L504.333 271.667L503.667 271.333z"/>
<path style="fill:#223558; stroke:none;" d="M505 271L506 272L505 271z"/>
<path style="fill:#359191; stroke:none;" d="M611 271L612 272L611 271z"/>
<path style="fill:#223558; stroke:none;" d="M304 272L305 273L304 272M328 272L329 273L328 272z"/>
<path style="fill:#359191; stroke:none;" d="M329 272L330 273L329 272M508 272L509 273L508 272z"/>
<path style="fill:#223558; stroke:none;" d="M509 272L510 273L509 272z"/>
<path style="fill:#5f17eb; stroke:none;" d="M611 272L612 273L611 272z"/>
<path style="fill:#223558; stroke:none;" d="M306 273L307 274L306 273M324 273L325 274L324 273z"/>
<path style="fill:#359191; stroke:none;" d="M325 273L326 274L325 273M512 273L513 274L512 273z"/>
<path style="fill:#223558; stroke:none;" d="M513 273L514 274L513 273z"/>
<path style="fill:#359191; stroke:none;" d="M612 273L613 274L612 273M667.333 273.667L667.667 274.333L667.333 273.667M308 274L309 275L308 274z"/>
<path style="fill:#223558; stroke:none;" d="M309.667 274.333L310.333 274.667L309.667 274.333M320 274L321 275L320 274z"/>
<path style="fill:#359191; stroke:none;" d="M321.667 274.333L322.333 274.667L321.667 274.333M516 274L517 275L516 274z"/>
<path style="fill:#223558; stroke:none;" d="M517 274L518 275L517 274M612.333 274.667L612.667 275.333L612.333 274.667z"/>
<path style="fill:#359191; stroke:none;" d="M230.333 275.667L230.667 276.333L230.333 275.667M314.667 275.333L315.333 275.667L314.667 275.333M520 275L521 276L520 275z"/>
<path style="fill:#223558; stroke:none;" d="M521 275L522 276L521 275z"/>
<path style="fill:#359191; stroke:none;" d="M523 276L524 277L523 276z"/>
<path style="fill:#223558; stroke:none;" d="M524 276L525 277L524 276z"/>
<path style="fill:#359191; stroke:none;" d="M613.333 276.667L613.667 277.333L613.333 276.667M527 277L528 278L527 277z"/>
<path style="fill:#223558; stroke:none;" d="M528 277L529 278L528 277z"/>
<path style="fill:#359191; stroke:none;" d="M530 278L531 279L530 278z"/>
<path style="fill:#223558; stroke:none;" d="M531 278L532 279L531 278M613 278L613 281L614 281L613 278z"/>
<path style="fill:#359191; stroke:none;" d="M668.333 278.667L668.667 279.333L668.333 278.667M533 279L534 280L533 279z"/>
<path style="fill:#223558; stroke:none;" d="M534 279L535 280L534 279z"/>
<path style="fill:#359191; stroke:none;" d="M229 280L229 283L230 283L229 280M536 280L537 281L536 280z"/>
<path style="fill:#223558; stroke:none;" d="M537 280L538 281L537 280z"/>
<path style="fill:#359191; stroke:none;" d="M539 281L540 282L539 281z"/>
<path style="fill:#223558; stroke:none;" d="M540 281L541 282L540 281z"/>
<path style="fill:#359191; stroke:none;" d="M542 282L543 283L542 282z"/>
<path style="fill:#223558; stroke:none;" d="M543 282L544 283L543 282M669 282L670 283L669 282z"/>
<path style="fill:#359191; stroke:none;" d="M545 283L546 284L545 283M669.333 283.667L669.667 284.333L669.333 283.667M547 284L548 285L547 284z"/>
<path style="fill:#223558; stroke:none;" d="M548 284L549 285L548 284M613 284L613 287L614 287L613 284z"/>
<path style="fill:#359191; stroke:none;" d="M228 285L228 288L229 288L228 285M550 285L551 286L550 285z"/>
<path style="fill:#223558; stroke:none;" d="M551 285L552 286L551 285M553 286L554 287L553 286z"/>
<path style="fill:#359191; stroke:none;" d="M555 287L556 288L555 287M613 287L614 288L613 287M557 288L558 289L557 288z"/>
<path style="fill:#223558; stroke:none;" d="M558 288L559 289L558 288z"/>
<path style="fill:#359191; stroke:none;" d="M670 288L670 291L671 291L670 288M559 289L560 290L559 289z"/>
<path style="fill:#223558; stroke:none;" d="M560 289L561 290L560 289M612 289L613 290L612 289M562 290L563 291L562 290z"/>
<path style="fill:#359191; stroke:none;" d="M227 291L227 295L228 295L227 291M564 291L565 292L564 291z"/>
<path style="fill:#223558; stroke:none;" d="M611 291L612 292L611 291z"/>
<path style="fill:#359191; stroke:none;" d="M566 292L567 293L566 292M568 293L569 294L568 293z"/>
<path style="fill:#223558; stroke:none;" d="M569 293L570 294L569 293M610 293L611 294L610 293z"/>
<path style="fill:#359191; stroke:none;" d="M570 294L571 295L570 294z"/>
<path style="fill:#223558; stroke:none;" d="M571 294L572 295L571 294M609 294L610 295L609 294M671 294L672 295L671 294z"/>
<path style="fill:#359191; stroke:none;" d="M572 295L573 296L572 295z"/>
<path style="fill:#223558; stroke:none;" d="M573 295L574 296L573 295z"/>
<path style="fill:#359191; stroke:none;" d="M671 295L671 299L672 299L671 295M574 296L575 297L574 296M608 296L609 297L608 296M391 297L391 298L395 298L391 297z"/>
<path style="fill:#223558; stroke:none;" d="M395 297L395 298L402 298L395 297z"/>
<path style="fill:#030304; stroke:none;" d="M402 297.424C375.619 300.888 345.931 299.408 321 310.529C306.923 316.809 306.259 338.286 322 343.196C328.603 345.256 335.613 342.165 342 340.654C353.533 337.926 365.236 335.748 377 334.285C408.263 330.395 441.116 331.681 472 338.211C494.009 342.864 515.813 349.16 536 359.247C545.446 363.967 557.907 374.205 569 371.06C580.427 367.82 585.715 353.774 578.351 344.093C571.175 334.661 555.41 329.657 545 324.78C513.093 309.832 477.808 302.561 443 298.834C430.094 297.452 414.879 295.733 402 297.424z"/>
<path style="fill:#223558; stroke:none;" d="M416 297L416 298L429 298L416 297z"/>
<path style="fill:#359191; stroke:none;" d="M429 297L429 298L433 298L429 297M576 297L577 298L576 297M607 297L608 298L607 297M226 298L226 303L227 303L226 298M378 298L378 299L381 299L378 298z"/>
<path style="fill:#223558; stroke:none;" d="M381 298L381 299L385 299L381 298M440 298L440 299L443 299L440 298z"/>
<path style="fill:#359191; stroke:none;" d="M443.667 298.333L444.333 298.667L443.667 298.333M578 298L579 299L578 298M606 298L607 299L606 298M370.667 299.333L371.333 299.667L370.667 299.333z"/>
<path style="fill:#223558; stroke:none;" d="M372 299L372 300L376 300L372 299M449 299L449 300L453 300L449 299z"/>
<path style="fill:#359191; stroke:none;" d="M453.667 299.333L454.333 299.667L453.667 299.333z"/>
<path style="fill:#223558; stroke:none;" d="M580 299L581 300L580 299M604 299L605 300L604 299z"/>
<path style="fill:#359191; stroke:none;" d="M363 300L364 301L363 300z"/>
<path style="fill:#223558; stroke:none;" d="M364 300L364 301L367 301L364 300M457 300L457 301L460 301L457 300z"/>
<path style="fill:#359191; stroke:none;" d="M460.667 300.333L461.333 300.667L460.667 300.333z"/>
<path style="fill:#223558; stroke:none;" d="M582 300L583 301L582 300z"/>
<path style="fill:#359191; stroke:none;" d="M603 300L604 301L603 300M357 301L358 302L357 301z"/>
<path style="fill:#223558; stroke:none;" d="M358 301L358 302L361 302L358 301M465.667 301.333L466.333 301.667L465.667 301.333z"/>
<path style="fill:#359191; stroke:none;" d="M467 301L468 302L467 301z"/>
<path style="fill:#223558; stroke:none;" d="M584 301L585 302L584 301M601 301L602 302L601 301z"/>
<path style="fill:#359191; stroke:none;" d="M351.667 302.333L352.333 302.667L351.667 302.333z"/>
<path style="fill:#223558; stroke:none;" d="M353.667 302.333L354.333 302.667L353.667 302.333M470.667 302.333L471.333 302.667L470.667 302.333z"/>
<path style="fill:#359191; stroke:none;" d="M472.667 302.333L473.333 302.667L472.667 302.333M586 302L587 303L586 302z"/>
<path style="fill:#223558; stroke:none;" d="M587 302L588 303L587 302M598 302L599 303L598 302z"/>
<path style="fill:#359191; stroke:none;" d="M599 302L600 303L599 302M346 303L347 304L346 303z"/>
<path style="fill:#223558; stroke:none;" d="M347.667 303.333L348.333 303.667L347.667 303.333M476.667 303.333L477.333 303.667L476.667 303.333z"/>
<path style="fill:#359191; stroke:none;" d="M478 303L479 304L478 303M590 303L590 304L595 304L590 303z"/>
<path style="fill:#223558; stroke:none;" d="M672 303L673 304L672 303z"/>
<path style="fill:#359191; stroke:none;" d="M342 304L343 305L342 304z"/>
<path style="fill:#223558; stroke:none;" d="M343 304L344 305L343 304M481.667 304.333L482.333 304.667L481.667 304.333z"/>
<path style="fill:#359191; stroke:none;" d="M483 304L484 305L483 304M672 304L672 309L673 309L672 304M337 305L338 306L337 305z"/>
<path style="fill:#223558; stroke:none;" d="M338.667 305.333L339.333 305.667L338.667 305.333M485.667 305.333L486.333 305.667L485.667 305.333z"/>
<path style="fill:#359191; stroke:none;" d="M487 305L488 306L487 305M333 306L334 307L333 306z"/>
<path style="fill:#223558; stroke:none;" d="M334.667 306.333L335.333 306.667L334.667 306.333M490 306L491 307L490 306z"/>
<path style="fill:#359191; stroke:none;" d="M491.667 306.333L492.333 306.667L491.667 306.333M330 307L331 308L330 307z"/>
<path style="fill:#223558; stroke:none;" d="M331 307L332 308L331 307M494 307L495 308L494 307z"/>
<path style="fill:#359191; stroke:none;" d="M495 307L496 308L495 307z"/>
<path style="fill:#223558; stroke:none;" d="M225 308L226 309L225 308z"/>
<path style="fill:#359191; stroke:none;" d="M326 308L327 309L326 308z"/>
<path style="fill:#223558; stroke:none;" d="M327 308L328 309L327 308M498 308L499 309L498 308z"/>
<path style="fill:#359191; stroke:none;" d="M499 308L500 309L499 308M225 309L225 319L226 319L225 309M322 309L323 310L322 309z"/>
<path style="fill:#223558; stroke:none;" d="M323 309L324 310L323 309M501.667 309.333L502.333 309.667L501.667 309.333z"/>
<path style="fill:#359191; stroke:none;" d="M503 309L504 310L503 309M320 310L321 311L320 310z"/>
<path style="fill:#223558; stroke:none;" d="M505.667 310.333L506.333 310.667L505.667 310.333z"/>
<path style="fill:#359191; stroke:none;" d="M318 311L319 312L318 311z"/>
<path style="fill:#223558; stroke:none;" d="M508.667 311.333L509.333 311.667L508.667 311.333z"/>
<path style="fill:#359191; stroke:none;" d="M510 311L511 312L510 311z"/>
<path style="fill:#223558; stroke:none;" d="M317 312L318 313L317 312M512 312L513 313L512 312z"/>
<path style="fill:#359191; stroke:none;" d="M513 312L514 313L513 312M315 313L316 314L315 313z"/>
<path style="fill:#223558; stroke:none;" d="M515 313L516 314L515 313z"/>
<path style="fill:#359191; stroke:none;" d="M516 313L517 314L516 313M314 314L315 315L314 314z"/>
<path style="fill:#223558; stroke:none;" d="M518 314L519 315L518 314z"/>
<path style="fill:#359191; stroke:none;" d="M519 314L520 315L519 314M313 315L314 316L313 315z"/>
<path style="fill:#223558; stroke:none;" d="M521 315L522 316L521 315z"/>
<path style="fill:#359191; stroke:none;" d="M522 315L523 316L522 315z"/>
<path style="fill:#223558; stroke:none;" d="M524 316L525 317L524 316z"/>
<path style="fill:#359191; stroke:none;" d="M525 316L526 317L525 316z"/>
<path style="fill:#223558; stroke:none;" d="M312 317L313 318L312 317M526.667 317.333L527.333 317.667L526.667 317.333z"/>
<path style="fill:#359191; stroke:none;" d="M311 318L312 319L311 318z"/>
<path style="fill:#223558; stroke:none;" d="M529 318L530 319L529 318z"/>
<path style="fill:#359191; stroke:none;" d="M530 318L531 319L530 318z"/>
<path style="fill:#223558; stroke:none;" d="M311 319L312 320L311 319M532 319L533 320L532 319z"/>
<path style="fill:#359191; stroke:none;" d="M533 319L534 320L533 319z"/>
<path style="fill:#223558; stroke:none;" d="M534 320L535 321L534 320z"/>
<path style="fill:#359191; stroke:none;" d="M535 320L536 321L535 320M673 320L673 331L674 331L673 320z"/>
<path style="fill:#223558; stroke:none;" d="M310.333 321.667L310.667 322.333L310.333 321.667M537 321L538 322L537 321M539 322L540 323L539 322z"/>
<path style="fill:#359191; stroke:none;" d="M540 322L541 323L540 322z"/>
<path style="fill:#223558; stroke:none;" d="M542 323L543 324L542 323M544 324L545 325L544 324z"/>
<path style="fill:#359191; stroke:none;" d="M309 325L309 329L310 329L309 325z"/>
<path style="fill:#223558; stroke:none;" d="M546 325L547 326L546 325z"/>
<path style="fill:#359191; stroke:none;" d="M547 325L548 326L547 325z"/>
<path style="fill:#223558; stroke:none;" d="M548 326L549 327L548 326z"/>
<path style="fill:#359191; stroke:none;" d="M549 326L550 327L549 326z"/>
<path style="fill:#223558; stroke:none;" d="M550 327L551 328L550 327z"/>
<path style="fill:#359191; stroke:none;" d="M551 327L552 328L551 327M553 328L554 329L553 328M555 329L556 330L555 329M557 330L558 331L557 330z"/>
<path style="fill:#223558; stroke:none;" d="M310 331L311 332L310 331M559 331L560 332L559 331z"/>
<path style="fill:#359191; stroke:none;" d="M310 332L311 333L310 332z"/>
<path style="fill:#223558; stroke:none;" d="M401 332L401 333L423 333L401 332z"/>
<path style="fill:#359191; stroke:none;" d="M561 332L562 333L561 332M225 333L225 342L226 342L225 333z"/>
<path style="fill:#223558; stroke:none;" d="M384 333L384 334L389 334L384 333z"/>
<path style="fill:#359191; stroke:none;" d="M389 333L389 334L392 334L389 333M429 333L429 334L433 334L429 333z"/>
<path style="fill:#223558; stroke:none;" d="M433 333L433 334L437 334L433 333M562 333L563 334L562 333z"/>
<path style="fill:#359191; stroke:none;" d="M563 333L564 334L563 333z"/>
<path style="fill:#223558; stroke:none;" d="M311 334L312 335L311 334M375 334L375 335L378 335L375 334z"/>
<path style="fill:#359191; stroke:none;" d="M378.667 334.333L379.333 334.667L378.667 334.333M442.667 334.333L443.333 334.667L442.667 334.333z"/>
<path style="fill:#223558; stroke:none;" d="M444 334L444 335L448 335L444 334M564 334L565 335L564 334M368.667 335.333L369.333 335.667L368.667 335.333z"/>
<path style="fill:#359191; stroke:none;" d="M370.667 335.333L371.333 335.667L370.667 335.333M452.667 335.333L453.333 335.667L452.667 335.333z"/>
<path style="fill:#223558; stroke:none;" d="M454 335L454 336L457 336L454 335M566 335L567 336L566 335z"/>
<path style="fill:#359191; stroke:none;" d="M312 336L313 337L312 336z"/>
<path style="fill:#223558; stroke:none;" d="M362.667 336.333L363.333 336.667L362.667 336.333z"/>
<path style="fill:#359191; stroke:none;" d="M364 336L365 337L364 336M459.667 336.333L460.333 336.667L459.667 336.333z"/>
<path style="fill:#223558; stroke:none;" d="M461.667 336.333L462.333 336.667L461.667 336.333z"/>
<path style="fill:#359191; stroke:none;" d="M568 336L569 337L568 336z"/>
<path style="fill:#223558; stroke:none;" d="M313 337L314 338L313 337M356.667 337.333L357.333 337.667L356.667 337.333z"/>
<path style="fill:#359191; stroke:none;" d="M358 337L359 338L358 337M465 337L466 338L465 337z"/>
<path style="fill:#223558; stroke:none;" d="M466 337L466 338L469 338L466 337M569 337L570 338L569 337z"/>
<path style="fill:#359191; stroke:none;" d="M570 337L571 338L570 337z"/>
<path style="fill:#223558; stroke:none;" d="M314 338L315 339L314 338M351 338L352 339L351 338z"/>
<path style="fill:#359191; stroke:none;" d="M352.667 338.333L353.333 338.667L352.667 338.333M471 338L472 339L471 338z"/>
<path style="fill:#223558; stroke:none;" d="M472.667 338.333L473.333 338.667L472.667 338.333M571 338L572 339L571 338M315 339L316 340L315 339M347 339L348 340L347 339z"/>
<path style="fill:#359191; stroke:none;" d="M348 339L349 340L348 339M475.667 339.333L476.333 339.667L475.667 339.333z"/>
<path style="fill:#223558; stroke:none;" d="M477 339L478 340L477 339M573 339L574 340L573 339M316 340L317 341L316 340M342.667 340.333L343.333 340.667L342.667 340.333z"/>
<path style="fill:#359191; stroke:none;" d="M344 340L345 341L344 340M480 340L481 341L480 340z"/>
<path style="fill:#223558; stroke:none;" d="M481.667 340.333L482.333 340.667L481.667 340.333M574 340L575 341L574 340z"/>
<path style="fill:#359191; stroke:none;" d="M317 341L318 342L317 341z"/>
<path style="fill:#223558; stroke:none;" d="M338.667 341.333L339.333 341.667L338.667 341.333z"/>
<path style="fill:#359191; stroke:none;" d="M340 341L341 342L340 341z"/>
<path style="fill:#223558; stroke:none;" d="M485.667 341.333L486.333 341.667L485.667 341.333z"/>
<path style="fill:#359191; stroke:none;" d="M576 341L577 342L576 341z"/>
<path style="fill:#223558; stroke:none;" d="M319 342L320 343L319 342M335 342L336 343L335 342z"/>
<path style="fill:#359191; stroke:none;" d="M336 342L337 343L336 342M488 342L489 343L488 342z"/>
<path style="fill:#223558; stroke:none;" d="M489.667 342.333L490.333 342.667L489.667 342.333z"/>
<path style="fill:#359191; stroke:none;" d="M577 342L578 343L577 342M672 342L672 348L673 348L672 342M321 343L322 344L321 343z"/>
<path style="fill:#223558; stroke:none;" d="M322 343L323 344L322 343M330.667 343.333L331.333 343.667L330.667 343.333z"/>
<path style="fill:#359191; stroke:none;" d="M332 343L333 344L332 343M492 343L493 344L492 343z"/>
<path style="fill:#223558; stroke:none;" d="M493.667 343.333L494.333 343.667L493.667 343.333z"/>
<path style="fill:#359191; stroke:none;" d="M578 343L579 344L578 343M496 344L497 345L496 344z"/>
<path style="fill:#223558; stroke:none;" d="M497 344L498 345L497 344z"/>
<path style="fill:#359191; stroke:none;" d="M499 345L500 346L499 345z"/>
<path style="fill:#223558; stroke:none;" d="M500 345L501 346L500 345M579 345L580 346L579 345M503.667 346.333L504.333 346.667L503.667 346.333z"/>
<path style="fill:#359191; stroke:none;" d="M506 347L507 348L506 347z"/>
<path style="fill:#223558; stroke:none;" d="M507 347L508 348L507 347M580 347L581 348L580 347z"/>
<path style="fill:#359191; stroke:none;" d="M226 348L226 353L227 353L226 348M509 348L510 349L509 348z"/>
<path style="fill:#223558; stroke:none;" d="M510 348L511 349L510 348M512 349L513 350L512 349z"/>
<path style="fill:#359191; stroke:none;" d="M581 349L582 350L581 349z"/>
<path style="fill:#223558; stroke:none;" d="M515 350L516 351L515 350M581 350L582 351L581 350z"/>
<path style="fill:#359191; stroke:none;" d="M517 351L518 352L517 351z"/>
<path style="fill:#223558; stroke:none;" d="M518 351L519 352L518 351z"/>
<path style="fill:#359191; stroke:none;" d="M520 352L521 353L520 352M522 353L523 354L522 353z"/>
<path style="fill:#223558; stroke:none;" d="M523 353L524 354L523 353z"/>
<path style="fill:#359191; stroke:none;" d="M671 353L671 356L672 356L671 353z"/>
<path style="fill:#223558; stroke:none;" d="M525 354L526 355L525 354z"/>
<path style="fill:#359191; stroke:none;" d="M527 355L528 356L527 355z"/>
<path style="fill:#223558; stroke:none;" d="M528 355L529 356L528 355z"/>
<path style="fill:#359191; stroke:none;" d="M529 356L530 357L529 356z"/>
<path style="fill:#223558; stroke:none;" d="M530 356L531 357L530 356M671 356L672 357L671 356z"/>
<path style="fill:#359191; stroke:none;" d="M227 357L227 360L228 360L227 357z"/>
<path style="fill:#223558; stroke:none;" d="M532 357L533 358L532 357M581.333 357.667L581.667 358.333L581.333 357.667M534 358L535 359L534 358z"/>
<path style="fill:#359191; stroke:none;" d="M536 359L537 360L536 359M581 359L582 360L581 359M538 360L539 361L538 360M670 360L670 363L671 363L670 360M540 361L541 362L540 361z"/>
<path style="fill:#223558; stroke:none;" d="M580 361L581 362L580 361z"/>
<path style="fill:#359191; stroke:none;" d="M542 362L543 363L542 362M228 363L228 366L229 366L228 363M544 363L545 364L544 363z"/>
<path style="fill:#223558; stroke:none;" d="M579 363L580 364L579 363M670 363L671 364L670 363M546 364L547 365L546 364M548 365L549 366L548 365z"/>
<path style="fill:#359191; stroke:none;" d="M578 365L579 366L578 365M549 366L550 367L549 366z"/>
<path style="fill:#223558; stroke:none;" d="M550 366L551 367L550 366z"/>
<path style="fill:#359191; stroke:none;" d="M577 366L578 367L577 366M669 366L669 369L670 369L669 366M551 367L552 368L551 367M576 367L577 368L576 367M553 368L554 369L553 368z"/>
<path style="fill:#223558; stroke:none;" d="M574 368L575 369L574 368z"/>
<path style="fill:#359191; stroke:none;" d="M575 368L576 369L575 368M229.333 369.667L229.667 370.333L229.333 369.667z"/>
<path style="fill:#223558; stroke:none;" d="M555 369L556 370L555 369M573 369L574 370L573 369z"/>
<path style="fill:#359191; stroke:none;" d="M408 370L408 371L419 371L408 370z"/>
<path style="fill:#223558; stroke:none;" d="M557 370L558 371L557 370M571 370L572 371L571 370M229 371L230 372L229 371z"/>
<path style="fill:#359191; stroke:none;" d="M390 371L390 372L393 372L390 371z"/>
<path style="fill:#223558; stroke:none;" d="M393 371L393 372L398 372L393 371z"/>
<path style="fill:#030304; stroke:none;" d="M398 371.424C375.557 374.371 349.251 373.244 328.001 382.133C316.91 386.773 316.247 402.759 328 407.258C340.151 411.909 361.341 402.86 374 401.285C404.059 397.545 435.21 397.492 465 403.449C483.501 407.149 501.134 413.32 518 421.753C525.463 425.484 535.145 433.554 543.999 430.852C553.137 428.063 556.617 416.471 550.581 409.093C543.827 400.837 530.457 396.568 521 392.306C484.601 375.899 437.998 366.173 398 371.424z"/>
<path style="fill:#223558; stroke:none;" d="M433 371L433 372L437 372L433 371z"/>
<path style="fill:#359191; stroke:none;" d="M437 371L437 372L440 372L437 371M559 371L560 372L559 371z"/>
<path style="fill:#223558; stroke:none;" d="M560.667 371.333L561.333 371.667L560.667 371.333M567.667 371.333L568.333 371.667L567.667 371.333z"/>
<path style="fill:#359191; stroke:none;" d="M569 371L570 372L569 371M668 371L668 374L669 374L668 371M378.667 372.333L379.333 372.667L378.667 372.333z"/>
<path style="fill:#223558; stroke:none;" d="M380 372L380 373L385 373L380 372M444 372L444 373L448 373L444 372z"/>
<path style="fill:#359191; stroke:none;" d="M448.667 372.333L449.333 372.667L448.667 372.333M370.667 373.333L371.333 373.667L370.667 373.333z"/>
<path style="fill:#223558; stroke:none;" d="M372 373L372 374L375 374L372 373M453 373L453 374L456 374L453 373z"/>
<path style="fill:#359191; stroke:none;" d="M456.667 373.333L457.333 373.667L456.667 373.333M230.333 374.667L230.667 375.333L230.333 374.667M362.667 374.333L363.333 374.667L362.667 374.333z"/>
<path style="fill:#223558; stroke:none;" d="M364 374L364 375L368 375L364 374M460.667 374.333L461.333 374.667L460.667 374.333z"/>
<path style="fill:#359191; stroke:none;" d="M462 374L463 375L462 374M356.667 375.333L357.333 375.667L356.667 375.333z"/>
<path style="fill:#223558; stroke:none;" d="M358 375L358 376L361 376L358 375M466.667 375.333L467.333 375.667L466.667 375.333z"/>
<path style="fill:#359191; stroke:none;" d="M468 375L469 376L468 375M350.667 376.333L351.333 376.667L350.667 376.333z"/>
<path style="fill:#223558; stroke:none;" d="M352 376L352 377L355 377L352 376M471.667 376.333L472.333 376.667L471.667 376.333z"/>
<path style="fill:#359191; stroke:none;" d="M473 376L474 377L473 376M667.333 376.667L667.667 377.333L667.333 376.667M345 377L346 378L345 377z"/>
<path style="fill:#223558; stroke:none;" d="M346 377L346 378L349 378L346 377M476 377L477 378L476 377z"/>
<path style="fill:#359191; stroke:none;" d="M477 377L478 378L477 377M231.333 378.667L231.667 379.333L231.333 378.667M340.667 378.333L341.333 378.667L340.667 378.333z"/>
<path style="fill:#223558; stroke:none;" d="M342.667 378.333L343.333 378.667L342.667 378.333M480 378L481 379L480 378z"/>
<path style="fill:#359191; stroke:none;" d="M481 378L482 379L481 378M336 379L337 380L336 379z"/>
<path style="fill:#223558; stroke:none;" d="M337.667 379.333L338.333 379.667L337.667 379.333M484 379L485 380L484 379z"/>
<path style="fill:#359191; stroke:none;" d="M485.667 379.333L486.333 379.667L485.667 379.333z"/>
<path style="fill:#223558; stroke:none;" d="M231 380L232 381L231 380z"/>
<path style="fill:#359191; stroke:none;" d="M331 380L332 381L331 380z"/>
<path style="fill:#223558; stroke:none;" d="M332.667 380.333L333.333 380.667L332.667 380.333M488 380L489 381L488 380z"/>
<path style="fill:#359191; stroke:none;" d="M489 380L490 381L489 380M666.333 380.667L666.667 381.333L666.333 380.667M328 381L329 382L328 381z"/>
<path style="fill:#223558; stroke:none;" d="M329 381L330 382L329 381M491 381L492 382L491 381z"/>
<path style="fill:#359191; stroke:none;" d="M492 381L493 382L492 381M232.333 382.667L232.667 383.333L232.333 382.667M325 382L326 383L325 382z"/>
<path style="fill:#223558; stroke:none;" d="M326 382L327 383L326 382M494.667 382.333L495.333 382.667L494.667 382.333z"/>
<path style="fill:#359191; stroke:none;" d="M496 382L497 383L496 382M324 383L325 384L324 383z"/>
<path style="fill:#223558; stroke:none;" d="M498 383L499 384L498 383z"/>
<path style="fill:#359191; stroke:none;" d="M499 383L500 384L499 383z"/>
<path style="fill:#223558; stroke:none;" d="M323 384L324 385L323 384M501 384L502 385L501 384z"/>
<path style="fill:#359191; stroke:none;" d="M502 384L503 385L502 384M665.333 384.667L665.667 385.333L665.333 384.667z"/>
<path style="fill:#223558; stroke:none;" d="M322 385L323 386L322 385M504 385L505 386L504 385z"/>
<path style="fill:#359191; stroke:none;" d="M233.333 386.667L233.667 387.333L233.333 386.667M321 386L322 387L321 386z"/>
<path style="fill:#223558; stroke:none;" d="M506 386L507 387L506 386z"/>
<path style="fill:#359191; stroke:none;" d="M507 386L508 387L507 386z"/>
<path style="fill:#223558; stroke:none;" d="M509 387L510 388L509 387z"/>
<path style="fill:#359191; stroke:none;" d="M510 387L511 388L510 387z"/>
<path style="fill:#223558; stroke:none;" d="M320 388L321 389L320 388M512 388L513 389L512 388z"/>
<path style="fill:#359191; stroke:none;" d="M664 388L665 389L664 388z"/>
<path style="fill:#223558; stroke:none;" d="M514 389L515 390L514 389z"/>
<path style="fill:#359191; stroke:none;" d="M515 389L516 390L515 389z"/>
<path style="fill:#223558; stroke:none;" d="M664 389L665 390L664 389z"/>
<path style="fill:#359191; stroke:none;" d="M234 390L235 391L234 390M319 390L320 391L319 390z"/>
<path style="fill:#223558; stroke:none;" d="M516 390L517 391L516 390z"/>
<path style="fill:#359191; stroke:none;" d="M517 390L518 391L517 390z"/>
<path style="fill:#223558; stroke:none;" d="M234 391L235 392L234 391M319 391L320 392L319 391M519 391L520 392L519 391z"/>
<path style="fill:#359191; stroke:none;" d="M663.333 391.667L663.667 392.333L663.333 391.667z"/>
<path style="fill:#223558; stroke:none;" d="M521 392L522 393L521 392z"/>
<path style="fill:#359191; stroke:none;" d="M235 393L236 394L235 393M318 393L318 397L319 397L318 393z"/>
<path style="fill:#223558; stroke:none;" d="M523 393L524 394L523 393z"/>
<path style="fill:#359191; stroke:none;" d="M524 393L525 394L524 393z"/>
<path style="fill:#223558; stroke:none;" d="M235 394L236 395L235 394M525 394L526 395L525 394z"/>
<path style="fill:#359191; stroke:none;" d="M526 394L527 395L526 394M662.333 394.667L662.667 395.333L662.333 394.667M528 395L529 396L528 395M236 396L237 397L236 396z"/>
<path style="fill:#223558; stroke:none;" d="M530 396L531 397L530 396M236 397L237 398L236 397M532 397L533 398L532 397z"/>
<path style="fill:#359191; stroke:none;" d="M661.333 397.667L661.667 398.333L661.333 397.667z"/>
<path style="fill:#223558; stroke:none;" d="M319 398L320 399L319 398z"/>
<path style="fill:#359191; stroke:none;" d="M534 398L535 399L534 398M237 399L238 400L237 399M319 399L320 400L319 399z"/>
<path style="fill:#223558; stroke:none;" d="M392 399L392 400L398 400L392 399z"/>
<path style="fill:#359191; stroke:none;" d="M398 399L398 400L402 400L398 399M429 399L429 400L433 400L429 399z"/>
<path style="fill:#223558; stroke:none;" d="M433 399L433 400L437 400L433 399z"/>
<path style="fill:#359191; stroke:none;" d="M536 399L537 400L536 399z"/>
<path style="fill:#223558; stroke:none;" d="M237 400L238 401L237 400M381 400L381 401L384 401L381 400z"/>
<path style="fill:#359191; stroke:none;" d="M384.667 400.333L385.333 400.667L384.667 400.333M441 400L441 401L444 401L441 400z"/>
<path style="fill:#223558; stroke:none;" d="M444 400L444 401L447 401L444 400z"/>
<path style="fill:#359191; stroke:none;" d="M538 400L539 401L538 400M660.333 400.667L660.667 401.333L660.333 400.667M320 401L321 402L320 401z"/>
<path style="fill:#223558; stroke:none;" d="M372 401L372 402L375 402L372 401z"/>
<path style="fill:#359191; stroke:none;" d="M375.667 401.333L376.333 401.667L375.667 401.333M450.667 401.333L451.333 401.667L450.667 401.333z"/>
<path style="fill:#223558; stroke:none;" d="M452.667 401.333L453.333 401.667L452.667 401.333M539 401L540 402L539 401z"/>
<path style="fill:#359191; stroke:none;" d="M238 402L239 403L238 402z"/>
<path style="fill:#223558; stroke:none;" d="M321 402L322 403L321 402M365.667 402.333L366.333 402.667L365.667 402.333z"/>
<path style="fill:#359191; stroke:none;" d="M367.667 402.333L368.333 402.667L367.667 402.333M457 402L458 403L457 402z"/>
<path style="fill:#223558; stroke:none;" d="M458.667 402.333L459.333 402.667L458.667 402.333M541 402L542 403L541 402M322 403L323 404L322 403M359.667 403.333L360.333 403.667L359.667 403.333z"/>
<path style="fill:#359191; stroke:none;" d="M361.667 403.333L362.333 403.667L361.667 403.333M462.667 403.333L463.333 403.667L462.667 403.333z"/>
<path style="fill:#223558; stroke:none;" d="M464.667 403.333L465.333 403.667L464.667 403.333z"/>
<path style="fill:#359191; stroke:none;" d="M543 403L544 404L543 403M659.333 403.667L659.667 404.333L659.333 403.667M239.333 404.667L239.667 405.333L239.333 404.667z"/>
<path style="fill:#223558; stroke:none;" d="M323 404L324 405L323 404M354.667 404.333L355.333 404.667L354.667 404.333z"/>
<path style="fill:#359191; stroke:none;" d="M356 404L357 405L356 404M468 404L469 405L468 404z"/>
<path style="fill:#223558; stroke:none;" d="M469 404L470 405L469 404z"/>
<path style="fill:#359191; stroke:none;" d="M545 404L546 405L545 404z"/>
<path style="fill:#223558; stroke:none;" d="M324 405L325 406L324 405M348.667 405.333L349.333 405.667L348.667 405.333z"/>
<path style="fill:#359191; stroke:none;" d="M350 405L351 406L350 405M472 405L473 406L472 405z"/>
<path style="fill:#223558; stroke:none;" d="M473.667 405.333L474.333 405.667L473.667 405.333M546 405L547 406L546 405M325 406L326 407L325 406M344 406L345 407L344 406z"/>
<path style="fill:#359191; stroke:none;" d="M345 406L346 407L345 406M476 406L477 407L476 406z"/>
<path style="fill:#223558; stroke:none;" d="M477.667 406.333L478.333 406.667L477.667 406.333z"/>
<path style="fill:#359191; stroke:none;" d="M548 406L549 407L548 406M658 406L659 407L658 406M240 407L241 408L240 407z"/>
<path style="fill:#223558; stroke:none;" d="M327 407L328 408L327 407M339 407L340 408L339 407z"/>
<path style="fill:#359191; stroke:none;" d="M340.667 407.333L341.333 407.667L340.667 407.333M480 407L481 408L480 407z"/>
<path style="fill:#223558; stroke:none;" d="M481 407L482 408L481 407M549 407L550 408L549 407M240 408L241 409L240 408z"/>
<path style="fill:#359191; stroke:none;" d="M329.667 408.333L330.333 408.667L329.667 408.333z"/>
<path style="fill:#223558; stroke:none;" d="M331 408L331 409L334 409L331 408z"/>
<path style="fill:#359191; stroke:none;" d="M334.667 408.333L335.333 408.667L334.667 408.333M484 408L485 409L484 408z"/>
<path style="fill:#223558; stroke:none;" d="M485 408L486 409L485 408M550 408L551 409L550 408z"/>
<path style="fill:#359191; stroke:none;" d="M657.333 408.667L657.667 409.333L657.333 408.667M487 409L488 410L487 409z"/>
<path style="fill:#223558; stroke:none;" d="M488 409L489 410L488 409z"/>
<path style="fill:#359191; stroke:none;" d="M551 409L552 410L551 409M241 410L242 411L241 410M490 410L491 411L490 410z"/>
<path style="fill:#223558; stroke:none;" d="M491 410L492 411L491 410z"/>
<path style="fill:#359191; stroke:none;" d="M493 411L494 412L493 411z"/>
<path style="fill:#223558; stroke:none;" d="M494 411L495 412L494 411M552 411L553 412L552 411z"/>
<path style="fill:#359191; stroke:none;" d="M656 411L657 412L656 411M242 412L243 413L242 412z"/>
<path style="fill:#223558; stroke:none;" d="M496.667 412.333L497.333 412.667L496.667 412.333z"/>
<path style="fill:#359191; stroke:none;" d="M498 413L499 414L498 413z"/>
<path style="fill:#223558; stroke:none;" d="M499 413L500 414L499 413z"/>
<path style="fill:#359191; stroke:none;" d="M553 413L554 414L553 413M655.333 413.667L655.667 414.333L655.333 413.667M501 414L502 415L501 414z"/>
<path style="fill:#223558; stroke:none;" d="M502 414L503 415L502 414M553 414L554 415L553 414z"/>
<path style="fill:#359191; stroke:none;" d="M243 415L244 416L243 415z"/>
<path style="fill:#223558; stroke:none;" d="M504 415L505 416L504 415z"/>
<path style="fill:#359191; stroke:none;" d="M506 416L507 417L506 416M654 416L655 417L654 416M244 417L245 418L244 417M508 417L509 418L508 417z"/>
<path style="fill:#223558; stroke:none;" d="M509 417L510 418L509 417z"/>
<path style="fill:#359191; stroke:none;" d="M510 418L511 419L510 418z"/>
<path style="fill:#223558; stroke:none;" d="M511 418L512 419L511 418z"/>
<path style="fill:#359191; stroke:none;" d="M653 418L654 419L653 418M245 419L246 420L245 419z"/>
<path style="fill:#223558; stroke:none;" d="M513 419L514 420L513 419M515 420L516 421L515 420M553.333 420.667L553.667 421.333L553.333 420.667z"/>
<path style="fill:#359191; stroke:none;" d="M652 420L653 421L652 420M246 421L247 422L246 421z"/>
<path style="fill:#223558; stroke:none;" d="M517 421L518 422L517 421M519 422L520 423L519 422z"/>
<path style="fill:#359191; stroke:none;" d="M651 422L652 423L651 422M247 423L248 424L247 423z"/>
<path style="fill:#223558; stroke:none;" d="M521 423L522 424L521 423M552 423L553 424L552 423M523 424L524 425L523 424z"/>
<path style="fill:#359191; stroke:none;" d="M552 424L553 425L552 424M650 424L651 425L650 424M248 425L249 426L248 425z"/>
<path style="fill:#223558; stroke:none;" d="M525 425L526 426L525 425M551 425L552 426L551 425z"/>
<path style="fill:#359191; stroke:none;" d="M526 426L527 427L526 426z"/>
<path style="fill:#223558; stroke:none;" d="M527 426L528 427L527 426z"/>
<path style="fill:#359191; stroke:none;" d="M649 426L650 427L649 426M249 427L250 428L249 427M528 427L529 428L528 427M550 427L551 428L550 427M530 428L531 429L530 428M549 428L550 429L549 428M648 428L649 429L648 428M250 429L251 430L250 429z"/>
<path style="fill:#223558; stroke:none;" d="M532 429L533 430L532 429M547 429L548 430L547 429M534 430L535 431L534 430M545 430L546 431L545 430z"/>
<path style="fill:#359191; stroke:none;" d="M546 430L547 431L546 430M647 430L648 431L647 430M251 431L252 432L251 431M536 431L537 432L536 431z"/>
<path style="fill:#223558; stroke:none;" d="M537 431L537 432L540 432L537 431M542.667 431.333L543.333 431.667L542.667 431.333z"/>
<path style="fill:#359191; stroke:none;" d="M646 432L647 433L646 432M252 433L253 434L252 433M645 434L646 435L645 434M253 435L254 436L253 435M644 436L645 437L644 436z"/>
<path style="fill:#223558; stroke:none;" d="M254 437L255 438L254 437z"/>
<path style="fill:#359191; stroke:none;" d="M255 438L256 439L255 438M642 439L643 440L642 439M256 440L257 441L256 440M641 441L642 442L641 441M257 442L258 443L257 442M258 443L259 444L258 443z"/>
<path style="fill:#223558; stroke:none;" d="M640 443L641 444L640 443z"/>
<path style="fill:#359191; stroke:none;" d="M639 444L640 445L639 444M259 445L260 446L259 445M638 446L639 447L638 446M637 447L638 448L637 447M261 448L262 449L261 448M636 449L637 450L636 449z"/>
<path style="fill:#223558; stroke:none;" d="M262 450L263 451L262 450z"/>
<path style="fill:#359191; stroke:none;" d="M635 450L636 451L635 450M263 451L264 452L263 451M634 452L635 453L634 452M633 453L634 454L633 453M265 454L266 455L265 454M266 455L267 456L266 455M632 455L633 456L632 455M631 456L632 457L631 456M267 457L268 458L267 457M268 458L269 459L268 458M629 459L630 460L629 459M628 460L629 461L628 460M270 461L271 462L270 461M271 462L272 463L271 462z"/>
<path style="fill:#223558; stroke:none;" d="M627 462L628 463L627 462z"/>
<path style="fill:#359191; stroke:none;" d="M272 463L273 464L272 463M626 463L627 464L626 463M625 464L626 465L625 464M273 465L274 466L273 465M624 465L625 466L624 465M274 466L275 467L274 466M275 467L276 468L275 467z"/>
<path style="fill:#223558; stroke:none;" d="M623 467L624 468L623 467z"/>
<path style="fill:#359191; stroke:none;" d="M622 468L623 469L622 468M621 469L622 470L621 469z"/>
<path style="fill:#223558; stroke:none;" d="M277 470L278 471L277 470z"/>
<path style="fill:#359191; stroke:none;" d="M620 470L621 471L620 470M278 471L279 472L278 471M279 472L280 473L279 472M280 473L281 474L280 473z"/>
<path style="fill:#223558; stroke:none;" d="M618 473L619 474L618 473z"/>
<path style="fill:#359191; stroke:none;" d="M281 474L282 475L281 474M617 474L618 475L617 474M616 475L617 476L616 475M615 476L616 477L615 476M614 477L615 478L614 477M613 478L614 479L613 478z"/>
<path style="fill:#223558; stroke:none;" d="M285 479L286 480L285 479z"/>
<path style="fill:#359191; stroke:none;" d="M612 479L613 480L612 479M286 480L287 481L286 480M611 480L612 481L611 480M287 481L288 482L287 481M610 481L611 482L610 481M288 482L289 483L288 482M289 483L290 484L289 483M290 484L291 485L290 484M291 485L292 486L291 485M292 486L293 487L292 486M293 487L294 488L293 487M294 488L295 489L294 488M603 488L604 489L603 488M295 489L296 490L295 489M602 489L603 490L602 489M601 490L602 491L601 490M600 491L601 492L600 491M599 492L600 493L599 492M300 493L301 494L300 493M598 493L599 494L598 493M301 494L302 495L301 494M597 494L598 495L597 494M302 495L303 496L302 495M596 495L597 496L596 495M303 496L304 497L303 496M304 497L305 498L304 497M593 497L594 498L593 497M592 498L593 499L592 498M307 499L308 500L307 499M591 499L592 500L591 499M308 500L309 501L308 500M590 500L591 501L590 500M309 501L310 502L309 501M587 502L588 503L587 502M312 503L313 504L312 503M586 503L587 504L586 503M313 504L314 505L313 504M585 504L586 505L585 504M314 505L315 506L314 505M316 506L317 507L316 506M582 506L583 507L582 506M317 507L318 508L317 507M581 507L582 508L581 507z"/>
<path style="fill:#223558; stroke:none;" d="M318 508L319 509L318 508z"/>
<path style="fill:#359191; stroke:none;" d="M579 508L580 509L579 508M320 509L321 510L320 509M578 509L579 510L578 509M321 510L322 511L321 510M323 511L324 512L323 511M575 511L576 512L575 511M324 512L325 513L324 512z"/>
<path style="fill:#223558; stroke:none;" d="M574 512L575 513L574 512z"/>
<path style="fill:#359191; stroke:none;" d="M326 513L327 514L326 513M572 513L573 514L572 513M327 514L328 515L327 514M329 515L330 516L329 515M569 515L570 516L569 515M330 516L331 517L330 516M567 516L568 517L567 516M332 517L333 518L332 517M566 517L567 518L566 517M334 518L335 519L334 518M564 518L565 519L564 518M335 519L336 520L335 519M337 520L338 521L337 520M561 520L562 521L561 520M339 521L340 522L339 521M559 521L560 522L559 521z"/>
<path style="fill:#223558; stroke:none;" d="M340 522L341 523L340 522z"/>
<path style="fill:#359191; stroke:none;" d="M557 522L558 523L557 522M342 523L343 524L342 523z"/>
<path style="fill:#223558; stroke:none;" d="M556 523L557 524L556 523z"/>
<path style="fill:#359191; stroke:none;" d="M344 524L345 525L344 524M554 524L555 525L554 524M346 525L347 526L346 525M552 525L553 526L552 525M348 526L349 527L348 526M550 526L551 527L550 526M350 527L351 528L350 527M548 527L549 528L548 527M352 528L353 529L352 528M546 528L547 529L546 528M354 529L355 530L354 529M544 529L545 530L544 529M356 530L357 531L356 530M541 530L542 531L541 530M359 531L360 532L359 531M539 531L540 532L539 531M361 532L362 533L361 532M537 532L538 533L537 532M363 533L364 534L363 533M534.667 533.333L535.333 533.667L534.667 533.333M366 534L367 535L366 534M532 534L533 535L532 534M368.667 535.333L369.333 535.667L368.667 535.333M529.667 535.333L530.333 535.667L529.667 535.333M371 536L372 537L371 536M527 536L528 537L527 536z"/>
<path style="fill:#223558; stroke:none;" d="M373 537L374 538L373 537z"/>
<path style="fill:#359191; stroke:none;" d="M374 537L375 538L374 537M524 537L525 538L524 537z"/>
<path style="fill:#223558; stroke:none;" d="M525 537L526 538L525 537z"/>
<path style="fill:#359191; stroke:none;" d="M376.667 538.333L377.333 538.667L376.667 538.333M521 538L522 539L521 538z"/>
<path style="fill:#223558; stroke:none;" d="M522 538L523 539L522 538z"/>
<path style="fill:#359191; stroke:none;" d="M379.667 539.333L380.333 539.667L379.667 539.333M518 539L519 540L518 539z"/>
<path style="fill:#223558; stroke:none;" d="M519 539L520 540L519 539z"/>
<path style="fill:#359191; stroke:none;" d="M382.667 540.333L383.333 540.667L382.667 540.333M515 540L516 541L515 540z"/>
<path style="fill:#223558; stroke:none;" d="M516 540L517 541L516 540z"/>
<path style="fill:#359191; stroke:none;" d="M386.667 541.333L387.333 541.667L386.667 541.333M511.667 541.333L512.333 541.667L511.667 541.333M389.667 542.333L390.333 542.667L389.667 542.333M508 542L509 543L508 542z"/>
<path style="fill:#223558; stroke:none;" d="M509 542L510 543L509 542z"/>
<path style="fill:#359191; stroke:none;" d="M393.667 543.333L394.333 543.667L393.667 543.333M504.667 543.333L505.333 543.667L504.667 543.333M397.667 544.333L398.333 544.667L397.667 544.333M499.667 544.333L500.333 544.667L499.667 544.333z"/>
<path style="fill:#223558; stroke:none;" d="M501 544L502 545L501 544M401 545L402 546L401 545z"/>
<path style="fill:#359191; stroke:none;" d="M402.667 545.333L403.333 545.667L402.667 545.333M495.667 545.333L496.333 545.667L495.667 545.333z"/>
<path style="fill:#223558; stroke:none;" d="M406 546L407 547L406 546z"/>
<path style="fill:#359191; stroke:none;" d="M407.667 546.333L408.333 546.667L407.667 546.333M489 546L489 547L492 547L489 546M412 547L412 548L415 548L412 547M483 547L483 548L487 548L483 547M419 548L419 549L423 549L419 548M476 548L476 549L480 549L476 548M428 549L428 550L434 550L428 549M464 549L464 550L471 550L464 549z"/>
</svg>
