<?xml version="1.0" standalone="yes"?>
<svg xmlns="http://www.w3.org/2000/svg" width="900" height="650">
<path style="fill:#2d4455; stroke:none;" d="M0 0L0 650L900 650L900 0L0 0z"/>
<path style="fill:#7e7756; stroke:none;" d="M328 104L329 105L328 104z"/>
<path style="fill:#b79b4d; stroke:none;" d="M329 104L329 105L333 105L329 104z"/>
<path style="fill:#7e7756; stroke:none;" d="M325 105L324 107L325 105z"/>
<path style="fill:#f4af3f; stroke:none;" d="M335 436C335 351.389 336 266.684 336 182C336 162.667 336.091 143.332 335.979 124C335.956 119.944 337.988 115.913 337.664 112.001C337.217 106.596 330.907 103.222 326.148 106.028C320.096 109.596 325.044 119.564 325.01 125C324.891 144.332 325 163.668 325 183L325 373L325 427C325 430.973 321.034 441.228 322.175 443.826C323.935 447.834 330.269 448.611 334 449.049C343.609 450.178 361.73 452.603 369.663 445.301C375.595 439.841 362.388 436.651 359 436.134C356.024 435.68 353.009 435.171 350 435.039C344.909 434.817 340.041 435.602 335 436z"/>
<path style="fill:#b79b4d; stroke:none;" d="M334 105L335 106L334 105M335 106L336 107L335 106M336 107L337 108L336 107z"/>
<path style="fill:#7e7756; stroke:none;" d="M337 108L338 109L337 108M322 109L323 110L322 109z"/>
<path style="fill:#b79b4d; stroke:none;" d="M337 109L338 110L337 109M322 110L322 114L323 114L322 110z"/>
<path style="fill:#7e7756; stroke:none;" d="M338 111L338 114L339 114L338 111M322 114L323 115L322 114z"/>
<path style="fill:#b79b4d; stroke:none;" d="M337 115L338 116L337 115z"/>
<path style="fill:#7e7756; stroke:none;" d="M323 116L324 117L323 116M337 116L338 117L337 116z"/>
<path style="fill:#b79b4d; stroke:none;" d="M324 117L325 118L324 117z"/>
<path style="fill:#7e7756; stroke:none;" d="M336 117L337 118L336 117z"/>
<path style="fill:#b79b4d; stroke:none;" d="M325.333 118.667L325.667 119.333L325.333 118.667z"/>
<path style="fill:#7e7756; stroke:none;" d="M335.333 118.667L335.667 119.333L335.333 118.667M324 120L324 392C315.404 393.158 307.193 396.269 299 399C264.424 410.525 198.388 441.142 223.323 488C247.888 534.16 320.646 539.139 366 532.572C393.042 528.656 422.423 522.138 446 507.796C461.681 498.256 471.073 482.52 489 476.09C503.827 470.772 520.565 471.967 536 470.91C554.731 469.628 573.641 467.498 592 463.35C610.359 459.201 649.377 451.298 646.446 425C643.569 399.186 599.239 391.176 579 387.389C563.576 384.503 544.707 379.305 529 381.184C514.906 382.871 500.409 390.819 487 395.333C447.386 408.667 408.31 425.997 368 437C377.386 452.655 344.097 450.932 334 449.245C330.258 448.62 323.973 447.687 322.175 443.71C321.07 441.265 325 430.858 325 427L325 375L325 195L325 143C325 136.049 326.701 126.436 324 120z"/>
<path style="fill:#d51c5b; stroke:none;" d="M336 121L336 225C352.025 220.617 365.865 209.894 382 205.761C391.871 203.232 403.801 204.905 414 204.086C423.655 203.31 437.653 197.874 443 209C453.319 200.405 440.977 185.41 433 179.905C423.57 173.397 411.547 172.921 402 167.005C379.122 152.829 360.236 133.752 336 121z"/>
<path style="fill:#7e7756; stroke:none;" d="M338 122L339 123L338 122M340 123L341 124L340 123M342 124L343 125L342 124M344 125L345 126L344 125M347 127L348 128L347 127M349 128L350 129L349 128M352 130L353 131L352 130M355 132L356 133L355 132M357 133L358 134L357 133M358 134L359 135L358 134M360 135L361 136L360 135M363 137L364 138L363 137M366 139L367 140L366 139M367 140L368 141L367 140M369 141L370 142L369 141M370 142L371 143L370 142M373 144L374 145L373 144M374 145L375 146L374 145M376 146L377 147L376 146M377 147L378 148L377 147M380 149L381 150L380 149M381 150L382 151L381 150M382 151L383 152L382 151M385 153L386 154L385 153M386 154L387 155L386 154M387 155L388 156L387 155M390 157L391 158L390 157M391 158L392 159L391 158M392 159L393 160L392 159M399 165L400 166L399 165M400 166L401 167L400 166M402 167L403 168L402 167M404 168L405 169L404 168M407 169L408 170L407 169M410 170L411 171L410 170M413 171L414 172L413 171M416 172L417 173L416 172M419 173L420 174L419 173M422 174L423 175L422 174M424 175L425 176L424 175M430 178L431 179L430 178M442 189L443 190L442 189M444 192L445 193L444 192M445 194L446 195L445 194M446 197L447 198L446 197M426.667 202.333L427.333 202.667L426.667 202.333M436 202L437 203L436 202M420.667 203.333L421.333 203.667L420.667 203.333M439 203L440 204L439 203M410 204L410 205L415 205L410 204M382 205L383 206L382 205M379 206L380 207L379 206M442 206L443 207L442 206M376 207L377 208L376 207M445 207L446 208L445 207M444 208L445 209L444 208M369 210L370 211L369 210M364 212L365 213L364 212M362 213L363 214L362 213M360 214L361 215L360 214M358 215L359 216L358 215M349 219L350 220L349 219M347 220L348 221L347 220M345 221L346 222L345 221M343 222L344 223L343 222M340 223L341 224L340 223M338 224L339 225L338 224M336 435C343.213 435 351.999 436.636 359 435.441C371.289 433.342 384.189 426.444 396 422.344C435.326 408.692 475.458 390.379 516 381C504.424 376.006 485.538 378 473 378C441.407 378 410.404 378.472 379 381.834C368.599 382.948 358.311 384.458 348 386.25C344.934 386.783 339.075 386.903 337.028 389.589C334.847 392.45 336 398.612 336 402L336 435z"/>
<path style="fill:#b79b4d; stroke:none;" d="M335 388L335 436L340 436L340 435L336 435C336 421.735 340.109 400.177 335 388M332 389L332 436L333 436C333 422.735 337.109 401.177 332 389M354.667 435.333L355.333 435.667L354.667 435.333M361.667 436.333L362.333 436.667L361.667 436.333z"/>
<path style="fill:#7e7756; stroke:none;" d="M363 436L364 437L363 436z"/>
<path style="fill:#b79b4d; stroke:none;" d="M365 437L366 438L365 437z"/>
<path style="fill:#7e7756; stroke:none;" d="M366 437L367 438L366 437z"/>
<path style="fill:#b79b4d; stroke:none;" d="M324 438L325 439L324 438M367 438L368 439L367 438M323 439L324 440L323 439M369 439L370 440L369 439M321 440L322 441L321 440M371 440L372 441L371 440M372 442L373 443L372 442M321 444L322 445L321 444M371 444L372 445L371 444M370 445L371 446L370 445M324 446L325 447L324 446M368 446L369 447L368 446M326 447L327 448L326 447M365 447L366 448L365 447M329 448L330 449L329 448M361.667 448.333L362.333 448.667L361.667 448.333M335 449L335 450L338 450L335 449M355 449L355 450L358 450L355 449z"/>
</svg>
